<?xml version="1.0" standalone="no"?>
 <!DOCTYPE svg PUBLIC "-//W3C//DTD SVG 1.1//EN" 
 "http://www.w3.org/Graphics/SVG/1.1/DTD/svg11.dtd"> 
<svg xmlns="http://www.w3.org/2000/svg" version="1.1" 
    width="4.00558cm" height="3.35026cm" viewBox="0 0 15770 13190 ">
<title>SVG Picture created as MeshProto--brd.svg date 2013/11/12 23:50:13 </title>
  <desc>Picture generated by PCBNEW </desc>
<g style="fill:#000000; fill-opacity:1;stroke:#000000; stroke-opacity:1;
stroke-linecap:round; stroke-linejoin:round; "
 transform="translate(0 0) scale(1 1)">
</g>
<g style="fill:#9F009F; fill-opacity:0.0; 
stroke:#9F009F; stroke-width:118.11; stroke-opacity:1; 
stroke-linecap:round; stroke-linejoin:round;">
<path d="M12639 3343
L12245 3343
" />
<path d="M12301 3343
L12273 3371
L12245 3427
L12245 3512
L12273 3568
L12330 3596
L12639 3596
" />
<path d="M12330 3596
L12273 3624
L12245 3681
L12245 3765
L12273 3821
L12330 3849
L12639 3849
" />
<path d="M12611 4355
L12639 4299
L12639 4187
L12611 4131
L12555 4102
L12330 4102
L12273 4131
L12245 4187
L12245 4299
L12273 4355
L12330 4384
L12386 4384
L12442 4102
" />
<path d="M12611 4609
L12639 4665
L12639 4777
L12611 4834
L12555 4862
L12526 4862
L12470 4834
L12442 4777
L12442 4693
L12414 4637
L12358 4609
L12330 4609
L12273 4637
L12245 4693
L12245 4777
L12273 4834
" />
<path d="M12639 5115
L12048 5115
" />
<path d="M12639 5368
L12330 5368
L12273 5340
L12245 5283
L12245 5199
L12273 5143
L12301 5115
" />
<path d="M12245 5565
L12245 5790
" />
<path d="M12048 5649
L12555 5649
L12611 5677
L12639 5733
L12639 5790
" />
<path d="M12639 5987
L12048 5987
" />
<path d="M12639 6240
L12330 6240
L12273 6212
L12245 6155
L12245 6071
L12273 6015
L12301 5987
" />
<path d="M12639 6521
L12245 6521
" />
<path d="M12048 6521
L12076 6493
L12105 6521
L12076 6549
L12048 6521
L12105 6521
" />
<path d="M12245 6802
L12639 6802
" />
<path d="M12301 6802
L12273 6830
L12245 6886
L12245 6971
L12273 7027
L12330 7055
L12639 7055
" />
<path d="M12245 7589
L12723 7589
L12779 7561
L12808 7533
L12836 7477
L12836 7393
L12808 7336
" />
<path d="M12611 7589
L12639 7533
L12639 7421
L12611 7364
L12583 7336
L12526 7308
L12358 7308
L12301 7336
L12273 7364
L12245 7421
L12245 7533
L12273 7589
" />
<path d="M12583 7871
L12611 7899
L12639 7871
L12611 7843
L12583 7871
L12639 7871
" />
<path d="M12611 8405
L12639 8349
L12639 8236
L12611 8180
L12583 8152
L12526 8124
L12358 8124
L12301 8152
L12273 8180
L12245 8236
L12245 8349
L12273 8405
" />
<path d="M12639 8742
L12611 8686
L12583 8658
L12526 8630
L12358 8630
L12301 8658
L12273 8686
L12245 8742
L12245 8827
L12273 8883
L12301 8911
L12358 8939
L12526 8939
L12583 8911
L12611 8883
L12639 8827
L12639 8742
" />
<path d="M12639 9192
L12245 9192
" />
<path d="M12301 9192
L12273 9221
L12245 9277
L12245 9361
L12273 9417
L12330 9445
L12639 9445
" />
<path d="M12330 9445
L12273 9474
L12245 9530
L12245 9614
L12273 9670
L12330 9699
L12639 9699
" />
</g>
<g style="fill:#009F9F; fill-opacity:0.0; 
stroke:#009F9F; stroke-width:39.3701; stroke-opacity:1; 
stroke-linecap:round; stroke-linejoin:round;">
<path d="M12200 9208
L12003 9208
L12143 9142
L12003 9076
L12200 9076
" />
<path d="M12190 8908
L12200 8926
L12200 8964
L12190 8983
L12171 8992
L12096 8992
L12078 8983
L12068 8964
L12068 8926
L12078 8908
L12096 8898
L12115 8898
L12134 8992
" />
<path d="M12190 8823
L12200 8805
L12200 8767
L12190 8748
L12171 8739
L12162 8739
L12143 8748
L12134 8767
L12134 8795
L12125 8814
L12106 8823
L12096 8823
L12078 8814
L12068 8795
L12068 8767
L12078 8748
" />
<path d="M12200 8655
L12003 8655
" />
<path d="M12200 8570
L12096 8570
L12078 8580
L12068 8598
L12068 8626
L12078 8645
L12087 8655
" />
<path d="M12200 8476
L12003 8476
L12003 8401
L12012 8383
L12021 8373
L12040 8364
L12068 8364
L12087 8373
L12096 8383
L12106 8401
L12106 8476
" />
<path d="M12200 8280
L12068 8280
" />
<path d="M12106 8280
L12087 8270
L12078 8261
L12068 8242
L12068 8223
" />
<path d="M12200 8130
L12190 8148
L12181 8158
L12162 8167
L12106 8167
L12087 8158
L12078 8148
L12068 8130
L12068 8101
L12078 8083
L12087 8073
L12106 8064
L12162 8064
L12181 8073
L12190 8083
L12200 8101
L12200 8130
" />
<path d="M12068 8008
L12068 7933
" />
<path d="M12003 7980
L12171 7980
L12190 7970
L12200 7951
L12200 7933
" />
<path d="M12200 7839
L12190 7858
L12181 7867
L12162 7876
L12106 7876
L12087 7867
L12078 7858
L12068 7839
L12068 7811
L12078 7792
L12087 7783
L12106 7773
L12162 7773
L12181 7783
L12190 7792
L12200 7811
L12200 7839
" />
<path d="M12068 7558
L12200 7511
L12068 7464
" />
<path d="M12200 7286
L12200 7398
" />
<path d="M12200 7342
L12003 7342
L12031 7361
L12050 7380
L12059 7398
" />
<path d="M12181 7202
L12190 7192
L12200 7202
L12190 7211
L12181 7202
L12200 7202
" />
<path d="M12003 7070
L12003 7052
L12012 7033
L12021 7023
L12040 7014
L12078 7005
L12125 7005
L12162 7014
L12181 7023
L12190 7033
L12200 7052
L12200 7070
L12190 7089
L12181 7098
L12162 7108
L12125 7117
L12078 7117
L12040 7108
L12021 7098
L12012 7089
L12003 7070
" />
<path d="M12364 10225
L12355 10243
L12355 10281
L12364 10300
L12383 10318
L12402 10328
L12439 10328
L12458 10318
L12477 10300
L12486 10281
L12486 10243
L12477 10225
" />
<path d="M12290 10262
L12299 10309
L12327 10356
L12374 10384
L12421 10393
L12468 10384
L12514 10356
L12543 10309
L12552 10262
L12543 10215
L12514 10168
L12468 10140
L12421 10131
L12374 10140
L12327 10168
L12299 10215
L12290 10262
" />
<path d="M12514 9897
L12318 9897
L12318 9850
L12327 9822
L12346 9803
L12364 9793
L12402 9784
L12430 9784
L12468 9793
L12486 9803
L12505 9822
L12514 9850
L12514 9897
" />
<path d="M12514 9615
L12411 9615
L12393 9625
L12383 9643
L12383 9681
L12393 9700
" />
<path d="M12505 9615
L12514 9634
L12514 9681
L12505 9700
L12486 9709
L12468 9709
L12449 9700
L12439 9681
L12439 9634
L12430 9615
" />
<path d="M12383 9540
L12514 9493
L12383 9447
" />
<path d="M12514 9372
L12383 9372
" />
<path d="M12318 9372
L12327 9381
L12336 9372
L12327 9362
L12318 9372
L12336 9372
" />
<path d="M12514 9194
L12318 9194
" />
<path d="M12505 9194
L12514 9212
L12514 9250
L12505 9269
L12496 9278
L12477 9287
L12421 9287
L12402 9278
L12393 9269
L12383 9250
L12383 9212
L12393 9194
" />
<path d="M12496 8837
L12505 8847
L12514 8875
L12514 8894
L12505 8922
L12486 8940
L12468 8950
L12430 8959
L12402 8959
L12364 8950
L12346 8940
L12327 8922
L12318 8894
L12318 8875
L12327 8847
L12336 8837
" />
<path d="M12514 8753
L12318 8753
" />
<path d="M12514 8669
L12411 8669
L12393 8678
L12383 8697
L12383 8725
L12393 8744
L12402 8753
" />
<path d="M12514 8490
L12411 8490
L12393 8500
L12383 8519
L12383 8556
L12393 8575
" />
<path d="M12505 8490
L12514 8509
L12514 8556
L12505 8575
L12486 8584
L12468 8584
L12449 8575
L12439 8556
L12439 8509
L12430 8490
" />
<path d="M12383 8397
L12514 8397
" />
<path d="M12402 8397
L12393 8387
L12383 8369
L12383 8340
L12393 8322
L12411 8312
L12514 8312
" />
<path d="M12383 8247
L12383 8172
" />
<path d="M12318 8219
L12486 8219
L12505 8209
L12514 8191
L12514 8172
" />
<path d="M12505 8031
L12514 8050
L12514 8087
L12505 8106
L12486 8116
L12411 8116
L12393 8106
L12383 8087
L12383 8050
L12393 8031
L12411 8022
L12430 8022
L12449 8116
" />
<path d="M12514 7937
L12383 7937
" />
<path d="M12421 7937
L12402 7928
L12393 7919
L12383 7900
L12383 7881
" />
<path d="M12505 7806
L12514 7806
L12533 7816
L12543 7825
" />
<path d="M12411 7506
L12421 7478
L12430 7469
L12449 7459
L12477 7459
L12496 7469
L12505 7478
L12514 7497
L12514 7572
L12318 7572
L12318 7506
L12327 7487
L12336 7478
L12355 7469
L12374 7469
L12393 7478
L12402 7487
L12411 7506
L12411 7572
" />
<path d="M12514 7347
L12505 7366
L12496 7375
L12477 7384
L12421 7384
L12402 7375
L12393 7366
L12383 7347
L12383 7319
L12393 7300
L12402 7291
L12421 7281
L12477 7281
L12496 7291
L12505 7300
L12514 7319
L12514 7347
" />
<path d="M12514 7197
L12318 7197
" />
<path d="M12393 7197
L12383 7178
L12383 7141
L12393 7122
L12402 7113
L12421 7103
L12477 7103
L12496 7113
L12505 7122
L12514 7141
L12514 7178
L12505 7197
" />
<path d="M12514 6869
L12318 6869
L12318 6794
L12327 6775
L12336 6766
L12355 6756
L12383 6756
L12402 6766
L12411 6775
L12421 6794
L12421 6869
" />
<path d="M12514 6644
L12505 6663
L12496 6672
L12477 6681
L12421 6681
L12402 6672
L12393 6663
L12383 6644
L12383 6616
L12393 6597
L12402 6588
L12421 6578
L12477 6578
L12496 6588
L12505 6597
L12514 6616
L12514 6644
" />
<path d="M12383 6513
L12514 6475
L12421 6438
L12514 6400
L12383 6363
" />
<path d="M12505 6213
L12514 6231
L12514 6269
L12505 6288
L12486 6297
L12411 6297
L12393 6288
L12383 6269
L12383 6231
L12393 6213
L12411 6203
L12430 6203
L12449 6297
" />
<path d="M12514 6119
L12383 6119
" />
<path d="M12421 6119
L12402 6110
L12393 6100
L12383 6081
L12383 6063
" />
<path d="M12505 6006
L12514 5988
L12514 5950
L12505 5931
L12486 5922
L12477 5922
L12458 5931
L12449 5950
L12449 5978
L12439 5997
L12421 6006
L12411 6006
L12393 5997
L12383 5978
L12383 5950
L12393 5931
" />
<path d="M12505 5828
L12514 5828
L12533 5838
L12543 5847
" />
<path d="M12773 8936
L12773 8842
" />
<path d="M12829 8954
L12633 8889
L12829 8823
" />
<path d="M12698 8758
L12829 8758
" />
<path d="M12717 8758
L12708 8748
L12698 8730
L12698 8701
L12708 8683
L12726 8673
L12829 8673
" />
<path d="M12829 8495
L12633 8495
" />
<path d="M12820 8495
L12829 8514
L12829 8551
L12820 8570
L12811 8580
L12792 8589
L12736 8589
L12717 8580
L12708 8570
L12698 8551
L12698 8514
L12708 8495
" />
<path d="M12698 8420
L12829 8373
" />
<path d="M12698 8326
L12829 8373
L12876 8392
L12886 8401
L12895 8420
" />
<path d="M12642 7998
L12633 8017
L12633 8045
L12642 8073
L12661 8092
L12679 8101
L12717 8111
L12745 8111
L12783 8101
L12801 8092
L12820 8073
L12829 8045
L12829 8026
L12820 7998
L12811 7989
L12745 7989
L12745 8026
" />
<path d="M12820 7830
L12829 7848
L12829 7886
L12820 7905
L12801 7914
L12726 7914
L12708 7905
L12698 7886
L12698 7848
L12708 7830
L12726 7820
L12745 7820
L12764 7914
" />
<path d="M12829 7708
L12820 7727
L12801 7736
L12633 7736
" />
<path d="M12829 7633
L12698 7633
" />
<path d="M12717 7633
L12708 7623
L12698 7605
L12698 7577
L12708 7558
L12726 7548
L12829 7548
" />
<path d="M12726 7548
L12708 7539
L12698 7520
L12698 7492
L12708 7473
L12726 7464
L12829 7464
" />
<path d="M12820 7295
L12829 7314
L12829 7352
L12820 7370
L12801 7380
L12726 7380
L12708 7370
L12698 7352
L12698 7314
L12708 7295
L12726 7286
L12745 7286
L12764 7380
" />
</g>
<g style="fill:#009F9F; fill-opacity:0.0; 
stroke:#009F9F; stroke-width:118.11; stroke-opacity:1; 
stroke-linecap:round; stroke-linejoin:round;">
<path d="M12710 4380
L12710 3930
" />
<path d="M12597 4042
L12710 3930
L12822 4042
" />
</g>
<g style="fill:#009F9F; fill-opacity:0.0; 
stroke:#009F9F; stroke-width:78.7402; stroke-opacity:1; 
stroke-linecap:round; stroke-linejoin:round;">
<path d="M12600 2791
L12330 2791
" />
<path d="M12130 2991
L12310 2811
" />
<path d="M12130 3491
L12130 2991
" />
<path d="M12790 3491
L12130 3491
" />
<path d="M12790 2981
L12790 3491
" />
<path d="M12600 2791
L12790 2981
" />
</g>
<g style="fill:#009F9F; fill-opacity:0.0; 
stroke:#009F9F; stroke-width:39.3701; stroke-opacity:1; 
stroke-linecap:round; stroke-linejoin:round;">
<path d="M11968 3734
L12080 3734
" />
<path d="M12024 3931
L12024 3734
" />
<path d="M12146 3931
L12146 3734
" />
<path d="M12230 3931
L12230 3827
L12221 3809
L12202 3799
L12174 3799
L12155 3809
L12146 3818
" />
<path d="M12324 3931
L12324 3799
" />
<path d="M12324 3734
L12315 3743
L12324 3752
L12334 3743
L12324 3734
L12324 3752
" />
<path d="M12409 3921
L12427 3931
L12465 3931
L12484 3921
L12493 3902
L12493 3893
L12484 3874
L12465 3865
L12437 3865
L12418 3856
L12409 3837
L12409 3827
L12418 3809
L12437 3799
L12465 3799
L12484 3809
" />
<path d="M11991 4049
L12038 4245
L12076 4105
L12113 4245
L12160 4049
" />
<path d="M12320 4245
L12320 4142
L12310 4124
L12291 4114
L12254 4114
L12235 4124
" />
<path d="M12320 4236
L12301 4245
L12254 4245
L12235 4236
L12226 4217
L12226 4199
L12235 4180
L12254 4170
L12301 4170
L12320 4161
" />
<path d="M12395 4114
L12441 4245
" />
<path d="M12488 4114
L12441 4245
L12423 4292
L12413 4302
L12395 4311
" />
<path d="M12095 4364
L12095 4523
L12104 4542
L12113 4551
L12132 4560
L12170 4560
L12188 4551
L12198 4542
L12207 4523
L12207 4364
" />
<path d="M12301 4429
L12301 4626
" />
<path d="M12301 4439
L12320 4429
L12357 4429
L12376 4439
L12385 4448
L12395 4467
L12395 4523
L12385 4542
L12376 4551
L12357 4560
L12320 4560
L12301 4551
" />
<path d="M1400 5413
L1381 5404
L1353 5404
L1325 5413
L1306 5432
L1297 5451
L1287 5488
L1287 5516
L1297 5554
L1306 5572
L1325 5591
L1353 5601
L1372 5601
L1400 5591
L1409 5582
L1409 5516
L1372 5516
" />
<path d="M1494 5601
L1494 5404
L1606 5601
L1606 5404
" />
<path d="M1700 5601
L1700 5404
L1747 5404
L1775 5413
L1794 5432
L1803 5451
L1812 5488
L1812 5516
L1803 5554
L1794 5572
L1775 5591
L1747 5601
L1700 5601
" />
<path d="M1365 3004
L1487 3004
L1422 3079
L1450 3079
L1469 3088
L1478 3097
L1487 3116
L1487 3163
L1478 3182
L1469 3191
L1450 3201
L1394 3201
L1375 3191
L1365 3182
" />
<path d="M1553 3069
L1600 3201
L1647 3069
" />
<path d="M1703 3004
L1825 3004
L1759 3079
L1787 3079
L1806 3088
L1815 3097
L1825 3116
L1825 3163
L1815 3182
L1806 3191
L1787 3201
L1731 3201
L1712 3191
L1703 3182
" />
<path d="M3465 1104
L3587 1104
L3522 1179
L3550 1179
L3569 1188
L3578 1197
L3587 1216
L3587 1263
L3578 1282
L3569 1291
L3550 1301
L3494 1301
L3475 1291
L3465 1282
" />
<path d="M3653 1169
L3700 1301
L3747 1169
" />
<path d="M3803 1104
L3925 1104
L3859 1179
L3887 1179
L3906 1188
L3915 1197
L3925 1216
L3925 1263
L3915 1282
L3906 1291
L3887 1301
L3831 1301
L3812 1291
L3803 1282
" />
</g>
<g style="fill:#009F9F; fill-opacity:0.0; 
stroke:#009F9F; stroke-width:78.7402; stroke-opacity:1; 
stroke-linecap:round; stroke-linejoin:round;">
<path d="M4100 721
L3150 721
" />
<path d="M3150 1721
L3150 721
" />
<path d="M3100 12671
L3300 12671
" />
<path d="M3100 11721
L3100 12671
" />
<path d="M3300 11721
L3100 11721
" />
<path d="M3300 11721
L4150 11721
" />
<path d="M4100 12671
L3300 12671
" />
</g>
<g style="fill:#009F9F; fill-opacity:0.0; 
stroke:#009F9F; stroke-width:39.3701; stroke-opacity:1; 
stroke-linecap:round; stroke-linejoin:round;">
<path d="M3500 12113
L3481 12104
L3453 12104
L3425 12113
L3406 12132
L3397 12151
L3387 12188
L3387 12216
L3397 12254
L3406 12272
L3425 12291
L3453 12301
L3472 12301
L3500 12291
L3509 12282
L3509 12216
L3472 12216
" />
<path d="M3594 12301
L3594 12104
L3706 12301
L3706 12104
" />
<path d="M3800 12301
L3800 12104
L3847 12104
L3875 12113
L3894 12132
L3903 12151
L3912 12188
L3912 12216
L3903 12254
L3894 12272
L3875 12291
L3847 12301
L3800 12301
" />
</g>
<g style="fill:#009F9F; fill-opacity:0.0; 
stroke:#009F9F; stroke-width:78.7402; stroke-opacity:1; 
stroke-linecap:round; stroke-linejoin:round;">
<path d="M10100 12671
L4100 12671
" />
<path d="M10100 11721
L10100 12671
" />
<path d="M4100 11721
L10150 11721
" />
<path d="M10100 721
L10100 1721
" />
<path d="M4100 721
L10100 721
" />
<path d="M10050 1721
L4100 1721
" />
</g>
<g style="fill:#FFFF00; fill-opacity:0.0; 
stroke:#FFFF00; stroke-width:39.3701; stroke-opacity:1; 
stroke-linecap:round; stroke-linejoin:round;">
<path d="M13009 305
L13009 12746
" />
<path d="M1120 305
L13009 305
" />
<path d="M1120 12746
L1120 305
" />
<path d="M13009 12746
L1120 12746
" />
</g>
<g style="fill:#009F9F; fill-opacity:0.0; 
stroke:#009F9F; stroke-width:60; stroke-opacity:1; 
stroke-linecap:round; stroke-linejoin:round;">
<path d="M3236 10592
L3236 10292
L3350 10292
L3378 10307
L3393 10321
L3407 10349
L3407 10392
L3393 10421
L3378 10435
L3350 10449
L3236 10449
" />
<path d="M3693 10592
L3521 10592
" />
<path d="M3607 10592
L3607 10292
L3578 10335
L3550 10364
L3521 10378
" />
<path d="M3878 10292
L3907 10292
L3936 10307
L3950 10321
L3964 10349
L3978 10407
L3978 10478
L3964 10535
L3950 10564
L3936 10578
L3907 10592
L3878 10592
L3850 10578
L3836 10564
L3821 10535
L3807 10478
L3807 10407
L3821 10349
L3836 10321
L3850 10307
L3878 10292
" />
<path d="M3378 9592
L3378 9292
L3493 9292
L3521 9307
L3536 9321
L3550 9349
L3550 9392
L3536 9421
L3521 9435
L3493 9449
L3378 9449
" />
<path d="M3693 9592
L3750 9592
L3778 9578
L3793 9564
L3821 9521
L3836 9464
L3836 9349
L3821 9321
L3807 9307
L3778 9292
L3721 9292
L3693 9307
L3678 9321
L3664 9349
L3664 9421
L3678 9449
L3693 9464
L3721 9478
L3778 9478
L3807 9464
L3821 9449
L3836 9421
" />
<path d="M3378 8592
L3378 8292
L3493 8292
L3521 8307
L3536 8321
L3550 8349
L3550 8392
L3536 8421
L3521 8435
L3493 8449
L3378 8449
" />
<path d="M3721 8421
L3693 8407
L3678 8392
L3664 8364
L3664 8349
L3678 8321
L3693 8307
L3721 8292
L3778 8292
L3807 8307
L3821 8321
L3836 8349
L3836 8364
L3821 8392
L3807 8407
L3778 8421
L3721 8421
L3693 8435
L3678 8449
L3664 8478
L3664 8535
L3678 8564
L3693 8578
L3721 8592
L3778 8592
L3807 8578
L3821 8564
L3836 8535
L3836 8478
L3821 8449
L3807 8435
L3778 8421
" />
<path d="M3378 7592
L3378 7292
L3493 7292
L3521 7307
L3536 7321
L3550 7349
L3550 7392
L3536 7421
L3521 7435
L3493 7449
L3378 7449
" />
<path d="M3650 7292
L3850 7292
L3721 7592
" />
<path d="M3378 6592
L3378 6292
L3493 6292
L3521 6307
L3536 6321
L3550 6349
L3550 6392
L3536 6421
L3521 6435
L3493 6449
L3378 6449
" />
<path d="M3807 6292
L3750 6292
L3721 6307
L3707 6321
L3678 6364
L3664 6421
L3664 6535
L3678 6564
L3693 6578
L3721 6592
L3778 6592
L3807 6578
L3821 6564
L3836 6535
L3836 6464
L3821 6435
L3807 6421
L3778 6407
L3721 6407
L3693 6421
L3678 6435
L3664 6464
" />
<path d="M3378 5592
L3378 5292
L3493 5292
L3521 5307
L3536 5321
L3550 5349
L3550 5392
L3536 5421
L3521 5435
L3493 5449
L3378 5449
" />
<path d="M3821 5292
L3678 5292
L3664 5435
L3678 5421
L3707 5407
L3778 5407
L3807 5421
L3821 5435
L3836 5464
L3836 5535
L3821 5564
L3807 5578
L3778 5592
L3707 5592
L3678 5578
L3664 5564
" />
<path d="M3378 4592
L3378 4292
L3493 4292
L3521 4307
L3536 4321
L3550 4349
L3550 4392
L3536 4421
L3521 4435
L3493 4449
L3378 4449
" />
<path d="M3807 4392
L3807 4592
" />
<path d="M3736 4278
L3664 4492
L3850 4492
" />
<path d="M3378 3592
L3378 3292
L3493 3292
L3521 3307
L3536 3321
L3550 3349
L3550 3392
L3536 3421
L3521 3435
L3493 3449
L3378 3449
" />
<path d="M3650 3292
L3836 3292
L3736 3407
L3778 3407
L3807 3421
L3821 3435
L3836 3464
L3836 3535
L3821 3564
L3807 3578
L3778 3592
L3693 3592
L3664 3578
L3650 3564
" />
<path d="M3378 2592
L3378 2292
L3493 2292
L3521 2307
L3536 2321
L3550 2349
L3550 2392
L3536 2421
L3521 2435
L3493 2449
L3378 2449
" />
<path d="M3664 2321
L3678 2307
L3707 2292
L3778 2292
L3807 2307
L3821 2321
L3836 2349
L3836 2378
L3821 2421
L3650 2592
L3836 2592
" />
<path d="M3378 1592
L3378 1292
L3493 1292
L3521 1307
L3536 1321
L3550 1349
L3550 1392
L3536 1421
L3521 1435
L3493 1449
L3378 1449
" />
<path d="M3836 1592
L3664 1592
" />
<path d="M3750 1592
L3750 1292
L3721 1335
L3693 1364
L3664 1378
" />
<path d="M10236 10592
L10236 10292
L10350 10292
L10378 10307
L10393 10321
L10407 10349
L10407 10392
L10393 10421
L10378 10435
L10350 10449
L10236 10449
" />
<path d="M10521 10321
L10536 10307
L10564 10292
L10636 10292
L10664 10307
L10678 10321
L10693 10349
L10693 10378
L10678 10421
L10507 10592
L10693 10592
" />
<path d="M10878 10292
L10907 10292
L10936 10307
L10950 10321
L10964 10349
L10978 10407
L10978 10478
L10964 10535
L10950 10564
L10936 10578
L10907 10592
L10878 10592
L10850 10578
L10836 10564
L10821 10535
L10807 10478
L10807 10407
L10821 10349
L10836 10321
L10850 10307
L10878 10292
" />
<path d="M10236 9592
L10236 9292
L10350 9292
L10378 9307
L10393 9321
L10407 9349
L10407 9392
L10393 9421
L10378 9435
L10350 9449
L10236 9449
" />
<path d="M10693 9592
L10521 9592
" />
<path d="M10607 9592
L10607 9292
L10578 9335
L10550 9364
L10521 9378
" />
<path d="M10836 9592
L10893 9592
L10921 9578
L10936 9564
L10964 9521
L10978 9464
L10978 9349
L10964 9321
L10950 9307
L10921 9292
L10864 9292
L10836 9307
L10821 9321
L10807 9349
L10807 9421
L10821 9449
L10836 9464
L10864 9478
L10921 9478
L10950 9464
L10964 9449
L10978 9421
" />
<path d="M10236 8592
L10236 8292
L10350 8292
L10378 8307
L10393 8321
L10407 8349
L10407 8392
L10393 8421
L10378 8435
L10350 8449
L10236 8449
" />
<path d="M10693 8592
L10521 8592
" />
<path d="M10607 8592
L10607 8292
L10578 8335
L10550 8364
L10521 8378
" />
<path d="M10864 8421
L10836 8407
L10821 8392
L10807 8364
L10807 8349
L10821 8321
L10836 8307
L10864 8292
L10921 8292
L10950 8307
L10964 8321
L10978 8349
L10978 8364
L10964 8392
L10950 8407
L10921 8421
L10864 8421
L10836 8435
L10821 8449
L10807 8478
L10807 8535
L10821 8564
L10836 8578
L10864 8592
L10921 8592
L10950 8578
L10964 8564
L10978 8535
L10978 8478
L10964 8449
L10950 8435
L10921 8421
" />
<path d="M10236 7592
L10236 7292
L10350 7292
L10378 7307
L10393 7321
L10407 7349
L10407 7392
L10393 7421
L10378 7435
L10350 7449
L10236 7449
" />
<path d="M10693 7592
L10521 7592
" />
<path d="M10607 7592
L10607 7292
L10578 7335
L10550 7364
L10521 7378
" />
<path d="M10793 7292
L10993 7292
L10864 7592
" />
<path d="M10236 6592
L10236 6292
L10350 6292
L10378 6307
L10393 6321
L10407 6349
L10407 6392
L10393 6421
L10378 6435
L10350 6449
L10236 6449
" />
<path d="M10693 6592
L10521 6592
" />
<path d="M10607 6592
L10607 6292
L10578 6335
L10550 6364
L10521 6378
" />
<path d="M10950 6292
L10893 6292
L10864 6307
L10850 6321
L10821 6364
L10807 6421
L10807 6535
L10821 6564
L10836 6578
L10864 6592
L10921 6592
L10950 6578
L10964 6564
L10978 6535
L10978 6464
L10964 6435
L10950 6421
L10921 6407
L10864 6407
L10836 6421
L10821 6435
L10807 6464
" />
<path d="M10236 5592
L10236 5292
L10350 5292
L10378 5307
L10393 5321
L10407 5349
L10407 5392
L10393 5421
L10378 5435
L10350 5449
L10236 5449
" />
<path d="M10693 5592
L10521 5592
" />
<path d="M10607 5592
L10607 5292
L10578 5335
L10550 5364
L10521 5378
" />
<path d="M10964 5292
L10821 5292
L10807 5435
L10821 5421
L10850 5407
L10921 5407
L10950 5421
L10964 5435
L10978 5464
L10978 5535
L10964 5564
L10950 5578
L10921 5592
L10850 5592
L10821 5578
L10807 5564
" />
<path d="M10236 4592
L10236 4292
L10350 4292
L10378 4307
L10393 4321
L10407 4349
L10407 4392
L10393 4421
L10378 4435
L10350 4449
L10236 4449
" />
<path d="M10693 4592
L10521 4592
" />
<path d="M10607 4592
L10607 4292
L10578 4335
L10550 4364
L10521 4378
" />
<path d="M10950 4392
L10950 4592
" />
<path d="M10878 4278
L10807 4492
L10993 4492
" />
<path d="M10236 3592
L10236 3292
L10350 3292
L10378 3307
L10393 3321
L10407 3349
L10407 3392
L10393 3421
L10378 3435
L10350 3449
L10236 3449
" />
<path d="M10693 3592
L10521 3592
" />
<path d="M10607 3592
L10607 3292
L10578 3335
L10550 3364
L10521 3378
" />
<path d="M10793 3292
L10978 3292
L10878 3407
L10921 3407
L10950 3421
L10964 3435
L10978 3464
L10978 3535
L10964 3564
L10950 3578
L10921 3592
L10836 3592
L10807 3578
L10793 3564
" />
<path d="M10236 2592
L10236 2292
L10350 2292
L10378 2307
L10393 2321
L10407 2349
L10407 2392
L10393 2421
L10378 2435
L10350 2449
L10236 2449
" />
<path d="M10693 2592
L10521 2592
" />
<path d="M10607 2592
L10607 2292
L10578 2335
L10550 2364
L10521 2378
" />
<path d="M10807 2321
L10821 2307
L10850 2292
L10921 2292
L10950 2307
L10964 2321
L10978 2349
L10978 2378
L10964 2421
L10793 2592
L10978 2592
" />
<path d="M10236 1592
L10236 1292
L10350 1292
L10378 1307
L10393 1321
L10407 1349
L10407 1392
L10393 1421
L10378 1435
L10350 1449
L10236 1449
" />
<path d="M10693 1592
L10521 1592
" />
<path d="M10607 1592
L10607 1292
L10578 1335
L10550 1364
L10521 1378
" />
<path d="M10978 1592
L10807 1592
" />
<path d="M10893 1592
L10893 1292
L10864 1335
L10836 1364
L10807 1378
" />
</g>
<g style="fill:#009F9F; fill-opacity:0.0; 
stroke:#009F9F; stroke-width:59.0551; stroke-opacity:1; 
stroke-linecap:round; stroke-linejoin:round;">
<path d="M1242 7115
L1284 7129
L1354 7129
L1382 7115
L1396 7101
L1410 7073
L1410 7045
L1396 7017
L1382 7003
L1354 6989
L1298 6975
L1270 6961
L1256 6947
L1242 6918
L1242 6890
L1256 6862
L1270 6848
L1298 6834
L1368 6834
L1410 6848
" />
<path d="M1509 6834
L1579 7129
L1635 6918
L1692 7129
L1762 6834
" />
<path d="M2029 7129
L1860 7129
" />
<path d="M1945 7129
L1945 6834
L1916 6876
L1888 6904
L1860 6918
" />
</g>
<g style="fill:#009F9F; fill-opacity:0.0; 
stroke:#009F9F; stroke-width:150; stroke-opacity:1; 
stroke-linecap:round; stroke-linejoin:round;">
<path d="M2164 3161
L2164 3061
" />
<path d="M11964 3161
L11964 3061
" />
</g>
<g style="fill:#009F9F; fill-opacity:0.0; 
stroke:#009F9F; stroke-width:60; stroke-opacity:1; 
stroke-linecap:round; stroke-linejoin:round;">
<path d="M4100 11721
L3100 11721
" />
<path d="M3100 10721
L4100 10721
" />
<path d="M3100 11721
L3100 10721
" />
<path d="M4100 10721
L4100 11721
" />
<path d="M4100 10721
L3100 10721
" />
<path d="M3100 9721
L4100 9721
" />
<path d="M3100 10721
L3100 9721
" />
<path d="M4100 9721
L4100 10721
" />
<path d="M4100 9721
L3100 9721
" />
<path d="M3100 8721
L4100 8721
" />
<path d="M3100 9721
L3100 8721
" />
<path d="M4100 8721
L4100 9721
" />
<path d="M4100 8721
L3100 8721
" />
<path d="M3100 7721
L4100 7721
" />
<path d="M3100 8721
L3100 7721
" />
<path d="M4100 7721
L4100 8721
" />
<path d="M4100 7721
L3100 7721
" />
<path d="M3100 6721
L4100 6721
" />
<path d="M3100 7721
L3100 6721
" />
<path d="M4100 6721
L4100 7721
" />
<path d="M4100 6721
L3100 6721
" />
<path d="M3100 5721
L4100 5721
" />
<path d="M3100 6721
L3100 5721
" />
<path d="M4100 5721
L4100 6721
" />
<path d="M4100 5721
L3100 5721
" />
<path d="M3100 4721
L4100 4721
" />
<path d="M3100 5721
L3100 4721
" />
<path d="M4100 4721
L4100 5721
" />
<path d="M4100 4721
L3100 4721
" />
<path d="M3100 3721
L4100 3721
" />
<path d="M3100 4721
L3100 3721
" />
<path d="M4100 3721
L4100 4721
" />
<path d="M4100 3721
L3100 3721
" />
<path d="M3100 2721
L4100 2721
" />
<path d="M3100 3721
L3100 2721
" />
<path d="M4100 2721
L4100 3721
" />
<path d="M4100 2721
L3100 2721
" />
<path d="M3100 1721
L4100 1721
" />
<path d="M3100 2721
L3100 1721
" />
<path d="M4100 1721
L4100 2721
" />
<path d="M11100 11721
L10100 11721
" />
<path d="M10100 10721
L11100 10721
" />
<path d="M10100 11721
L10100 10721
" />
<path d="M11100 10721
L11100 11721
" />
<path d="M11100 10721
L10100 10721
" />
<path d="M10100 9721
L11100 9721
" />
<path d="M10100 10721
L10100 9721
" />
<path d="M11100 9721
L11100 10721
" />
<path d="M11100 9721
L10100 9721
" />
<path d="M10100 8721
L11100 8721
" />
<path d="M10100 9721
L10100 8721
" />
<path d="M11100 8721
L11100 9721
" />
<path d="M11100 8721
L10100 8721
" />
<path d="M10100 7721
L11100 7721
" />
<path d="M10100 8721
L10100 7721
" />
<path d="M11100 7721
L11100 8721
" />
<path d="M11100 7721
L10100 7721
" />
<path d="M10100 6721
L11100 6721
" />
<path d="M10100 7721
L10100 6721
" />
<path d="M11100 6721
L11100 7721
" />
<path d="M11100 6721
L10100 6721
" />
<path d="M10100 5721
L11100 5721
" />
<path d="M10100 6721
L10100 5721
" />
<path d="M11100 5721
L11100 6721
" />
<path d="M11100 5721
L10100 5721
" />
<path d="M10100 4721
L11100 4721
" />
<path d="M10100 5721
L10100 4721
" />
<path d="M11100 4721
L11100 5721
" />
<path d="M11100 4721
L10100 4721
" />
<path d="M10100 3721
L11100 3721
" />
<path d="M10100 4721
L10100 3721
" />
<path d="M11100 3721
L11100 4721
" />
<path d="M11100 3721
L10100 3721
" />
<path d="M10100 2721
L11100 2721
" />
<path d="M10100 3721
L10100 2721
" />
<path d="M11100 2721
L11100 3721
" />
<path d="M11100 2721
L10100 2721
" />
<path d="M10100 1721
L11100 1721
" />
<path d="M10100 2721
L10100 1721
" />
<path d="M11100 1721
L11100 2721
" />
</g>
<g style="fill:#009F9F; fill-opacity:0.0; 
stroke:#009F9F; stroke-width:150; stroke-opacity:1; 
stroke-linecap:round; stroke-linejoin:round;">
<circle cx="2143.65" cy="1530" r="900" /> 
<circle cx="11986.2" cy="1530" r="900" /> 
<circle cx="2143.65" cy="11766.2" r="900" /> 
<circle cx="11986.2" cy="11766.2" r="900" /> 
</g>
<g style="fill:#009F9F; fill-opacity:0.0; 
stroke:#009F9F; stroke-width:59.0551; stroke-opacity:1; 
stroke-linecap:round; stroke-linejoin:round;">
<path d="M2261 3555
L3206 3555
" />
<path d="M3206 2669
L3206 10740
" />
<path d="M3206 10740
L2261 10740
" />
<path d="M2261 10740
L2261 2669
" />
<path d="M2261 2669
L3206 2669
" />
<path d="M11868 9854
L10923 9854
" />
<path d="M10923 10740
L10923 2669
" />
<path d="M10923 2669
L11868 2669
" />
<path d="M11868 2669
L11868 10740
" />
<path d="M11868 10740
L10923 10740
" />
<path d="M1064 7045
L1348 7045
" />
<path d="M1064 8581
L1348 8581
" />
<path d="M1064 7045
L1064 8581
" />
<path d="M2202 7045
L1923 7045
" />
<path d="M2206 7045
L2206 8581
" />
<path d="M2206 8581
L1923 8581
" />
</g>
<g style="fill:#7F7F00; fill-opacity:0.0; 
stroke:#7F7F00; stroke-width:39.3701; stroke-opacity:1; 
stroke-linecap:round; stroke-linejoin:round;">
</g>
<g style="fill:#7F7F00; fill-opacity:1.0; 
stroke:#7F7F00; stroke-width:39.3701; stroke-opacity:1; 
stroke-linecap:round; stroke-linejoin:round;">
<polyline style="fill-rule:evenodd;"
points="3320,11501
3320,10941
3880,10941
3880,11501
3320,11501
" /> 
<polyline style="fill-rule:evenodd;"
points="3320,10501
3320,9941
3880,9941
3880,10501
3320,10501
" /> 
<polyline style="fill-rule:evenodd;"
points="3320,9501
3320,8941
3880,8941
3880,9501
3320,9501
" /> 
<polyline style="fill-rule:evenodd;"
points="3320,8501
3320,7941
3880,7941
3880,8501
3320,8501
" /> 
<polyline style="fill-rule:evenodd;"
points="3320,7501
3320,6941
3880,6941
3880,7501
3320,7501
" /> 
<polyline style="fill-rule:evenodd;"
points="3320,6501
3320,5941
3880,5941
3880,6501
3320,6501
" /> 
<polyline style="fill-rule:evenodd;"
points="3320,5501
3320,4941
3880,4941
3880,5501
3320,5501
" /> 
<polyline style="fill-rule:evenodd;"
points="3320,4501
3320,3941
3880,3941
3880,4501
3320,4501
" /> 
<polyline style="fill-rule:evenodd;"
points="3320,3501
3320,2941
3880,2941
3880,3501
3320,3501
" /> 
<polyline style="fill-rule:evenodd;"
points="3320,2501
3320,1941
3880,1941
3880,2501
3320,2501
" /> 
<polyline style="fill-rule:evenodd;"
points="10320,11501
10320,10941
10880,10941
10880,11501
10320,11501
" /> 
<polyline style="fill-rule:evenodd;"
points="10320,10501
10320,9941
10880,9941
10880,10501
10320,10501
" /> 
<polyline style="fill-rule:evenodd;"
points="10320,9501
10320,8941
10880,8941
10880,9501
10320,9501
" /> 
<polyline style="fill-rule:evenodd;"
points="10320,8501
10320,7941
10880,7941
10880,8501
10320,8501
" /> 
<polyline style="fill-rule:evenodd;"
points="10320,7501
10320,6941
10880,6941
10880,7501
10320,7501
" /> 
<polyline style="fill-rule:evenodd;"
points="10320,6501
10320,5941
10880,5941
10880,6501
10320,6501
" /> 
<polyline style="fill-rule:evenodd;"
points="10320,5501
10320,4941
10880,4941
10880,5501
10320,5501
" /> 
<polyline style="fill-rule:evenodd;"
points="10320,4501
10320,3941
10880,3941
10880,4501
10320,4501
" /> 
<polyline style="fill-rule:evenodd;"
points="10320,3501
10320,2941
10880,2941
10880,3501
10320,3501
" /> 
<polyline style="fill-rule:evenodd;"
points="10320,2501
10320,1941
10880,1941
10880,2501
10320,2501
" /> 
<circle cx="2143.65" cy="1530" r="570.866" /> 
<circle cx="11986.2" cy="1530" r="570.866" /> 
<circle cx="2143.65" cy="11766.2" r="570.866" /> 
<circle cx="11986.2" cy="11766.2" r="570.866" /> 
<circle cx="2734.2" cy="3161.5" r="346.315" /> 
<circle cx="2734.2" cy="3948.9" r="346.315" /> 
<circle cx="2734.2" cy="4736.3" r="346.315" /> 
<circle cx="2734.2" cy="5523.7" r="346.315" /> 
<circle cx="2734.2" cy="6311.1" r="346.315" /> 
<circle cx="2734.2" cy="7098.5" r="346.315" /> 
<circle cx="2734.2" cy="7885.91" r="346.315" /> 
<circle cx="2734.2" cy="8673.31" r="346.315" /> 
<circle cx="2734.2" cy="9460.71" r="346.315" /> 
<circle cx="2734.2" cy="10248.1" r="346.315" /> 
<circle cx="11395.6" cy="10248.1" r="346.315" /> 
<circle cx="11395.6" cy="9460.71" r="346.315" /> 
<circle cx="11395.6" cy="8673.31" r="346.315" /> 
<circle cx="11395.6" cy="7885.91" r="346.315" /> 
<circle cx="11395.6" cy="7098.5" r="346.315" /> 
<circle cx="11395.6" cy="6311.1" r="346.315" /> 
<circle cx="11395.6" cy="5523.7" r="346.315" /> 
<circle cx="11395.6" cy="4736.3" r="346.315" /> 
<circle cx="11395.6" cy="3948.9" r="346.315" /> 
<circle cx="11395.6" cy="3161.5" r="346.315" /> 
<circle cx="9600.34" cy="11221.3" r="346.315" /> 
<circle cx="8600.34" cy="11221.3" r="346.315" /> 
<circle cx="7600.34" cy="11221.3" r="346.315" /> 
<circle cx="7600.34" cy="10221.3" r="346.315" /> 
<circle cx="6600.34" cy="10221.3" r="346.315" /> 
<circle cx="6600.34" cy="11221.3" r="346.315" /> 
<circle cx="5600.34" cy="10221.3" r="346.315" /> 
<circle cx="4600.34" cy="10221.3" r="346.315" /> 
<circle cx="4600.34" cy="11221.3" r="346.315" /> 
<circle cx="5600.34" cy="11221.3" r="346.315" /> 
<circle cx="9600.34" cy="9221.34" r="346.315" /> 
<circle cx="8600.34" cy="9221.34" r="346.315" /> 
<circle cx="7600.34" cy="9221.34" r="346.315" /> 
<circle cx="6600.34" cy="9221.34" r="346.315" /> 
<circle cx="5600.34" cy="9221.34" r="346.315" /> 
<circle cx="4600.34" cy="9221.34" r="346.315" /> 
<circle cx="9600.34" cy="8221.34" r="346.315" /> 
<circle cx="6600.34" cy="8221.34" r="346.315" /> 
<circle cx="9600.34" cy="6221.34" r="346.315" /> 
<circle cx="4600.34" cy="5221.34" r="346.315" /> 
<circle cx="6600.34" cy="6221.34" r="346.315" /> 
<circle cx="5600.34" cy="6221.34" r="346.315" /> 
<circle cx="6600.34" cy="5221.34" r="346.315" /> 
<circle cx="5600.34" cy="5221.34" r="346.315" /> 
<circle cx="5600.34" cy="8221.34" r="346.315" /> 
<circle cx="8600.34" cy="6221.34" r="346.315" /> 
<circle cx="7600.34" cy="6221.34" r="346.315" /> 
<circle cx="8600.34" cy="8221.34" r="346.315" /> 
<circle cx="4600.34" cy="6221.34" r="346.315" /> 
<circle cx="7600.34" cy="8221.34" r="346.315" /> 
<circle cx="4600.34" cy="8221.34" r="346.315" /> 
<circle cx="9600.34" cy="7221.34" r="346.315" /> 
<circle cx="7600.34" cy="5221.34" r="346.315" /> 
<circle cx="7600.34" cy="7221.34" r="346.315" /> 
<circle cx="4600.34" cy="7221.34" r="346.315" /> 
<circle cx="8600.34" cy="7221.34" r="346.315" /> 
<circle cx="5600.34" cy="7221.34" r="346.315" /> 
<circle cx="9600.34" cy="10221.3" r="346.315" /> 
<circle cx="8600.34" cy="10221.3" r="346.315" /> 
<circle cx="6600.34" cy="7221.34" r="346.315" /> 
<circle cx="8600.34" cy="5221.34" r="346.315" /> 
<circle cx="5600.34" cy="3221.34" r="346.315" /> 
<circle cx="8600.34" cy="2221.34" r="346.315" /> 
<circle cx="6600.34" cy="2221.34" r="346.315" /> 
<circle cx="4600.34" cy="2221.34" r="346.315" /> 
<circle cx="4600.34" cy="3221.34" r="346.315" /> 
<circle cx="4600.34" cy="4221.34" r="346.315" /> 
<circle cx="9600.34" cy="5221.34" r="346.315" /> 
<circle cx="6600.34" cy="3221.34" r="346.315" /> 
<circle cx="9600.34" cy="2221.34" r="346.315" /> 
<circle cx="5600.34" cy="2221.34" r="346.315" /> 
<circle cx="7600.34" cy="3221.34" r="346.315" /> 
<circle cx="8600.34" cy="3221.34" r="346.315" /> 
<circle cx="5600.34" cy="4221.34" r="346.315" /> 
<circle cx="9600.34" cy="3221.34" r="346.315" /> 
<circle cx="9600.34" cy="4221.34" r="346.315" /> 
<circle cx="7600.34" cy="2221.34" r="346.315" /> 
<circle cx="7600.34" cy="4221.34" r="346.315" /> 
<circle cx="6600.34" cy="4221.34" r="346.315" /> 
<circle cx="8600.34" cy="4221.34" r="346.315" /> 
</g>
<g style="fill:#9F0000; fill-opacity:1.0; 
stroke:#9F0000; stroke-width:39.3701; stroke-opacity:1; 
stroke-linecap:round; stroke-linejoin:round;">
<polyline style="fill-rule:evenodd;"
points="1399,6848
1871,6848
1871,7163
1399,7163
1399,6848
" /> 
<polyline style="fill-rule:evenodd;"
points="1399,8463
1871,8463
1871,8778
1399,8778
1399,8463
" /> 
</g>
<g style="fill:#7F7F00; fill-opacity:1.0; 
stroke:#7F7F00; stroke-width:39.3701; stroke-opacity:1; 
stroke-linecap:round; stroke-linejoin:round;">
<polyline style="fill-rule:evenodd;"
points="1163,7695
1399,7695
1399,7931
1163,7931
1163,7695
" /> 
<polyline style="fill-rule:evenodd;"
points="1871,7691
2108,7691
2108,7927
1871,7927
1871,7691
" /> 
<circle cx="1600.34" cy="3821.34" r="346.315" /> 
<circle cx="1600.34" cy="4821.34" r="346.315" /> 
<circle cx="9600.34" cy="12221.3" r="346.315" /> 
<circle cx="5600.34" cy="12221.3" r="346.315" /> 
<circle cx="4600.34" cy="12221.3" r="346.315" /> 
<circle cx="8600.34" cy="12221.3" r="346.315" /> 
<circle cx="7600.34" cy="12221.3" r="346.315" /> 
<circle cx="6600.34" cy="12221.3" r="346.315" /> 
<circle cx="6600.34" cy="1221.34" r="346.315" /> 
<circle cx="5600.34" cy="1221.34" r="346.315" /> 
<circle cx="9600.34" cy="1221.34" r="346.315" /> 
<circle cx="8600.34" cy="1221.34" r="346.315" /> 
<circle cx="7600.34" cy="1221.34" r="346.315" /> 
<circle cx="4600.34" cy="1221.34" r="346.315" /> 
</g>
<g style="fill:#9F0000; fill-opacity:1.0; 
stroke:#9F0000; stroke-width:80; stroke-opacity:1; 
stroke-linecap:round; stroke-linejoin:round;">
<path d="M2734 3161
L2260 3161
" />
<path d="M2260 3161
L1600 3821
" />
<path d="M2734 3161
L2734 3087
" />
<path d="M2734 3087
L4600 1221
" />
<path d="M4600 1221
L5600 1221
" />
<path d="M5600 1221
L6600 1221
" />
<path d="M6600 1221
L7600 1221
" />
<path d="M7600 1221
L8600 1221
" />
<path d="M8600 1221
L9600 1221
" />
<path d="M1635 8620
L1635 7556
" />
<path d="M1600 5321
L1600 4821
" />
<path d="M1200 5721
L1600 5321
" />
<path d="M1200 7421
L1200 5721
" />
<path d="M1500 7421
L1200 7421
" />
<path d="M1635 7556
L1500 7421
" />
<path d="M1635 8620
L1635 9149
" />
<path d="M3600 11114
L3600 11221
" />
<path d="M1635 9149
L3600 11114
" />
<path d="M3600 11221
L4600 12221
" />
<path d="M4600 12221
L6600 12221
" />
<path d="M6600 12221
L7600 12221
" />
<path d="M7600 12221
L8600 12221
" />
<path d="M8600 12221
L9600 12221
" />
<path d="M2734 6311
L3510 6311
" />
<path d="M3510 6311
L3600 6221
" />
<path d="M2734 6311
L2331 6311
" />
<path d="M2331 6311
L1635 7006
" />
<path d="M2734 7885
L3264 7885
" />
<path d="M3264 7885
L3600 8221
" />
<path d="M2734 7098
L3477 7098
" />
<path d="M3477 7098
L3600 7221
" />
<path d="M2734 5523
L3297 5523
" />
<path d="M3297 5523
L3600 5221
" />
<path d="M2734 4736
L3085 4736
" />
<path d="M3085 4736
L3600 4221
" />
<path d="M2734 3948
L2872 3948
" />
<path d="M2872 3948
L3600 3221
" />
<path d="M2734 8673
L3052 8673
" />
<path d="M3052 8673
L3600 9221
" />
<path d="M2734 9460
L2839 9460
" />
<path d="M2839 9460
L3600 10221
" />
<path d="M11395 3161
L11395 3016
" />
<path d="M11395 3016
L10600 2221
" />
<path d="M11395 3948
L11327 3948
" />
<path d="M11327 3948
L10600 3221
" />
<path d="M11395 4736
L11115 4736
" />
<path d="M11115 4736
L10600 4221
" />
<path d="M11395 5523
L10902 5523
" />
<path d="M10902 5523
L10600 5221
" />
<path d="M11395 6311
L10690 6311
" />
<path d="M10690 6311
L10600 6221
" />
<path d="M11395 7098
L10723 7098
" />
<path d="M10723 7098
L10600 7221
" />
<path d="M11395 7885
L10935 7885
" />
<path d="M10935 7885
L10600 8221
" />
<path d="M11395 8673
L11148 8673
" />
<path d="M11148 8673
L10600 9221
" />
<path d="M11395 9460
L11360 9460
" />
<path d="M11360 9460
L10600 10221
" />
<path d="M11395 10248
L11395 10426
" />
<path d="M11395 10426
L10600 11221
" />
</g>
<g style="fill:#FFFFFF; fill-opacity:1.0; 
stroke:#FFFFFF; stroke-width:39.3701; stroke-opacity:1; 
stroke-linecap:round; stroke-linejoin:round;">
<circle cx="3600.34" cy="11221.3" r="180.315" /> 
<circle cx="3600.34" cy="10221.3" r="180.315" /> 
<circle cx="3600.34" cy="9221.34" r="180.315" /> 
<circle cx="3600.34" cy="8221.34" r="180.315" /> 
<circle cx="3600.34" cy="7221.34" r="180.315" /> 
<circle cx="3600.34" cy="6221.34" r="180.315" /> 
<circle cx="3600.34" cy="5221.34" r="180.315" /> 
<circle cx="3600.34" cy="4221.34" r="180.315" /> 
<circle cx="3600.34" cy="3221.34" r="180.315" /> 
<circle cx="3600.34" cy="2221.34" r="180.315" /> 
<circle cx="10600.3" cy="11221.3" r="180.315" /> 
<circle cx="10600.3" cy="10221.3" r="180.315" /> 
<circle cx="10600.3" cy="9221.34" r="180.315" /> 
<circle cx="10600.3" cy="8221.34" r="180.315" /> 
<circle cx="10600.3" cy="7221.34" r="180.315" /> 
<circle cx="10600.3" cy="6221.34" r="180.315" /> 
<circle cx="10600.3" cy="5221.34" r="180.315" /> 
<circle cx="10600.3" cy="4221.34" r="180.315" /> 
<circle cx="10600.3" cy="3221.34" r="180.315" /> 
<circle cx="10600.3" cy="2221.34" r="180.315" /> 
<circle cx="2143.65" cy="1530" r="570.866" /> 
<circle cx="11986.2" cy="1530" r="570.866" /> 
<circle cx="2143.65" cy="11766.2" r="570.866" /> 
<circle cx="11986.2" cy="11766.2" r="570.866" /> 
<circle cx="2734.2" cy="3161.5" r="140.315" /> 
<circle cx="2734.2" cy="3948.9" r="140.315" /> 
<circle cx="2734.2" cy="4736.3" r="140.315" /> 
<circle cx="2734.2" cy="5523.7" r="140.315" /> 
<circle cx="2734.2" cy="6311.1" r="140.315" /> 
<circle cx="2734.2" cy="7098.5" r="140.315" /> 
<circle cx="2734.2" cy="7885.91" r="140.315" /> 
<circle cx="2734.2" cy="8673.31" r="140.315" /> 
<circle cx="2734.2" cy="9460.71" r="140.315" /> 
<circle cx="2734.2" cy="10248.1" r="140.315" /> 
<circle cx="11395.6" cy="10248.1" r="140.315" /> 
<circle cx="11395.6" cy="9460.71" r="140.315" /> 
<circle cx="11395.6" cy="8673.31" r="140.315" /> 
<circle cx="11395.6" cy="7885.91" r="140.315" /> 
<circle cx="11395.6" cy="7098.5" r="140.315" /> 
<circle cx="11395.6" cy="6311.1" r="140.315" /> 
<circle cx="11395.6" cy="5523.7" r="140.315" /> 
<circle cx="11395.6" cy="4736.3" r="140.315" /> 
<circle cx="11395.6" cy="3948.9" r="140.315" /> 
<circle cx="11395.6" cy="3161.5" r="140.315" /> 
<circle cx="9600.34" cy="11221.3" r="140.315" /> 
<circle cx="8600.34" cy="11221.3" r="140.315" /> 
<circle cx="7600.34" cy="11221.3" r="140.315" /> 
<circle cx="7600.34" cy="10221.3" r="140.315" /> 
<circle cx="6600.34" cy="10221.3" r="140.315" /> 
<circle cx="6600.34" cy="11221.3" r="140.315" /> 
<circle cx="5600.34" cy="10221.3" r="140.315" /> 
<circle cx="4600.34" cy="10221.3" r="140.315" /> 
<circle cx="4600.34" cy="11221.3" r="140.315" /> 
<circle cx="5600.34" cy="11221.3" r="140.315" /> 
<circle cx="9600.34" cy="9221.34" r="140.315" /> 
<circle cx="8600.34" cy="9221.34" r="140.315" /> 
<circle cx="7600.34" cy="9221.34" r="140.315" /> 
<circle cx="6600.34" cy="9221.34" r="140.315" /> 
<circle cx="5600.34" cy="9221.34" r="140.315" /> 
<circle cx="4600.34" cy="9221.34" r="140.315" /> 
<circle cx="9600.34" cy="8221.34" r="140.315" /> 
<circle cx="6600.34" cy="8221.34" r="140.315" /> 
<circle cx="9600.34" cy="6221.34" r="140.315" /> 
<circle cx="4600.34" cy="5221.34" r="140.315" /> 
<circle cx="6600.34" cy="6221.34" r="140.315" /> 
<circle cx="5600.34" cy="6221.34" r="140.315" /> 
<circle cx="6600.34" cy="5221.34" r="140.315" /> 
<circle cx="5600.34" cy="5221.34" r="140.315" /> 
<circle cx="5600.34" cy="8221.34" r="140.315" /> 
<circle cx="8600.34" cy="6221.34" r="140.315" /> 
<circle cx="7600.34" cy="6221.34" r="140.315" /> 
<circle cx="8600.34" cy="8221.34" r="140.315" /> 
<circle cx="4600.34" cy="6221.34" r="140.315" /> 
<circle cx="7600.34" cy="8221.34" r="140.315" /> 
<circle cx="4600.34" cy="8221.34" r="140.315" /> 
<circle cx="9600.34" cy="7221.34" r="140.315" /> 
<circle cx="7600.34" cy="5221.34" r="140.315" /> 
<circle cx="7600.34" cy="7221.34" r="140.315" /> 
<circle cx="4600.34" cy="7221.34" r="140.315" /> 
<circle cx="8600.34" cy="7221.34" r="140.315" /> 
<circle cx="5600.34" cy="7221.34" r="140.315" /> 
<circle cx="9600.34" cy="10221.3" r="140.315" /> 
<circle cx="8600.34" cy="10221.3" r="140.315" /> 
<circle cx="6600.34" cy="7221.34" r="140.315" /> 
<circle cx="8600.34" cy="5221.34" r="140.315" /> 
<circle cx="5600.34" cy="3221.34" r="140.315" /> 
<circle cx="8600.34" cy="2221.34" r="140.315" /> 
<circle cx="6600.34" cy="2221.34" r="140.315" /> 
<circle cx="4600.34" cy="2221.34" r="140.315" /> 
<circle cx="4600.34" cy="3221.34" r="140.315" /> 
<circle cx="4600.34" cy="4221.34" r="140.315" /> 
<circle cx="9600.34" cy="5221.34" r="140.315" /> 
<circle cx="6600.34" cy="3221.34" r="140.315" /> 
<circle cx="9600.34" cy="2221.34" r="140.315" /> 
<circle cx="5600.34" cy="2221.34" r="140.315" /> 
<circle cx="7600.34" cy="3221.34" r="140.315" /> 
<circle cx="8600.34" cy="3221.34" r="140.315" /> 
<circle cx="5600.34" cy="4221.34" r="140.315" /> 
<circle cx="9600.34" cy="3221.34" r="140.315" /> 
<circle cx="9600.34" cy="4221.34" r="140.315" /> 
<circle cx="7600.34" cy="2221.34" r="140.315" /> 
<circle cx="7600.34" cy="4221.34" r="140.315" /> 
<circle cx="6600.34" cy="4221.34" r="140.315" /> 
<circle cx="8600.34" cy="4221.34" r="140.315" /> 
<circle cx="1281.44" cy="7813.46" r="118.11" /> 
<circle cx="1990.1" cy="7809.53" r="118.11" /> 
<circle cx="1600.34" cy="3821.34" r="140.315" /> 
<circle cx="1600.34" cy="4821.34" r="140.315" /> 
<circle cx="9600.34" cy="12221.3" r="140.315" /> 
<circle cx="5600.34" cy="12221.3" r="140.315" /> 
<circle cx="4600.34" cy="12221.3" r="140.315" /> 
<circle cx="8600.34" cy="12221.3" r="140.315" /> 
<circle cx="7600.34" cy="12221.3" r="140.315" /> 
<circle cx="6600.34" cy="12221.3" r="140.315" /> 
<circle cx="6600.34" cy="1221.34" r="140.315" /> 
<circle cx="5600.34" cy="1221.34" r="140.315" /> 
<circle cx="9600.34" cy="1221.34" r="140.315" /> 
<circle cx="8600.34" cy="1221.34" r="140.315" /> 
<circle cx="7600.34" cy="1221.34" r="140.315" /> 
<circle cx="4600.34" cy="1221.34" r="140.315" /> 
</g> 
</svg>
