%FSLAX34Y34*%
G04 Gerber Fmt 3.4, Leading zero omitted, Abs format*
G04 (created by PCBNEW (2013-12-14 BZR 4555)-product) date Fri 03 Jan 2014 15:06:53 EST*
%MOIN*%
G01*
G70*
G90*
G04 APERTURE LIST*
%ADD10C,0.005906*%
%ADD11R,0.051181X0.035433*%
%ADD12R,0.027559X0.027559*%
%ADD13C,0.073200*%
%ADD14C,0.118110*%
%ADD15R,0.060000X0.060000*%
%ADD16C,0.012000*%
%ADD17C,0.008000*%
G04 APERTURE END LIST*
G54D10*
G54D11*
X645Y5651D03*
X645Y7266D03*
G54D12*
X1000Y6459D03*
X291Y6455D03*
G54D13*
X10405Y2522D03*
X10405Y3309D03*
X10405Y4096D03*
X10405Y4884D03*
X10405Y5671D03*
X10405Y6459D03*
X10405Y7246D03*
X10405Y8033D03*
X10405Y8821D03*
X10405Y9608D03*
G54D14*
X1153Y11240D03*
X10996Y11240D03*
X1153Y1003D03*
X10996Y1003D03*
G54D13*
X1744Y9608D03*
X1744Y8821D03*
X1744Y8033D03*
X1744Y7246D03*
X1744Y6459D03*
X1744Y5671D03*
X1744Y4884D03*
X1744Y4096D03*
X1744Y3309D03*
X1744Y2522D03*
G54D15*
X2610Y1548D03*
X2610Y2548D03*
X2610Y3548D03*
X2610Y4548D03*
X2610Y5548D03*
X2610Y6548D03*
X2610Y7548D03*
X2610Y8548D03*
X2610Y9548D03*
X2610Y10548D03*
X9610Y1548D03*
X9610Y2548D03*
X9610Y3548D03*
X9610Y4548D03*
X9610Y5548D03*
X9610Y6548D03*
X9610Y7548D03*
X9610Y10548D03*
X9610Y8548D03*
X9610Y9548D03*
G54D13*
X645Y9321D03*
X645Y8321D03*
X8610Y1548D03*
X7610Y1548D03*
X6610Y1548D03*
X6610Y2548D03*
X5610Y2548D03*
X5610Y1548D03*
X4610Y2548D03*
X3610Y2548D03*
X3610Y1548D03*
X4610Y1548D03*
X8610Y3548D03*
X7610Y3548D03*
X6610Y3548D03*
X5610Y3548D03*
X4610Y3548D03*
X3610Y3548D03*
X8610Y4548D03*
X5610Y4548D03*
X8610Y6548D03*
X3610Y7548D03*
X5610Y6548D03*
X4610Y6548D03*
X5610Y7548D03*
X4610Y7548D03*
X4610Y4548D03*
X7610Y6548D03*
X6610Y6548D03*
X7610Y4548D03*
X3610Y6548D03*
X6610Y4548D03*
X3610Y4548D03*
X8610Y5548D03*
X6610Y7548D03*
X6610Y5548D03*
X3610Y5548D03*
X7610Y5548D03*
X4610Y5548D03*
X8610Y2548D03*
X7610Y2548D03*
X5610Y5548D03*
X7610Y7548D03*
X4610Y9548D03*
X7610Y10548D03*
X5610Y10548D03*
X3610Y10548D03*
X3610Y9548D03*
X3610Y8548D03*
X8610Y7548D03*
X5610Y9548D03*
X8610Y10548D03*
X4610Y10548D03*
X6610Y9548D03*
X7610Y9548D03*
X4610Y8548D03*
X8610Y9548D03*
X8610Y8548D03*
X6610Y10548D03*
X6610Y8548D03*
X5610Y8548D03*
X7610Y8548D03*
X8610Y548D03*
X4610Y548D03*
X3610Y548D03*
X7610Y548D03*
X6610Y548D03*
X5610Y548D03*
X5610Y11548D03*
X4610Y11548D03*
X8610Y11548D03*
X7610Y11548D03*
X6610Y11548D03*
X3610Y11548D03*
G54D16*
X1744Y9608D02*
X933Y9608D01*
X933Y9608D02*
X645Y9321D01*
X1744Y9608D02*
X1744Y9682D01*
X1744Y9682D02*
X2610Y10548D01*
X3610Y11548D02*
X2610Y10548D01*
X8610Y11548D02*
X3610Y11548D01*
G54D17*
X1744Y9682D02*
X3610Y11548D01*
X3610Y11548D02*
X4610Y11548D01*
X4610Y11548D02*
X5610Y11548D01*
X5610Y11548D02*
X6610Y11548D01*
X6610Y11548D02*
X7610Y11548D01*
X7610Y11548D02*
X8610Y11548D01*
G54D16*
X248Y5307D02*
X248Y5074D01*
X248Y5074D02*
X677Y4645D01*
X645Y7266D02*
X645Y6291D01*
X248Y5893D02*
X248Y5307D01*
X645Y6291D02*
X248Y5893D01*
X1744Y2522D02*
X677Y3588D01*
X677Y3588D02*
X677Y4645D01*
X645Y8321D02*
X645Y7266D01*
X3610Y548D02*
X4610Y548D01*
X2610Y1548D02*
X3610Y548D01*
X3610Y548D02*
X8610Y548D01*
X1744Y2522D02*
X1744Y2414D01*
X1744Y2414D02*
X2610Y1548D01*
G54D17*
X3610Y548D02*
X5610Y548D01*
X5610Y548D02*
X6610Y548D01*
X6610Y548D02*
X7610Y548D01*
X7610Y548D02*
X8610Y548D01*
G54D16*
X1744Y6459D02*
X937Y5651D01*
X937Y5651D02*
X645Y5651D01*
X2610Y6548D02*
X2520Y6459D01*
X2520Y6459D02*
X1744Y6459D01*
G54D17*
X1744Y6459D02*
X2520Y6459D01*
G54D16*
X2610Y4548D02*
X2274Y4884D01*
X2274Y4884D02*
X1744Y4884D01*
G54D17*
X1744Y4884D02*
X2274Y4884D01*
G54D16*
X1744Y5671D02*
X2487Y5671D01*
X2487Y5671D02*
X2610Y5548D01*
G54D17*
X2487Y5671D02*
X2610Y5548D01*
G54D16*
X2610Y7548D02*
X2307Y7246D01*
X2307Y7246D02*
X1744Y7246D01*
G54D17*
X1744Y7246D02*
X2307Y7246D01*
G54D16*
X2610Y8548D02*
X2095Y8033D01*
X2095Y8033D02*
X1744Y8033D01*
G54D17*
X1744Y8033D02*
X2095Y8033D01*
G54D16*
X2610Y9548D02*
X1882Y8821D01*
X1882Y8821D02*
X1744Y8821D01*
G54D17*
X1744Y8821D02*
X1882Y8821D01*
G54D16*
X1744Y4096D02*
X2062Y4096D01*
X2062Y4096D02*
X2610Y3548D01*
G54D17*
X2062Y4096D02*
X2610Y3548D01*
G54D16*
X1744Y3309D02*
X1849Y3309D01*
X1849Y3309D02*
X2610Y2548D01*
G54D17*
X1849Y3309D02*
X2610Y2548D01*
G54D16*
X9610Y10548D02*
X10405Y9753D01*
X10405Y9753D02*
X10405Y9608D01*
G54D17*
X10405Y9608D02*
X10405Y9753D01*
G54D16*
X10405Y8821D02*
X10337Y8821D01*
X10337Y8821D02*
X9610Y9548D01*
G54D17*
X10337Y8821D02*
X9610Y9548D01*
G54D16*
X9610Y8548D02*
X10125Y8033D01*
X10125Y8033D02*
X10405Y8033D01*
G54D17*
X10405Y8033D02*
X10125Y8033D01*
G54D16*
X10405Y7246D02*
X9912Y7246D01*
X9912Y7246D02*
X9610Y7548D01*
G54D17*
X9912Y7246D02*
X9610Y7548D01*
G54D16*
X9610Y6548D02*
X9700Y6459D01*
X9700Y6459D02*
X10405Y6459D01*
G54D17*
X10405Y6459D02*
X9700Y6459D01*
G54D16*
X10405Y5671D02*
X9733Y5671D01*
X9733Y5671D02*
X9610Y5548D01*
G54D17*
X9733Y5671D02*
X9610Y5548D01*
G54D16*
X9610Y4548D02*
X9945Y4884D01*
X9945Y4884D02*
X10405Y4884D01*
G54D17*
X10405Y4884D02*
X9945Y4884D01*
G54D16*
X10405Y4096D02*
X10158Y4096D01*
X10158Y4096D02*
X9610Y3548D01*
G54D17*
X10158Y4096D02*
X9610Y3548D01*
G54D16*
X10405Y3309D02*
X9644Y2548D01*
X9644Y2548D02*
X9610Y2548D01*
X9610Y1548D02*
X10405Y2344D01*
X10405Y2344D02*
X10405Y2522D01*
G54D17*
X10405Y2522D02*
X10405Y2344D01*
M02*
