%FSLAX34Y34*%
G04 Gerber Fmt 3.4, Leading zero omitted, Abs format*
G04 (created by PCBNEW (2013-12-14 BZR 4555)-product) date Fri 28 Feb 2014 09:50:12 EST*
%MOIN*%
G01*
G70*
G90*
G04 APERTURE LIST*
%ADD10C,0.005906*%
%ADD11C,0.007874*%
%ADD12C,0.006000*%
%ADD13C,0.003937*%
%ADD14C,0.011811*%
%ADD15C,0.000100*%
%ADD16C,0.015000*%
G04 APERTURE END LIST*
G54D10*
G54D11*
X9960Y1048D02*
X9960Y11037D01*
X2216Y11048D02*
X2220Y11048D01*
X2216Y1048D02*
X2216Y11048D01*
X2216Y2029D02*
X2216Y1048D01*
X9110Y12048D02*
X8437Y12048D01*
G54D12*
X9913Y11049D02*
X10027Y11049D01*
G54D13*
X3920Y11999D02*
X3920Y12392D01*
X4051Y12111D01*
X4183Y12392D01*
X4183Y11999D01*
X4520Y12017D02*
X4483Y11999D01*
X4408Y11999D01*
X4370Y12017D01*
X4351Y12055D01*
X4351Y12205D01*
X4370Y12242D01*
X4408Y12261D01*
X4483Y12261D01*
X4520Y12242D01*
X4539Y12205D01*
X4539Y12167D01*
X4351Y12130D01*
X4689Y12017D02*
X4726Y11999D01*
X4801Y11999D01*
X4839Y12017D01*
X4858Y12055D01*
X4858Y12074D01*
X4839Y12111D01*
X4801Y12130D01*
X4745Y12130D01*
X4708Y12149D01*
X4689Y12186D01*
X4689Y12205D01*
X4708Y12242D01*
X4745Y12261D01*
X4801Y12261D01*
X4839Y12242D01*
X5026Y11999D02*
X5026Y12392D01*
X5195Y11999D02*
X5195Y12205D01*
X5176Y12242D01*
X5139Y12261D01*
X5083Y12261D01*
X5045Y12242D01*
X5026Y12224D01*
X5383Y11999D02*
X5383Y12392D01*
X5532Y12392D01*
X5570Y12374D01*
X5589Y12355D01*
X5607Y12317D01*
X5607Y12261D01*
X5589Y12224D01*
X5570Y12205D01*
X5532Y12186D01*
X5383Y12186D01*
X5776Y11999D02*
X5776Y12261D01*
X5776Y12186D02*
X5795Y12224D01*
X5814Y12242D01*
X5851Y12261D01*
X5889Y12261D01*
X6076Y11999D02*
X6039Y12017D01*
X6020Y12036D01*
X6001Y12074D01*
X6001Y12186D01*
X6020Y12224D01*
X6039Y12242D01*
X6076Y12261D01*
X6132Y12261D01*
X6170Y12242D01*
X6189Y12224D01*
X6207Y12186D01*
X6207Y12074D01*
X6189Y12036D01*
X6170Y12017D01*
X6132Y11999D01*
X6076Y11999D01*
X6320Y12261D02*
X6470Y12261D01*
X6376Y12392D02*
X6376Y12055D01*
X6395Y12017D01*
X6432Y11999D01*
X6470Y11999D01*
X6657Y11999D02*
X6620Y12017D01*
X6601Y12036D01*
X6582Y12074D01*
X6582Y12186D01*
X6601Y12224D01*
X6620Y12242D01*
X6657Y12261D01*
X6714Y12261D01*
X6751Y12242D01*
X6770Y12224D01*
X6789Y12186D01*
X6789Y12074D01*
X6770Y12036D01*
X6751Y12017D01*
X6714Y11999D01*
X6657Y11999D01*
X7220Y12261D02*
X7314Y11999D01*
X7407Y12261D01*
X7763Y11999D02*
X7538Y11999D01*
X7651Y11999D02*
X7651Y12392D01*
X7613Y12336D01*
X7576Y12299D01*
X7538Y12280D01*
X7932Y12036D02*
X7951Y12017D01*
X7932Y11999D01*
X7913Y12017D01*
X7932Y12036D01*
X7932Y11999D01*
X8101Y12355D02*
X8120Y12374D01*
X8157Y12392D01*
X8251Y12392D01*
X8288Y12374D01*
X8307Y12355D01*
X8326Y12317D01*
X8326Y12280D01*
X8307Y12224D01*
X8082Y11999D01*
X8326Y11999D01*
G54D14*
X2610Y331D02*
X2610Y781D01*
X2497Y668D02*
X2610Y781D01*
X2722Y668D01*
G54D11*
X2744Y915D02*
X2474Y915D01*
X2274Y715D02*
X2454Y895D01*
X2274Y215D02*
X2274Y715D01*
X2934Y215D02*
X2274Y215D01*
X2934Y725D02*
X2934Y215D01*
X2744Y915D02*
X2934Y725D01*
G54D13*
X385Y9196D02*
X357Y9210D01*
X314Y9210D01*
X272Y9196D01*
X244Y9168D01*
X230Y9140D01*
X216Y9083D01*
X216Y9041D01*
X230Y8985D01*
X244Y8957D01*
X272Y8929D01*
X314Y8915D01*
X343Y8915D01*
X385Y8929D01*
X399Y8943D01*
X399Y9041D01*
X343Y9041D01*
X525Y8915D02*
X525Y9210D01*
X694Y8915D01*
X694Y9210D01*
X835Y8915D02*
X835Y9210D01*
X905Y9210D01*
X947Y9196D01*
X975Y9168D01*
X989Y9140D01*
X1003Y9083D01*
X1003Y9041D01*
X989Y8985D01*
X975Y8957D01*
X947Y8929D01*
X905Y8915D01*
X835Y8915D01*
X235Y10255D02*
X430Y10255D01*
X325Y10135D01*
X370Y10135D01*
X400Y10120D01*
X415Y10105D01*
X430Y10075D01*
X430Y10000D01*
X415Y9970D01*
X400Y9955D01*
X370Y9940D01*
X280Y9940D01*
X250Y9955D01*
X235Y9970D01*
X535Y10150D02*
X610Y9940D01*
X685Y10150D01*
X775Y10255D02*
X970Y10255D01*
X865Y10135D01*
X910Y10135D01*
X940Y10120D01*
X955Y10105D01*
X970Y10075D01*
X970Y10000D01*
X955Y9970D01*
X940Y9955D01*
X910Y9940D01*
X820Y9940D01*
X790Y9955D01*
X775Y9970D01*
G54D10*
X2236Y11764D02*
X2479Y11764D01*
X2348Y11614D01*
X2404Y11614D01*
X2442Y11595D01*
X2461Y11576D01*
X2479Y11539D01*
X2479Y11445D01*
X2461Y11408D01*
X2442Y11389D01*
X2404Y11370D01*
X2292Y11370D01*
X2254Y11389D01*
X2236Y11408D01*
X2610Y11633D02*
X2704Y11370D01*
X2798Y11633D01*
X2910Y11764D02*
X3154Y11764D01*
X3023Y11614D01*
X3079Y11614D01*
X3117Y11595D01*
X3135Y11576D01*
X3154Y11539D01*
X3154Y11445D01*
X3135Y11408D01*
X3117Y11389D01*
X3079Y11370D01*
X2967Y11370D01*
X2929Y11389D01*
X2910Y11408D01*
G54D11*
X3712Y12048D02*
X2160Y12048D01*
X2160Y11048D02*
X2160Y12048D01*
X3106Y1052D02*
X3106Y102D01*
X2310Y1048D02*
X2110Y1048D01*
X2310Y1048D02*
X3160Y1048D01*
X9952Y98D02*
X9109Y98D01*
G54D10*
X9208Y702D02*
X9178Y717D01*
X9133Y717D01*
X9088Y702D01*
X9058Y672D01*
X9043Y642D01*
X9028Y582D01*
X9028Y537D01*
X9043Y477D01*
X9058Y447D01*
X9088Y417D01*
X9133Y402D01*
X9163Y402D01*
X9208Y417D01*
X9223Y432D01*
X9223Y537D01*
X9163Y537D01*
X9358Y402D02*
X9358Y717D01*
X9538Y402D01*
X9538Y717D01*
X9688Y402D02*
X9688Y717D01*
X9763Y717D01*
X9808Y702D01*
X9838Y672D01*
X9853Y642D01*
X9868Y582D01*
X9868Y537D01*
X9853Y477D01*
X9838Y447D01*
X9808Y417D01*
X9763Y402D01*
X9688Y402D01*
G54D11*
X9110Y98D02*
X3110Y98D01*
X9960Y1048D02*
X9960Y98D01*
X3110Y1048D02*
X9952Y1048D01*
X9110Y12048D02*
X9110Y11048D01*
X9060Y11048D02*
X2177Y11048D01*
G54D15*
G36*
X-52074Y51004D02*
X-52075Y50999D01*
X-52076Y50988D01*
X-52079Y50971D01*
X-52082Y50949D01*
X-52086Y50923D01*
X-52091Y50895D01*
X-52092Y50888D01*
X-52112Y50775D01*
X-52198Y50701D01*
X-52212Y50690D01*
X-52212Y50929D01*
X-52212Y50940D01*
X-52212Y50975D01*
X-52212Y51004D01*
X-52213Y51026D01*
X-52214Y51043D01*
X-52216Y51056D01*
X-52219Y51066D01*
X-52223Y51073D01*
X-52229Y51079D01*
X-52236Y51085D01*
X-52239Y51087D01*
X-52248Y51092D01*
X-52256Y51094D01*
X-52267Y51095D01*
X-52282Y51095D01*
X-52284Y51095D01*
X-52300Y51094D01*
X-52310Y51092D01*
X-52317Y51089D01*
X-52323Y51084D01*
X-52328Y51079D01*
X-52337Y51067D01*
X-52343Y51051D01*
X-52347Y51031D01*
X-52349Y51005D01*
X-52350Y50986D01*
X-52349Y50959D01*
X-52344Y50937D01*
X-52337Y50922D01*
X-52327Y50911D01*
X-52322Y50908D01*
X-52307Y50904D01*
X-52291Y50904D01*
X-52276Y50907D01*
X-52267Y50912D01*
X-52263Y50916D01*
X-52261Y50916D01*
X-52260Y50912D01*
X-52259Y50903D01*
X-52259Y50888D01*
X-52259Y50881D01*
X-52260Y50859D01*
X-52262Y50844D01*
X-52266Y50834D01*
X-52273Y50829D01*
X-52281Y50828D01*
X-52291Y50831D01*
X-52297Y50841D01*
X-52299Y50857D01*
X-52299Y50871D01*
X-52320Y50871D01*
X-52342Y50871D01*
X-52342Y50849D01*
X-52339Y50827D01*
X-52332Y50810D01*
X-52321Y50798D01*
X-52307Y50789D01*
X-52289Y50785D01*
X-52269Y50784D01*
X-52250Y50788D01*
X-52236Y50795D01*
X-52230Y50800D01*
X-52224Y50806D01*
X-52220Y50812D01*
X-52217Y50821D01*
X-52215Y50833D01*
X-52213Y50849D01*
X-52213Y50869D01*
X-52212Y50896D01*
X-52212Y50929D01*
X-52212Y50690D01*
X-52285Y50627D01*
X-52377Y50627D01*
X-52377Y50788D01*
X-52377Y50942D01*
X-52377Y51096D01*
X-52410Y51096D01*
X-52443Y51096D01*
X-52458Y51020D01*
X-52462Y50996D01*
X-52467Y50974D01*
X-52471Y50956D01*
X-52473Y50943D01*
X-52475Y50936D01*
X-52475Y50936D01*
X-52476Y50937D01*
X-52479Y50945D01*
X-52482Y50960D01*
X-52487Y50979D01*
X-52492Y51004D01*
X-52493Y51011D01*
X-52510Y51094D01*
X-52542Y51095D01*
X-52574Y51096D01*
X-52574Y50942D01*
X-52574Y50788D01*
X-52552Y50788D01*
X-52531Y50788D01*
X-52530Y50894D01*
X-52530Y50999D01*
X-52519Y50942D01*
X-52514Y50916D01*
X-52509Y50888D01*
X-52504Y50860D01*
X-52500Y50837D01*
X-52499Y50836D01*
X-52491Y50788D01*
X-52476Y50789D01*
X-52462Y50790D01*
X-52443Y50899D01*
X-52423Y51007D01*
X-52422Y50898D01*
X-52421Y50788D01*
X-52399Y50788D01*
X-52377Y50788D01*
X-52377Y50627D01*
X-52402Y50627D01*
X-52518Y50627D01*
X-52602Y50696D01*
X-52624Y50715D01*
X-52645Y50731D01*
X-52662Y50746D01*
X-52676Y50757D01*
X-52686Y50765D01*
X-52689Y50769D01*
X-52690Y50769D01*
X-52691Y50773D01*
X-52694Y50785D01*
X-52697Y50801D01*
X-52702Y50823D01*
X-52707Y50849D01*
X-52712Y50877D01*
X-52713Y50885D01*
X-52734Y50998D01*
X-52678Y51097D01*
X-52663Y51122D01*
X-52650Y51146D01*
X-52638Y51166D01*
X-52628Y51181D01*
X-52621Y51193D01*
X-52617Y51198D01*
X-52617Y51198D01*
X-52612Y51200D01*
X-52600Y51205D01*
X-52584Y51211D01*
X-52563Y51219D01*
X-52538Y51228D01*
X-52512Y51238D01*
X-52508Y51239D01*
X-52405Y51277D01*
X-52297Y51239D01*
X-52189Y51200D01*
X-52132Y51104D01*
X-52118Y51079D01*
X-52104Y51056D01*
X-52093Y51036D01*
X-52084Y51020D01*
X-52078Y51009D01*
X-52075Y51004D01*
X-52074Y51004D01*
X-52074Y51004D01*
X-52074Y51004D01*
G37*
G36*
X-52259Y51000D02*
X-52260Y50979D01*
X-52261Y50965D01*
X-52265Y50956D01*
X-52271Y50952D01*
X-52280Y50950D01*
X-52284Y50950D01*
X-52291Y50951D01*
X-52295Y50956D01*
X-52299Y50964D01*
X-52301Y50983D01*
X-52302Y51004D01*
X-52300Y51024D01*
X-52297Y51036D01*
X-52291Y51048D01*
X-52281Y51052D01*
X-52271Y51049D01*
X-52267Y51046D01*
X-52263Y51042D01*
X-52261Y51036D01*
X-52260Y51026D01*
X-52259Y51011D01*
X-52259Y51000D01*
X-52259Y51000D01*
X-52259Y51000D01*
G37*
G54D16*
X1174Y9608D02*
X1174Y9708D01*
X10974Y9608D02*
X10974Y9708D01*
X2053Y11240D02*
G75*
G03X2053Y11240I-900J0D01*
G74*
G01*
X11896Y11240D02*
G75*
G03X11896Y11240I-900J0D01*
G74*
G01*
X2053Y1003D02*
G75*
G03X2053Y1003I-900J0D01*
G74*
G01*
X11896Y1003D02*
G75*
G03X11896Y1003I-900J0D01*
G74*
G01*
G54D12*
X3110Y1048D02*
X2216Y1048D01*
X2216Y2048D02*
X3110Y2048D01*
X3110Y2048D02*
X3110Y1048D01*
X3110Y2048D02*
X2216Y2048D01*
X2216Y3048D02*
X3110Y3048D01*
X3110Y3048D02*
X3110Y2048D01*
X3110Y3048D02*
X2216Y3048D01*
X2216Y4048D02*
X3110Y4048D01*
X3110Y4048D02*
X3110Y3048D01*
X3110Y4048D02*
X2216Y4048D01*
X2216Y5048D02*
X3110Y5048D01*
X3110Y5048D02*
X3110Y4048D01*
X3110Y5048D02*
X2216Y5048D01*
X2216Y6048D02*
X3110Y6048D01*
X3110Y6048D02*
X3110Y5048D01*
X3110Y6048D02*
X2216Y6048D01*
X2216Y7048D02*
X3110Y7048D01*
X3110Y7048D02*
X3110Y6048D01*
X3110Y7048D02*
X2216Y7048D01*
X2216Y8048D02*
X3110Y8048D01*
X3110Y8048D02*
X3110Y7048D01*
X3110Y8048D02*
X2216Y8048D01*
X2216Y9048D02*
X3110Y9048D01*
X3110Y9048D02*
X3110Y8048D01*
X3110Y9048D02*
X2216Y9048D01*
X2216Y10048D02*
X3110Y10048D01*
X3110Y10048D02*
X3110Y9048D01*
X3110Y10048D02*
X2216Y10048D01*
X2216Y11048D02*
X3110Y11048D01*
X3110Y11048D02*
X3110Y10048D01*
G54D10*
X9110Y2048D02*
X9110Y1048D01*
G54D12*
X9944Y1048D02*
X9110Y1048D01*
X9110Y2048D02*
X9944Y2048D01*
G54D10*
X9110Y3048D02*
X9110Y2048D01*
G54D12*
X9944Y2048D02*
X9110Y2048D01*
X9110Y3048D02*
X9944Y3048D01*
G54D10*
X9110Y4048D02*
X9110Y3048D01*
G54D12*
X9944Y3048D02*
X9110Y3048D01*
X9110Y4048D02*
X9944Y4048D01*
G54D10*
X9110Y5048D02*
X9110Y4048D01*
G54D12*
X9944Y4048D02*
X9110Y4048D01*
X9110Y5048D02*
X9944Y5048D01*
G54D10*
X9110Y6048D02*
X9110Y5048D01*
G54D12*
X9944Y5048D02*
X9110Y5048D01*
X9110Y6048D02*
X9944Y6048D01*
G54D10*
X9110Y7048D02*
X9110Y6048D01*
G54D12*
X9944Y6048D02*
X9110Y6048D01*
X9110Y7048D02*
X9944Y7048D01*
G54D10*
X9110Y8048D02*
X9110Y7048D01*
G54D12*
X9944Y7048D02*
X9110Y7048D01*
X9110Y8048D02*
X9944Y8048D01*
G54D10*
X9110Y11048D02*
X9110Y10048D01*
G54D12*
X9944Y10048D02*
X9110Y10048D01*
X9110Y11048D02*
X9944Y11048D01*
G54D10*
X9110Y9048D02*
X9110Y8048D01*
G54D12*
X9944Y8048D02*
X9110Y8048D01*
X9110Y9048D02*
X9944Y9048D01*
G54D10*
X9110Y10048D02*
X9110Y9048D01*
G54D12*
X9944Y9048D02*
X9110Y9048D01*
X9110Y10048D02*
X9944Y10048D01*
G54D10*
X1271Y9214D02*
X2216Y9214D01*
X2216Y10100D02*
X2216Y2029D01*
X2216Y2029D02*
X1271Y2029D01*
X1271Y2029D02*
X1271Y10100D01*
X1271Y10100D02*
X2216Y10100D01*
X10877Y2915D02*
X9933Y2915D01*
X9933Y2029D02*
X9933Y10100D01*
X9933Y10100D02*
X10877Y10100D01*
X10877Y10100D02*
X10877Y2029D01*
X10877Y2029D02*
X9933Y2029D01*
G54D15*
G36*
X10155Y12007D02*
X10154Y12000D01*
X10152Y11983D01*
X10148Y11957D01*
X10143Y11924D01*
X10137Y11886D01*
X10130Y11843D01*
X10128Y11833D01*
X10099Y11664D01*
X9969Y11553D01*
X9949Y11535D01*
X9949Y11894D01*
X9949Y11911D01*
X9949Y11964D01*
X9948Y12007D01*
X9947Y12040D01*
X9945Y12066D01*
X9942Y12085D01*
X9937Y12099D01*
X9932Y12111D01*
X9923Y12120D01*
X9913Y12128D01*
X9907Y12131D01*
X9895Y12138D01*
X9883Y12143D01*
X9867Y12144D01*
X9843Y12144D01*
X9841Y12143D01*
X9816Y12142D01*
X9802Y12140D01*
X9791Y12135D01*
X9782Y12127D01*
X9774Y12120D01*
X9761Y12101D01*
X9751Y12078D01*
X9746Y12047D01*
X9743Y12009D01*
X9742Y11980D01*
X9744Y11939D01*
X9750Y11907D01*
X9761Y11884D01*
X9776Y11868D01*
X9784Y11863D01*
X9806Y11857D01*
X9831Y11857D01*
X9853Y11862D01*
X9866Y11870D01*
X9871Y11874D01*
X9875Y11874D01*
X9877Y11869D01*
X9878Y11856D01*
X9878Y11833D01*
X9878Y11822D01*
X9877Y11789D01*
X9874Y11766D01*
X9867Y11752D01*
X9857Y11745D01*
X9845Y11743D01*
X9831Y11748D01*
X9822Y11763D01*
X9819Y11786D01*
X9819Y11808D01*
X9786Y11808D01*
X9754Y11808D01*
X9754Y11775D01*
X9757Y11742D01*
X9768Y11716D01*
X9784Y11697D01*
X9806Y11684D01*
X9833Y11678D01*
X9863Y11677D01*
X9891Y11683D01*
X9912Y11694D01*
X9922Y11701D01*
X9930Y11710D01*
X9936Y11720D01*
X9941Y11733D01*
X9945Y11750D01*
X9946Y11774D01*
X9947Y11805D01*
X9949Y11844D01*
X9949Y11894D01*
X9949Y11535D01*
X9839Y11442D01*
X9701Y11442D01*
X9701Y11684D01*
X9701Y11914D01*
X9701Y12144D01*
X9651Y12144D01*
X9601Y12144D01*
X9580Y12030D01*
X9573Y11995D01*
X9566Y11962D01*
X9561Y11935D01*
X9557Y11916D01*
X9554Y11906D01*
X9554Y11905D01*
X9552Y11907D01*
X9548Y11919D01*
X9543Y11941D01*
X9536Y11970D01*
X9528Y12007D01*
X9526Y12017D01*
X9502Y12141D01*
X9454Y12143D01*
X9405Y12145D01*
X9405Y11914D01*
X9405Y11684D01*
X9438Y11684D01*
X9470Y11684D01*
X9471Y11841D01*
X9471Y12000D01*
X9487Y11914D01*
X9495Y11875D01*
X9503Y11833D01*
X9510Y11791D01*
X9517Y11756D01*
X9518Y11756D01*
X9531Y11683D01*
X9552Y11685D01*
X9573Y11687D01*
X9603Y11849D01*
X9633Y12011D01*
X9634Y11847D01*
X9636Y11684D01*
X9668Y11684D01*
X9701Y11684D01*
X9701Y11442D01*
X9664Y11442D01*
X9489Y11442D01*
X9363Y11545D01*
X9330Y11573D01*
X9300Y11598D01*
X9274Y11620D01*
X9253Y11637D01*
X9238Y11649D01*
X9232Y11654D01*
X9232Y11654D01*
X9230Y11661D01*
X9226Y11678D01*
X9221Y11703D01*
X9213Y11736D01*
X9206Y11775D01*
X9198Y11817D01*
X9196Y11828D01*
X9165Y11998D01*
X9249Y12147D01*
X9271Y12184D01*
X9291Y12219D01*
X9310Y12249D01*
X9324Y12273D01*
X9335Y12290D01*
X9341Y12298D01*
X9342Y12298D01*
X9349Y12301D01*
X9366Y12308D01*
X9391Y12317D01*
X9422Y12330D01*
X9459Y12343D01*
X9499Y12358D01*
X9504Y12360D01*
X9659Y12417D01*
X9821Y12359D01*
X9983Y12301D01*
X10068Y12157D01*
X10090Y12120D01*
X10110Y12085D01*
X10127Y12055D01*
X10141Y12032D01*
X10150Y12015D01*
X10154Y12007D01*
X10155Y12007D01*
X10155Y12007D01*
X10155Y12007D01*
G37*
G36*
X9878Y12001D02*
X9877Y11970D01*
X9875Y11949D01*
X9869Y11935D01*
X9860Y11929D01*
X9846Y11926D01*
X9841Y11926D01*
X9830Y11928D01*
X9823Y11935D01*
X9819Y11948D01*
X9815Y11975D01*
X9813Y12007D01*
X9816Y12037D01*
X9821Y12056D01*
X9831Y12072D01*
X9845Y12079D01*
X9861Y12075D01*
X9867Y12070D01*
X9872Y12064D01*
X9875Y12055D01*
X9877Y12040D01*
X9878Y12018D01*
X9878Y12001D01*
X9878Y12001D01*
X9878Y12001D01*
G37*
M02*
