M48
;DRILL file {Pcbnew (2013-12-14 BZR 4555)-product} date Fri 03 Jan 2014 13:42:18 EST
;FORMAT={-:-/ absolute / metric / decimal}
FMAT,2
METRIC,TZ
T1C0.700
T2C0.813
T3C1.016
T4C3.000
%
G90
G05
M71
T1
X0.74Y16.396
X2.54Y16.406
T2
X4.43Y24.406
X4.43Y22.406
X4.43Y20.406
X4.43Y18.406
X4.43Y16.406
X4.43Y14.406
X4.43Y12.406
X4.43Y10.406
X4.43Y8.406
X4.43Y6.406
X26.43Y24.406
X26.43Y22.406
X26.43Y20.406
X26.43Y18.406
X26.43Y16.406
X26.43Y14.406
X26.43Y12.406
X26.43Y10.406
X26.43Y8.406
X26.43Y6.406
T3
X1.64Y23.676
X1.64Y21.136
X6.63Y26.794
X6.63Y24.254
X6.63Y21.714
X6.63Y19.174
X6.63Y16.634
X6.63Y14.094
X6.63Y11.554
X6.63Y9.014
X6.63Y6.474
X6.63Y3.934
X9.17Y29.334
X9.17Y26.794
X9.17Y24.254
X9.17Y21.714
X9.17Y19.174
X9.17Y16.634
X9.17Y14.094
X9.17Y11.554
X9.17Y9.014
X9.17Y6.474
X9.17Y3.934
X9.17Y1.394
X11.71Y29.334
X11.71Y26.794
X11.71Y24.254
X11.71Y21.714
X11.71Y19.174
X11.71Y16.634
X11.71Y14.094
X11.71Y11.554
X11.71Y9.014
X11.71Y6.474
X11.71Y3.934
X11.71Y1.394
X14.25Y29.334
X14.25Y26.794
X14.25Y24.254
X14.25Y21.714
X14.25Y19.174
X14.25Y16.634
X14.25Y14.094
X14.25Y11.554
X14.25Y9.014
X14.25Y6.474
X14.25Y3.934
X14.25Y1.394
X16.79Y29.334
X16.79Y26.794
X16.79Y24.254
X16.79Y21.714
X16.79Y19.174
X16.79Y16.634
X16.79Y14.094
X16.79Y11.554
X16.79Y9.014
X16.79Y6.474
X16.79Y3.934
X16.79Y1.394
X19.33Y29.334
X19.33Y26.794
X19.33Y24.254
X19.33Y21.714
X19.33Y19.174
X19.33Y16.634
X19.33Y14.094
X19.33Y11.554
X19.33Y9.014
X19.33Y6.474
X19.33Y3.934
X19.33Y1.394
X21.87Y29.334
X21.87Y26.794
X21.87Y24.254
X21.87Y21.714
X21.87Y19.174
X21.87Y16.634
X21.87Y14.094
X21.87Y11.554
X21.87Y9.014
X21.87Y6.474
X21.87Y3.934
X21.87Y1.394
X24.41Y26.794
X24.41Y24.254
X24.41Y21.714
X24.41Y19.174
X24.41Y16.634
X24.41Y14.094
X24.41Y11.554
X24.41Y9.014
X24.41Y6.474
X24.41Y3.934
T4
X2.93Y28.55
X2.93Y2.55
X27.93Y28.55
X27.93Y2.55
T0
M30
