<?xml version="1.0" standalone="no"?>
 <!DOCTYPE svg PUBLIC "-//W3C//DTD SVG 1.1//EN" 
 "http://www.w3.org/Graphics/SVG/1.1/DTD/svg11.dtd"> 
<svg xmlns="http://www.w3.org/2000/svg" version="1.1" 
    width="29.7002cm" height="21.0007cm" viewBox="0 0 116930 82680 ">
<title>SVG Picture created as MeshProto--brd.svg date 2013/11/12 21:22:00 </title>
  <desc>Picture generated by PCBNEW </desc>
<g style="fill:#000000; fill-opacity:1;stroke:#000000; stroke-opacity:1;
stroke-linecap:round; stroke-linejoin:round; "
 transform="translate(0 0) scale(1 1)">
</g>
<g style="fill:#000000; fill-opacity:0.0; 
stroke:#000000; stroke-width:39.3701; stroke-opacity:1; 
stroke-linecap:round; stroke-linejoin:round;">
<path d="M4000 4000
L112930 4000
L112930 78680
L4000 78680
L4000 4000
" />
<path d="M4700 4700
L112230 4700
L112230 77980
L4700 77980
L4700 4700
" />
<path d="M25780 4000
L25780 4700
" />
<path d="M15032 4552
L14747 4552
" />
<path d="M14890 4552
L14890 4052
L14842 4123
L14794 4171
L14747 4195
" />
<path d="M25780 78680
L25780 77980
" />
<path d="M15032 78532
L14747 78532
" />
<path d="M14890 78532
L14890 78032
L14842 78103
L14794 78151
L14747 78175
" />
<path d="M47560 4000
L47560 4700
" />
<path d="M36527 4100
L36550 4076
L36598 4052
L36717 4052
L36765 4076
L36789 4100
L36812 4147
L36812 4195
L36789 4266
L36503 4552
L36812 4552
" />
<path d="M47560 78680
L47560 77980
" />
<path d="M36527 78080
L36550 78056
L36598 78032
L36717 78032
L36765 78056
L36789 78080
L36812 78127
L36812 78175
L36789 78246
L36503 78532
L36812 78532
" />
<path d="M69340 4000
L69340 4700
" />
<path d="M58283 4052
L58592 4052
L58426 4242
L58497 4242
L58545 4266
L58569 4290
L58592 4338
L58592 4457
L58569 4504
L58545 4528
L58497 4552
L58354 4552
L58307 4528
L58283 4504
" />
<path d="M69340 78680
L69340 77980
" />
<path d="M58283 78032
L58592 78032
L58426 78222
L58497 78222
L58545 78246
L58569 78270
L58592 78318
L58592 78437
L58569 78484
L58545 78508
L58497 78532
L58354 78532
L58307 78508
L58283 78484
" />
<path d="M91120 4000
L91120 4700
" />
<path d="M80325 4219
L80325 4552
" />
<path d="M80206 4028
L80087 4385
L80396 4385
" />
<path d="M91120 78680
L91120 77980
" />
<path d="M80325 78199
L80325 78532
" />
<path d="M80206 78008
L80087 78365
L80396 78365
" />
<path d="M102129 4052
L101890 4052
L101867 4290
L101890 4266
L101938 4242
L102057 4242
L102105 4266
L102129 4290
L102152 4338
L102152 4457
L102129 4504
L102105 4528
L102057 4552
L101938 4552
L101890 4528
L101867 4504
" />
<path d="M102129 78032
L101890 78032
L101867 78270
L101890 78246
L101938 78222
L102057 78222
L102105 78246
L102129 78270
L102152 78318
L102152 78437
L102129 78484
L102105 78508
L102057 78532
L101938 78532
L101890 78508
L101867 78484
" />
<path d="M4000 28890
L4700 28890
" />
<path d="M4230 16509
L4469 16509
" />
<path d="M4183 16652
L4350 16152
L4516 16652
" />
<path d="M112930 28890
L112230 28890
" />
<path d="M112460 16509
L112699 16509
" />
<path d="M112413 16652
L112580 16152
L112746 16652
" />
<path d="M4000 53780
L4700 53780
" />
<path d="M4385 41280
L4457 41304
L4480 41328
L4504 41375
L4504 41447
L4480 41494
L4457 41518
L4409 41542
L4219 41542
L4219 41042
L4385 41042
L4433 41066
L4457 41090
L4480 41137
L4480 41185
L4457 41232
L4433 41256
L4385 41280
L4219 41280
" />
<path d="M112930 53780
L112230 53780
" />
<path d="M112615 41280
L112687 41304
L112710 41328
L112734 41375
L112734 41447
L112710 41494
L112687 41518
L112639 41542
L112449 41542
L112449 41042
L112615 41042
L112663 41066
L112687 41090
L112710 41137
L112710 41185
L112687 41232
L112663 41256
L112615 41280
L112449 41280
" />
<path d="M4504 66384
L4480 66408
L4409 66432
L4361 66432
L4290 66408
L4242 66360
L4219 66313
L4195 66218
L4195 66146
L4219 66051
L4242 66003
L4290 65956
L4361 65932
L4409 65932
L4480 65956
L4504 65980
" />
<path d="M112734 66384
L112710 66408
L112639 66432
L112591 66432
L112520 66408
L112472 66360
L112449 66313
L112425 66218
L112425 66146
L112449 66051
L112472 66003
L112520 65956
L112591 65932
L112639 65932
L112710 65956
L112734 65980
" />
<path d="M79380 76422
L79455 75822
L79597 75822
L79680 75851
L79730 75908
L79751 75965
L79765 76080
L79755 76165
L79712 76280
L79676 76337
L79612 76394
L79522 76422
L79380 76422
" />
<path d="M80237 76422
L80276 76108
L80255 76051
L80201 76022
L80087 76022
L80026 76051
" />
<path d="M80240 76394
L80180 76422
L80037 76422
L79983 76394
L79962 76337
L79969 76280
L80005 76222
L80065 76194
L80208 76194
L80269 76165
" />
<path d="M80487 76022
L80715 76022
" />
<path d="M80597 75822
L80533 76337
L80555 76394
L80608 76422
L80665 76422
" />
<path d="M81097 76394
L81037 76422
L80922 76422
L80869 76394
L80847 76337
L80876 76108
L80912 76051
L80972 76022
L81087 76022
L81140 76051
L81162 76108
L81155 76165
L80862 76222
" />
<path d="M81387 76365
L81412 76394
L81380 76422
L81355 76394
L81387 76365
L81380 76422
" />
<path d="M81426 76051
L81451 76080
L81419 76108
L81394 76080
L81426 76051
L81419 76108
" />
<path d="M82437 76422
L82094 76422
" />
<path d="M82265 76422
L82340 75822
L82272 75908
L82208 75965
L82147 75994
" />
<path d="M82733 75880
L82765 75851
L82826 75822
L82969 75822
L83022 75851
L83047 75880
L83069 75937
L83062 75994
L83022 76080
L82637 76422
L83008 76422
" />
<path d="M83772 76022
L83722 76422
" />
<path d="M83765 76080
L83797 76051
L83858 76022
L83944 76022
L83997 76051
L84019 76108
L83980 76422
" />
<path d="M84351 76422
L84297 76394
L84272 76365
L84251 76308
L84272 76137
L84308 76080
L84340 76051
L84401 76022
L84487 76022
L84540 76051
L84565 76080
L84587 76137
L84565 76308
L84530 76365
L84497 76394
L84437 76422
L84351 76422
" />
<path d="M84801 76022
L84894 76422
L85087 76022
" />
<path d="M85762 75880
L85794 75851
L85855 75822
L85997 75822
L86051 75851
L86076 75880
L86097 75937
L86090 75994
L86051 76080
L85665 76422
L86037 76422
" />
<path d="M86483 75822
L86540 75822
L86594 75851
L86619 75880
L86640 75937
L86655 76051
L86637 76194
L86594 76308
L86558 76365
L86526 76394
L86465 76422
L86408 76422
L86355 76394
L86330 76365
L86308 76308
L86294 76194
L86312 76051
L86355 75937
L86390 75880
L86422 75851
L86483 75822
" />
<path d="M87180 76422
L86837 76422
" />
<path d="M87008 76422
L87083 75822
L87015 75908
L86951 75965
L86890 75994
" />
<path d="M87455 75822
L87826 75822
L87597 76051
L87683 76051
L87737 76080
L87762 76108
L87783 76165
L87765 76308
L87730 76365
L87697 76394
L87637 76422
L87465 76422
L87412 76394
L87387 76365
" />
<path d="M70972 77622
L70972 77022
" />
<path d="M71315 77622
L71058 77280
" />
<path d="M71315 77022
L70972 77365
" />
<path d="M71572 77622
L71572 77222
" />
<path d="M71572 77022
L71544 77051
L71572 77080
L71601 77051
L71572 77022
L71572 77080
" />
<path d="M72201 77565
L72172 77594
L72087 77622
L72030 77622
L71944 77594
L71887 77537
L71858 77480
L71830 77365
L71830 77280
L71858 77165
L71887 77108
L71944 77051
L72030 77022
L72087 77022
L72172 77051
L72201 77080
" />
<path d="M72715 77622
L72715 77308
L72687 77251
L72630 77222
L72515 77222
L72458 77251
" />
<path d="M72715 77594
L72658 77622
L72515 77622
L72458 77594
L72430 77537
L72430 77480
L72458 77422
L72515 77394
L72658 77394
L72715 77365
" />
<path d="M73258 77622
L73258 77022
" />
<path d="M73258 77594
L73201 77622
L73087 77622
L73030 77594
L73001 77565
L72972 77508
L72972 77337
L73001 77280
L73030 77251
L73087 77222
L73201 77222
L73258 77251
" />
<path d="M74001 77308
L74201 77308
" />
<path d="M74287 77622
L74001 77622
L74001 77022
L74287 77022
" />
<path d="M74544 77565
L74572 77594
L74544 77622
L74515 77594
L74544 77565
L74544 77622
" />
<path d="M74829 77622
L74829 77022
L74972 77022
L75058 77051
L75115 77108
L75144 77165
L75172 77280
L75172 77365
L75144 77480
L75115 77537
L75058 77594
L74972 77622
L74829 77622
" />
<path d="M75429 77565
L75458 77594
L75429 77622
L75401 77594
L75429 77565
L75429 77622
" />
<path d="M75687 77451
L75972 77451
" />
<path d="M75629 77622
L75829 77022
L76029 77622
" />
<path d="M76229 77565
L76258 77594
L76229 77622
L76201 77594
L76229 77565
L76229 77622
" />
<path d="M104522 76422
L104358 76137
" />
<path d="M104180 76422
L104255 75822
L104483 75822
L104537 75851
L104562 75880
L104583 75937
L104572 76022
L104537 76080
L104505 76108
L104444 76137
L104215 76137
" />
<path d="M105012 76394
L104951 76422
L104837 76422
L104783 76394
L104762 76337
L104790 76108
L104826 76051
L104887 76022
L105001 76022
L105055 76051
L105076 76108
L105069 76165
L104776 76222
" />
<path d="M105287 76022
L105380 76422
L105572 76022
" />
<path d="M105758 76365
L105783 76394
L105751 76422
L105726 76394
L105758 76365
L105751 76422
" />
<path d="M105797 76051
L105822 76080
L105790 76108
L105765 76080
L105797 76051
L105790 76108
" />
<path d="M70944 76394
L71030 76422
L71172 76422
L71230 76394
L71258 76365
L71287 76308
L71287 76251
L71258 76194
L71230 76165
L71172 76137
L71058 76108
L71001 76080
L70972 76051
L70944 75994
L70944 75937
L70972 75880
L71001 75851
L71058 75822
L71201 75822
L71287 75851
" />
<path d="M71544 76422
L71544 76022
" />
<path d="M71544 75822
L71515 75851
L71544 75880
L71572 75851
L71544 75822
L71544 75880
" />
<path d="M71772 76022
L72087 76022
L71772 76422
L72087 76422
" />
<path d="M72544 76394
L72487 76422
L72372 76422
L72315 76394
L72287 76337
L72287 76108
L72315 76051
L72372 76022
L72487 76022
L72544 76051
L72572 76108
L72572 76165
L72287 76222
" />
<path d="M72830 76365
L72858 76394
L72830 76422
L72801 76394
L72830 76365
L72830 76422
" />
<path d="M72830 76051
L72858 76080
L72830 76108
L72801 76080
L72830 76051
L72830 76108
" />
<path d="M73544 76251
L73830 76251
" />
<path d="M73487 76422
L73687 75822
L73887 76422
" />
<path d="M74344 76022
L74344 76422
" />
<path d="M74201 75794
L74058 76222
L74430 76222
" />
<path d="M104172 77622
L104172 77022
" />
<path d="M104715 77622
L104715 77022
" />
<path d="M104715 77594
L104658 77622
L104544 77622
L104487 77594
L104458 77565
L104430 77508
L104430 77337
L104458 77280
L104487 77251
L104544 77222
L104658 77222
L104715 77251
" />
<path d="M105001 77565
L105030 77594
L105001 77622
L104972 77594
L105001 77565
L105001 77622
" />
<path d="M105001 77251
L105030 77280
L105001 77308
L104972 77280
L105001 77251
L105001 77308
" />
<path d="M106058 77622
L105715 77622
" />
<path d="M105887 77622
L105887 77022
L105829 77108
L105772 77165
L105715 77194
" />
<path d="M106744 76994
L106230 77765
" />
<path d="M107258 77622
L106915 77622
" />
<path d="M107087 77622
L107087 77022
L107029 77108
L106972 77165
L106915 77194
" />
<path d="M70969 74622
L71312 74622
" />
<path d="M71065 75222
L71140 74622
" />
<path d="M71437 75222
L71487 74822
" />
<path d="M71512 74622
L71480 74651
L71505 74680
L71537 74651
L71512 74622
L71505 74680
" />
<path d="M71687 74822
L71915 74822
" />
<path d="M71797 74622
L71733 75137
L71755 75194
L71808 75222
L71865 75222
" />
<path d="M72151 75222
L72097 75194
L72076 75137
L72140 74622
" />
<path d="M72612 75194
L72551 75222
L72437 75222
L72383 75194
L72362 75137
L72390 74908
L72426 74851
L72487 74822
L72601 74822
L72655 74851
L72676 74908
L72669 74965
L72376 75022
" />
<path d="M72901 75165
L72926 75194
L72894 75222
L72869 75194
L72901 75165
L72894 75222
" />
<path d="M72940 74851
L72965 74880
L72933 74908
L72908 74880
L72940 74851
L72933 74908
" />
<path d="M71172 72508
L70972 72508
" />
<path d="M70972 72822
L70972 72222
L71258 72222
" />
<path d="M71487 72822
L71487 72422
" />
<path d="M71487 72222
L71458 72251
L71487 72280
L71515 72251
L71487 72222
L71487 72280
" />
<path d="M71858 72822
L71801 72794
L71772 72737
L71772 72222
" />
<path d="M72315 72794
L72258 72822
L72144 72822
L72087 72794
L72058 72737
L72058 72508
L72087 72451
L72144 72422
L72258 72422
L72315 72451
L72344 72508
L72344 72565
L72058 72622
" />
<path d="M72601 72765
L72630 72794
L72601 72822
L72572 72794
L72601 72765
L72601 72822
" />
<path d="M72601 72451
L72630 72480
L72601 72508
L72572 72480
L72601 72451
L72601 72508
" />
<path d="M73344 72822
L73344 72222
L73544 72651
L73744 72222
L73744 72822
" />
<path d="M74258 72794
L74201 72822
L74087 72822
L74030 72794
L74001 72737
L74001 72508
L74030 72451
L74087 72422
L74201 72422
L74258 72451
L74287 72508
L74287 72565
L74001 72622
" />
<path d="M74515 72794
L74572 72822
L74687 72822
L74744 72794
L74772 72737
L74772 72708
L74744 72651
L74687 72622
L74601 72622
L74544 72594
L74515 72537
L74515 72508
L74544 72451
L74601 72422
L74687 72422
L74744 72451
" />
<path d="M75030 72822
L75030 72222
" />
<path d="M75287 72822
L75287 72508
L75258 72451
L75201 72422
L75115 72422
L75058 72451
L75030 72480
" />
<path d="M75572 72822
L75572 72222
L75801 72222
L75858 72251
L75887 72280
L75915 72337
L75915 72422
L75887 72480
L75858 72508
L75801 72537
L75572 72537
" />
<path d="M76172 72822
L76172 72422
" />
<path d="M76172 72537
L76201 72480
L76230 72451
L76287 72422
L76344 72422
" />
<path d="M76630 72822
L76572 72794
L76544 72765
L76515 72708
L76515 72537
L76544 72480
L76572 72451
L76630 72422
L76715 72422
L76772 72451
L76801 72480
L76830 72537
L76830 72708
L76801 72765
L76772 72794
L76715 72822
L76630 72822
" />
<path d="M77001 72422
L77230 72422
" />
<path d="M77087 72222
L77087 72737
L77115 72794
L77172 72822
L77230 72822
" />
<path d="M77515 72822
L77458 72794
L77430 72765
L77401 72708
L77401 72537
L77430 72480
L77458 72451
L77515 72422
L77601 72422
L77658 72451
L77687 72480
L77715 72537
L77715 72708
L77687 72765
L77658 72794
L77601 72822
L77515 72822
" />
<path d="M77972 72765
L78001 72794
L77972 72822
L77944 72794
L77972 72765
L77972 72822
" />
<path d="M78258 72822
L78258 72222
" />
<path d="M78315 72594
L78487 72822
" />
<path d="M78487 72422
L78258 72651
" />
<path d="M78744 72822
L78744 72422
" />
<path d="M78744 72222
L78715 72251
L78744 72280
L78772 72251
L78744 72222
L78744 72280
" />
<path d="M79287 72794
L79229 72822
L79115 72822
L79058 72794
L79029 72765
L79001 72708
L79001 72537
L79029 72480
L79058 72451
L79115 72422
L79229 72422
L79287 72451
" />
<path d="M79801 72822
L79801 72508
L79772 72451
L79715 72422
L79601 72422
L79544 72451
" />
<path d="M79801 72794
L79744 72822
L79601 72822
L79544 72794
L79515 72737
L79515 72680
L79544 72622
L79601 72594
L79744 72594
L79801 72565
" />
<path d="M80344 72822
L80344 72222
" />
<path d="M80344 72794
L80287 72822
L80172 72822
L80115 72794
L80087 72765
L80058 72708
L80058 72537
L80087 72480
L80115 72451
L80172 72422
L80287 72422
L80344 72451
" />
<path d="M80487 72880
L80944 72880
" />
<path d="M81087 72422
L81087 73022
" />
<path d="M81087 72451
L81144 72422
L81258 72422
L81315 72451
L81344 72480
L81372 72537
L81372 72708
L81344 72765
L81315 72794
L81258 72822
L81144 72822
L81087 72794
" />
<path d="M81887 72794
L81829 72822
L81715 72822
L81658 72794
L81629 72765
L81601 72708
L81601 72537
L81629 72480
L81658 72451
L81715 72422
L81829 72422
L81887 72451
" />
<path d="M82144 72822
L82144 72222
" />
<path d="M82144 72451
L82201 72422
L82315 72422
L82372 72451
L82401 72480
L82429 72537
L82429 72708
L82401 72765
L82372 72794
L82315 72822
L82201 72822
L82144 72794
" />
<path d="M70944 73994
L71030 74022
L71172 74022
L71230 73994
L71258 73965
L71287 73908
L71287 73851
L71258 73794
L71230 73765
L71172 73737
L71058 73708
L71001 73680
L70972 73651
L70944 73594
L70944 73537
L70972 73480
L71001 73451
L71058 73422
L71201 73422
L71287 73451
" />
<path d="M71544 74022
L71544 73422
" />
<path d="M71801 74022
L71801 73708
L71772 73651
L71715 73622
L71630 73622
L71572 73651
L71544 73680
" />
<path d="M72315 73994
L72258 74022
L72144 74022
L72087 73994
L72058 73937
L72058 73708
L72087 73651
L72144 73622
L72258 73622
L72315 73651
L72344 73708
L72344 73765
L72058 73822
" />
<path d="M72830 73994
L72772 74022
L72658 74022
L72601 73994
L72572 73937
L72572 73708
L72601 73651
L72658 73622
L72772 73622
L72830 73651
L72858 73708
L72858 73765
L72572 73822
" />
<path d="M73030 73622
L73258 73622
" />
<path d="M73115 73422
L73115 73937
L73144 73994
L73201 74022
L73258 74022
" />
<path d="M73458 73965
L73487 73994
L73458 74022
L73430 73994
L73458 73965
L73458 74022
" />
<path d="M73458 73651
L73487 73680
L73458 73708
L73430 73680
L73458 73651
L73458 73708
" />
<path d="M70230 71980
L70230 77980
" />
<path d="M70230 71980
L112230 71980
" />
<path d="M70230 71980
L112230 71980
" />
<path d="M70230 74380
L112230 74380
" />
<path d="M103430 75580
L103430 77980
" />
<path d="M70230 76780
L112230 76780
" />
<path d="M70230 75580
L112230 75580
" />
<path d="M76830 75580
L76830 76780
" />
</g>
<g style="fill:#FFFF00; fill-opacity:0.0; 
stroke:#FFFF00; stroke-width:39.3701; stroke-opacity:1; 
stroke-linecap:round; stroke-linejoin:round;">
<path d="M64409 38484
L64409 50925
" />
<path d="M52519 38484
L64409 38484
" />
<path d="M52519 50925
L52519 38484
" />
<path d="M64409 50925
L52519 50925
" />
</g>
<g style="fill:#009F9F; fill-opacity:0.0; 
stroke:#009F9F; stroke-width:60; stroke-opacity:1; 
stroke-linecap:round; stroke-linejoin:round;">
<path d="M54635 48371
L54635 48071
L54750 48071
L54778 48085
L54792 48100
L54807 48128
L54807 48171
L54792 48200
L54778 48214
L54750 48228
L54635 48228
" />
<path d="M55092 48371
L54921 48371
" />
<path d="M55007 48371
L55007 48071
L54978 48114
L54950 48142
L54921 48157
" />
<path d="M55278 48071
L55307 48071
L55335 48085
L55350 48100
L55364 48128
L55378 48185
L55378 48257
L55364 48314
L55350 48342
L55335 48357
L55307 48371
L55278 48371
L55250 48357
L55235 48342
L55221 48314
L55207 48257
L55207 48185
L55221 48128
L55235 48100
L55250 48085
L55278 48071
" />
<path d="M54778 47371
L54778 47071
L54892 47071
L54921 47085
L54935 47100
L54950 47128
L54950 47171
L54935 47200
L54921 47214
L54892 47228
L54778 47228
" />
<path d="M55092 47371
L55150 47371
L55178 47357
L55192 47342
L55221 47300
L55235 47242
L55235 47128
L55221 47100
L55207 47085
L55178 47071
L55121 47071
L55092 47085
L55078 47100
L55064 47128
L55064 47200
L55078 47228
L55092 47242
L55121 47257
L55178 47257
L55207 47242
L55221 47228
L55235 47200
" />
<path d="M54778 46371
L54778 46071
L54892 46071
L54921 46085
L54935 46100
L54950 46128
L54950 46171
L54935 46200
L54921 46214
L54892 46228
L54778 46228
" />
<path d="M55121 46200
L55092 46185
L55078 46171
L55064 46142
L55064 46128
L55078 46100
L55092 46085
L55121 46071
L55178 46071
L55207 46085
L55221 46100
L55235 46128
L55235 46142
L55221 46171
L55207 46185
L55178 46200
L55121 46200
L55092 46214
L55078 46228
L55064 46257
L55064 46314
L55078 46342
L55092 46357
L55121 46371
L55178 46371
L55207 46357
L55221 46342
L55235 46314
L55235 46257
L55221 46228
L55207 46214
L55178 46200
" />
<path d="M54778 45371
L54778 45071
L54892 45071
L54921 45085
L54935 45100
L54950 45128
L54950 45171
L54935 45200
L54921 45214
L54892 45228
L54778 45228
" />
<path d="M55050 45071
L55250 45071
L55121 45371
" />
<path d="M54778 44371
L54778 44071
L54892 44071
L54921 44085
L54935 44100
L54950 44128
L54950 44171
L54935 44200
L54921 44214
L54892 44228
L54778 44228
" />
<path d="M55207 44071
L55150 44071
L55121 44085
L55107 44100
L55078 44142
L55064 44200
L55064 44314
L55078 44342
L55092 44357
L55121 44371
L55178 44371
L55207 44357
L55221 44342
L55235 44314
L55235 44242
L55221 44214
L55207 44200
L55178 44185
L55121 44185
L55092 44200
L55078 44214
L55064 44242
" />
<path d="M54778 43371
L54778 43071
L54892 43071
L54921 43085
L54935 43100
L54950 43128
L54950 43171
L54935 43200
L54921 43214
L54892 43228
L54778 43228
" />
<path d="M55221 43071
L55078 43071
L55064 43214
L55078 43200
L55107 43185
L55178 43185
L55207 43200
L55221 43214
L55235 43242
L55235 43314
L55221 43342
L55207 43357
L55178 43371
L55107 43371
L55078 43357
L55064 43342
" />
<path d="M54778 42371
L54778 42071
L54892 42071
L54921 42085
L54935 42100
L54950 42128
L54950 42171
L54935 42200
L54921 42214
L54892 42228
L54778 42228
" />
<path d="M55207 42171
L55207 42371
" />
<path d="M55135 42057
L55064 42271
L55250 42271
" />
<path d="M54778 41371
L54778 41071
L54892 41071
L54921 41085
L54935 41100
L54950 41128
L54950 41171
L54935 41200
L54921 41214
L54892 41228
L54778 41228
" />
<path d="M55050 41071
L55235 41071
L55135 41185
L55178 41185
L55207 41200
L55221 41214
L55235 41242
L55235 41314
L55221 41342
L55207 41357
L55178 41371
L55092 41371
L55064 41357
L55050 41342
" />
<path d="M54778 40371
L54778 40071
L54892 40071
L54921 40085
L54935 40100
L54950 40128
L54950 40171
L54935 40200
L54921 40214
L54892 40228
L54778 40228
" />
<path d="M55064 40100
L55078 40085
L55107 40071
L55178 40071
L55207 40085
L55221 40100
L55235 40128
L55235 40157
L55221 40200
L55050 40371
L55235 40371
" />
<path d="M54778 39371
L54778 39071
L54892 39071
L54921 39085
L54935 39100
L54950 39128
L54950 39171
L54935 39200
L54921 39214
L54892 39228
L54778 39228
" />
<path d="M55235 39371
L55064 39371
" />
<path d="M55150 39371
L55150 39071
L55121 39114
L55092 39142
L55064 39157
" />
<path d="M61635 48371
L61635 48071
L61750 48071
L61778 48085
L61792 48100
L61807 48128
L61807 48171
L61792 48200
L61778 48214
L61750 48228
L61635 48228
" />
<path d="M61921 48100
L61935 48085
L61964 48071
L62035 48071
L62064 48085
L62078 48100
L62092 48128
L62092 48157
L62078 48200
L61907 48371
L62092 48371
" />
<path d="M62278 48071
L62307 48071
L62335 48085
L62350 48100
L62364 48128
L62378 48185
L62378 48257
L62364 48314
L62350 48342
L62335 48357
L62307 48371
L62278 48371
L62250 48357
L62235 48342
L62221 48314
L62207 48257
L62207 48185
L62221 48128
L62235 48100
L62250 48085
L62278 48071
" />
<path d="M61635 47371
L61635 47071
L61750 47071
L61778 47085
L61792 47100
L61807 47128
L61807 47171
L61792 47200
L61778 47214
L61750 47228
L61635 47228
" />
<path d="M62092 47371
L61921 47371
" />
<path d="M62007 47371
L62007 47071
L61978 47114
L61950 47142
L61921 47157
" />
<path d="M62235 47371
L62292 47371
L62321 47357
L62335 47342
L62364 47300
L62378 47242
L62378 47128
L62364 47100
L62350 47085
L62321 47071
L62264 47071
L62235 47085
L62221 47100
L62207 47128
L62207 47200
L62221 47228
L62235 47242
L62264 47257
L62321 47257
L62350 47242
L62364 47228
L62378 47200
" />
<path d="M61635 46371
L61635 46071
L61750 46071
L61778 46085
L61792 46100
L61807 46128
L61807 46171
L61792 46200
L61778 46214
L61750 46228
L61635 46228
" />
<path d="M62092 46371
L61921 46371
" />
<path d="M62007 46371
L62007 46071
L61978 46114
L61950 46142
L61921 46157
" />
<path d="M62264 46200
L62235 46185
L62221 46171
L62207 46142
L62207 46128
L62221 46100
L62235 46085
L62264 46071
L62321 46071
L62350 46085
L62364 46100
L62378 46128
L62378 46142
L62364 46171
L62350 46185
L62321 46200
L62264 46200
L62235 46214
L62221 46228
L62207 46257
L62207 46314
L62221 46342
L62235 46357
L62264 46371
L62321 46371
L62350 46357
L62364 46342
L62378 46314
L62378 46257
L62364 46228
L62350 46214
L62321 46200
" />
<path d="M61635 45371
L61635 45071
L61750 45071
L61778 45085
L61792 45100
L61807 45128
L61807 45171
L61792 45200
L61778 45214
L61750 45228
L61635 45228
" />
<path d="M62092 45371
L61921 45371
" />
<path d="M62007 45371
L62007 45071
L61978 45114
L61950 45142
L61921 45157
" />
<path d="M62192 45071
L62392 45071
L62264 45371
" />
<path d="M61635 44371
L61635 44071
L61750 44071
L61778 44085
L61792 44100
L61807 44128
L61807 44171
L61792 44200
L61778 44214
L61750 44228
L61635 44228
" />
<path d="M62092 44371
L61921 44371
" />
<path d="M62007 44371
L62007 44071
L61978 44114
L61950 44142
L61921 44157
" />
<path d="M62350 44071
L62292 44071
L62264 44085
L62250 44100
L62221 44142
L62207 44200
L62207 44314
L62221 44342
L62235 44357
L62264 44371
L62321 44371
L62350 44357
L62364 44342
L62378 44314
L62378 44242
L62364 44214
L62350 44200
L62321 44185
L62264 44185
L62235 44200
L62221 44214
L62207 44242
" />
<path d="M61635 43371
L61635 43071
L61750 43071
L61778 43085
L61792 43100
L61807 43128
L61807 43171
L61792 43200
L61778 43214
L61750 43228
L61635 43228
" />
<path d="M62092 43371
L61921 43371
" />
<path d="M62007 43371
L62007 43071
L61978 43114
L61950 43142
L61921 43157
" />
<path d="M62364 43071
L62221 43071
L62207 43214
L62221 43200
L62250 43185
L62321 43185
L62350 43200
L62364 43214
L62378 43242
L62378 43314
L62364 43342
L62350 43357
L62321 43371
L62250 43371
L62221 43357
L62207 43342
" />
<path d="M61635 42371
L61635 42071
L61750 42071
L61778 42085
L61792 42100
L61807 42128
L61807 42171
L61792 42200
L61778 42214
L61750 42228
L61635 42228
" />
<path d="M62092 42371
L61921 42371
" />
<path d="M62007 42371
L62007 42071
L61978 42114
L61950 42142
L61921 42157
" />
<path d="M62350 42171
L62350 42371
" />
<path d="M62278 42057
L62207 42271
L62392 42271
" />
<path d="M61635 41371
L61635 41071
L61750 41071
L61778 41085
L61792 41100
L61807 41128
L61807 41171
L61792 41200
L61778 41214
L61750 41228
L61635 41228
" />
<path d="M62092 41371
L61921 41371
" />
<path d="M62007 41371
L62007 41071
L61978 41114
L61950 41142
L61921 41157
" />
<path d="M62192 41071
L62378 41071
L62278 41185
L62321 41185
L62350 41200
L62364 41214
L62378 41242
L62378 41314
L62364 41342
L62350 41357
L62321 41371
L62235 41371
L62207 41357
L62192 41342
" />
<path d="M61635 40371
L61635 40071
L61750 40071
L61778 40085
L61792 40100
L61807 40128
L61807 40171
L61792 40200
L61778 40214
L61750 40228
L61635 40228
" />
<path d="M62092 40371
L61921 40371
" />
<path d="M62007 40371
L62007 40071
L61978 40114
L61950 40142
L61921 40157
" />
<path d="M62207 40100
L62221 40085
L62250 40071
L62321 40071
L62350 40085
L62364 40100
L62378 40128
L62378 40157
L62364 40200
L62192 40371
L62378 40371
" />
<path d="M61635 39371
L61635 39071
L61750 39071
L61778 39085
L61792 39100
L61807 39128
L61807 39171
L61792 39200
L61778 39214
L61750 39228
L61635 39228
" />
<path d="M62092 39371
L61921 39371
" />
<path d="M62007 39371
L62007 39071
L61978 39114
L61950 39142
L61921 39157
" />
<path d="M62378 39371
L62207 39371
" />
<path d="M62292 39371
L62292 39071
L62264 39114
L62235 39142
L62207 39157
" />
<path d="M55500 49500
L54500 49500
" />
<path d="M54500 48500
L55500 48500
" />
<path d="M54500 49500
L54500 48500
" />
<path d="M55500 48500
L55500 49500
" />
<path d="M55500 48500
L54500 48500
" />
<path d="M54500 47500
L55500 47500
" />
<path d="M54500 48500
L54500 47500
" />
<path d="M55500 47500
L55500 48500
" />
<path d="M55500 47500
L54500 47500
" />
<path d="M54500 46500
L55500 46500
" />
<path d="M54500 47500
L54500 46500
" />
<path d="M55500 46500
L55500 47500
" />
<path d="M55500 46500
L54500 46500
" />
<path d="M54500 45500
L55500 45500
" />
<path d="M54500 46500
L54500 45500
" />
<path d="M55500 45500
L55500 46500
" />
<path d="M55500 45500
L54500 45500
" />
<path d="M54500 44500
L55500 44500
" />
<path d="M54500 45500
L54500 44500
" />
<path d="M55500 44500
L55500 45500
" />
<path d="M55500 44500
L54500 44500
" />
<path d="M54500 43500
L55500 43500
" />
<path d="M54500 44500
L54500 43500
" />
<path d="M55500 43500
L55500 44500
" />
<path d="M55500 43500
L54500 43500
" />
<path d="M54500 42500
L55500 42500
" />
<path d="M54500 43500
L54500 42500
" />
<path d="M55500 42500
L55500 43500
" />
<path d="M55500 42500
L54500 42500
" />
<path d="M54500 41500
L55500 41500
" />
<path d="M54500 42500
L54500 41500
" />
<path d="M55500 41500
L55500 42500
" />
<path d="M55500 41500
L54500 41500
" />
<path d="M54500 40500
L55500 40500
" />
<path d="M54500 41500
L54500 40500
" />
<path d="M55500 40500
L55500 41500
" />
<path d="M55500 40500
L54500 40500
" />
<path d="M54500 39500
L55500 39500
" />
<path d="M54500 40500
L54500 39500
" />
<path d="M55500 39500
L55500 40500
" />
<path d="M62500 49500
L61500 49500
" />
<path d="M61500 48500
L62500 48500
" />
<path d="M61500 49500
L61500 48500
" />
<path d="M62500 48500
L62500 49500
" />
<path d="M62500 48500
L61500 48500
" />
<path d="M61500 47500
L62500 47500
" />
<path d="M61500 48500
L61500 47500
" />
<path d="M62500 47500
L62500 48500
" />
<path d="M62500 47500
L61500 47500
" />
<path d="M61500 46500
L62500 46500
" />
<path d="M61500 47500
L61500 46500
" />
<path d="M62500 46500
L62500 47500
" />
<path d="M62500 46500
L61500 46500
" />
<path d="M61500 45500
L62500 45500
" />
<path d="M61500 46500
L61500 45500
" />
<path d="M62500 45500
L62500 46500
" />
<path d="M62500 45500
L61500 45500
" />
<path d="M61500 44500
L62500 44500
" />
<path d="M61500 45500
L61500 44500
" />
<path d="M62500 44500
L62500 45500
" />
<path d="M62500 44500
L61500 44500
" />
<path d="M61500 43500
L62500 43500
" />
<path d="M61500 44500
L61500 43500
" />
<path d="M62500 43500
L62500 44500
" />
<path d="M62500 43500
L61500 43500
" />
<path d="M61500 42500
L62500 42500
" />
<path d="M61500 43500
L61500 42500
" />
<path d="M62500 42500
L62500 43500
" />
<path d="M62500 42500
L61500 42500
" />
<path d="M61500 41500
L62500 41500
" />
<path d="M61500 42500
L61500 41500
" />
<path d="M62500 41500
L62500 42500
" />
<path d="M62500 41500
L61500 41500
" />
<path d="M61500 40500
L62500 40500
" />
<path d="M61500 41500
L61500 40500
" />
<path d="M62500 40500
L62500 41500
" />
<path d="M62500 40500
L61500 40500
" />
<path d="M61500 39500
L62500 39500
" />
<path d="M61500 40500
L61500 39500
" />
<path d="M62500 39500
L62500 40500
" />
</g>
<g style="fill:#009F9F; fill-opacity:0.0; 
stroke:#009F9F; stroke-width:150; stroke-opacity:1; 
stroke-linecap:round; stroke-linejoin:round;">
<circle cx="53543.3" cy="39708.7" r="900" /> 
<circle cx="63385.8" cy="39708.7" r="900" /> 
<circle cx="53543.3" cy="49944.9" r="900" /> 
<circle cx="63385.8" cy="49944.9" r="900" /> 
</g>
<g style="fill:#009F9F; fill-opacity:0.0; 
stroke:#009F9F; stroke-width:59.0551; stroke-opacity:1; 
stroke-linecap:round; stroke-linejoin:round;">
<path d="M53661 41733
L54606 41733
" />
<path d="M54606 40848
L54606 48918
" />
<path d="M54606 48918
L53661 48918
" />
<path d="M53661 48918
L53661 40848
" />
<path d="M53661 40848
L54606 40848
" />
<path d="M63267 48033
L62322 48033
" />
<path d="M62322 48918
L62322 40848
" />
<path d="M62322 40848
L63267 40848
" />
<path d="M63267 40848
L63267 48918
" />
<path d="M63267 48918
L62322 48918
" />
</g>
<g style="fill:#009F9F; fill-opacity:0.0; 
stroke:#009F9F; stroke-width:150; stroke-opacity:1; 
stroke-linecap:round; stroke-linejoin:round;">
<path d="M53564 41340
L53564 41240
" />
</g>
<g style="fill:#009F9F; fill-opacity:0.0; 
stroke:#009F9F; stroke-width:59.0551; stroke-opacity:1; 
stroke-linecap:round; stroke-linejoin:round;">
<path d="M55775 39332
L54133 40749
" />
<path d="M61157 39332
L62724 40694
" />
</g>
<g style="fill:#009F9F; fill-opacity:0.0; 
stroke:#009F9F; stroke-width:150; stroke-opacity:1; 
stroke-linecap:round; stroke-linejoin:round;">
<path d="M53564 49040
L53564 49440
" />
<path d="M63364 49040
L63364 49440
" />
<path d="M63364 41340
L63364 41240
" />
<path d="M53564 49440
L63364 49440
" />
</g>
<g style="fill:#7F7F00; fill-opacity:0.0; 
stroke:#7F7F00; stroke-width:39.3701; stroke-opacity:1; 
stroke-linecap:round; stroke-linejoin:round;">
</g>
<g style="fill:#7F7F00; fill-opacity:1.0; 
stroke:#7F7F00; stroke-width:39.3701; stroke-opacity:1; 
stroke-linecap:round; stroke-linejoin:round;">
<polyline style="fill-rule:evenodd;"
points="54719,49280
54719,48719
55280,48719
55280,49280
54719,49280
" /> 
<polyline style="fill-rule:evenodd;"
points="54719,48280
54719,47719
55280,47719
55280,48280
54719,48280
" /> 
<polyline style="fill-rule:evenodd;"
points="54719,47280
54719,46719
55280,46719
55280,47280
54719,47280
" /> 
<polyline style="fill-rule:evenodd;"
points="54719,46280
54719,45719
55280,45719
55280,46280
54719,46280
" /> 
<polyline style="fill-rule:evenodd;"
points="54719,45280
54719,44719
55280,44719
55280,45280
54719,45280
" /> 
<polyline style="fill-rule:evenodd;"
points="54719,44280
54719,43719
55280,43719
55280,44280
54719,44280
" /> 
<polyline style="fill-rule:evenodd;"
points="54719,43280
54719,42719
55280,42719
55280,43280
54719,43280
" /> 
<polyline style="fill-rule:evenodd;"
points="54719,42280
54719,41719
55280,41719
55280,42280
54719,42280
" /> 
<polyline style="fill-rule:evenodd;"
points="54719,41280
54719,40719
55280,40719
55280,41280
54719,41280
" /> 
<polyline style="fill-rule:evenodd;"
points="54719,40280
54719,39719
55280,39719
55280,40280
54719,40280
" /> 
<polyline style="fill-rule:evenodd;"
points="61719,49280
61719,48719
62280,48719
62280,49280
61719,49280
" /> 
<polyline style="fill-rule:evenodd;"
points="61719,48280
61719,47719
62280,47719
62280,48280
61719,48280
" /> 
<polyline style="fill-rule:evenodd;"
points="61719,47280
61719,46719
62280,46719
62280,47280
61719,47280
" /> 
<polyline style="fill-rule:evenodd;"
points="61719,46280
61719,45719
62280,45719
62280,46280
61719,46280
" /> 
<polyline style="fill-rule:evenodd;"
points="61719,45280
61719,44719
62280,44719
62280,45280
61719,45280
" /> 
<polyline style="fill-rule:evenodd;"
points="61719,44280
61719,43719
62280,43719
62280,44280
61719,44280
" /> 
<polyline style="fill-rule:evenodd;"
points="61719,43280
61719,42719
62280,42719
62280,43280
61719,43280
" /> 
<polyline style="fill-rule:evenodd;"
points="61719,42280
61719,41719
62280,41719
62280,42280
61719,42280
" /> 
<polyline style="fill-rule:evenodd;"
points="61719,41280
61719,40719
62280,40719
62280,41280
61719,41280
" /> 
<polyline style="fill-rule:evenodd;"
points="61719,40280
61719,39719
62280,39719
62280,40280
61719,40280
" /> 
<circle cx="53543.3" cy="39708.7" r="570.866" /> 
<circle cx="63385.8" cy="39708.7" r="570.866" /> 
<circle cx="53543.3" cy="49944.9" r="570.866" /> 
<circle cx="63385.8" cy="49944.9" r="570.866" /> 
<circle cx="54133.9" cy="41340.2" r="346.315" /> 
<circle cx="54133.9" cy="42127.6" r="346.315" /> 
<circle cx="54133.9" cy="42915" r="346.315" /> 
<circle cx="54133.9" cy="43702.4" r="346.315" /> 
<circle cx="54133.9" cy="44489.8" r="346.315" /> 
<circle cx="54133.9" cy="45277.2" r="346.315" /> 
<circle cx="54133.9" cy="46064.6" r="346.315" /> 
<circle cx="54133.9" cy="46852" r="346.315" /> 
<circle cx="54133.9" cy="47639.4" r="346.315" /> 
<circle cx="54133.9" cy="48426.8" r="346.315" /> 
<circle cx="62795.3" cy="48426.8" r="346.315" /> 
<circle cx="62795.3" cy="47639.4" r="346.315" /> 
<circle cx="62795.3" cy="46852" r="346.315" /> 
<circle cx="62795.3" cy="46064.6" r="346.315" /> 
<circle cx="62795.3" cy="45277.2" r="346.315" /> 
<circle cx="62795.3" cy="44489.8" r="346.315" /> 
<circle cx="62795.3" cy="43702.4" r="346.315" /> 
<circle cx="62795.3" cy="42915" r="346.315" /> 
<circle cx="62795.3" cy="42127.6" r="346.315" /> 
<circle cx="62795.3" cy="41340.2" r="346.315" /> 
<circle cx="61000" cy="49000" r="346.315" /> 
<circle cx="60000" cy="49000" r="346.315" /> 
<circle cx="59000" cy="49000" r="346.315" /> 
<circle cx="59000" cy="48000" r="346.315" /> 
<circle cx="58000" cy="48000" r="346.315" /> 
<circle cx="58000" cy="49000" r="346.315" /> 
<circle cx="57000" cy="48000" r="346.315" /> 
<circle cx="56000" cy="48000" r="346.315" /> 
<circle cx="56000" cy="49000" r="346.315" /> 
<circle cx="57000" cy="49000" r="346.315" /> 
<circle cx="61000" cy="47000" r="346.315" /> 
<circle cx="60000" cy="47000" r="346.315" /> 
<circle cx="59000" cy="47000" r="346.315" /> 
<circle cx="58000" cy="47000" r="346.315" /> 
<circle cx="57000" cy="47000" r="346.315" /> 
<circle cx="56000" cy="47000" r="346.315" /> 
<circle cx="61000" cy="46000" r="346.315" /> 
<circle cx="58000" cy="46000" r="346.315" /> 
<circle cx="61000" cy="44000" r="346.315" /> 
<circle cx="56000" cy="43000" r="346.315" /> 
<circle cx="58000" cy="44000" r="346.315" /> 
<circle cx="57000" cy="44000" r="346.315" /> 
<circle cx="58000" cy="43000" r="346.315" /> 
<circle cx="57000" cy="43000" r="346.315" /> 
<circle cx="57000" cy="46000" r="346.315" /> 
<circle cx="60000" cy="44000" r="346.315" /> 
<circle cx="59000" cy="44000" r="346.315" /> 
<circle cx="60000" cy="46000" r="346.315" /> 
<circle cx="56000" cy="44000" r="346.315" /> 
<circle cx="59000" cy="46000" r="346.315" /> 
<circle cx="56000" cy="46000" r="346.315" /> 
<circle cx="61000" cy="45000" r="346.315" /> 
<circle cx="59000" cy="43000" r="346.315" /> 
<circle cx="59000" cy="45000" r="346.315" /> 
<circle cx="56000" cy="45000" r="346.315" /> 
<circle cx="60000" cy="45000" r="346.315" /> 
<circle cx="57000" cy="45000" r="346.315" /> 
<circle cx="61000" cy="48000" r="346.315" /> 
<circle cx="60000" cy="48000" r="346.315" /> 
<circle cx="58000" cy="45000" r="346.315" /> 
<circle cx="60000" cy="43000" r="346.315" /> 
<circle cx="57000" cy="41000" r="346.315" /> 
<circle cx="60000" cy="40000" r="346.315" /> 
<circle cx="58000" cy="40000" r="346.315" /> 
<circle cx="56000" cy="40000" r="346.315" /> 
<circle cx="56000" cy="41000" r="346.315" /> 
<circle cx="56000" cy="42000" r="346.315" /> 
<circle cx="61000" cy="43000" r="346.315" /> 
<circle cx="58000" cy="41000" r="346.315" /> 
<circle cx="61000" cy="40000" r="346.315" /> 
<circle cx="57000" cy="40000" r="346.315" /> 
<circle cx="59000" cy="41000" r="346.315" /> 
<circle cx="60000" cy="41000" r="346.315" /> 
<circle cx="57000" cy="42000" r="346.315" /> 
<circle cx="61000" cy="41000" r="346.315" /> 
<circle cx="61000" cy="42000" r="346.315" /> 
<circle cx="59000" cy="40000" r="346.315" /> 
<circle cx="59000" cy="42000" r="346.315" /> 
<circle cx="58000" cy="42000" r="346.315" /> 
<circle cx="60000" cy="42000" r="346.315" /> 
</g>
<g style="fill:#FFFFFF; fill-opacity:1.0; 
stroke:#FFFFFF; stroke-width:39.3701; stroke-opacity:1; 
stroke-linecap:round; stroke-linejoin:round;">
<circle cx="55000" cy="49000" r="180.315" /> 
<circle cx="55000" cy="48000" r="180.315" /> 
<circle cx="55000" cy="47000" r="180.315" /> 
<circle cx="55000" cy="46000" r="180.315" /> 
<circle cx="55000" cy="45000" r="180.315" /> 
<circle cx="55000" cy="44000" r="180.315" /> 
<circle cx="55000" cy="43000" r="180.315" /> 
<circle cx="55000" cy="42000" r="180.315" /> 
<circle cx="55000" cy="41000" r="180.315" /> 
<circle cx="55000" cy="40000" r="180.315" /> 
<circle cx="62000" cy="49000" r="180.315" /> 
<circle cx="62000" cy="48000" r="180.315" /> 
<circle cx="62000" cy="47000" r="180.315" /> 
<circle cx="62000" cy="46000" r="180.315" /> 
<circle cx="62000" cy="45000" r="180.315" /> 
<circle cx="62000" cy="44000" r="180.315" /> 
<circle cx="62000" cy="43000" r="180.315" /> 
<circle cx="62000" cy="42000" r="180.315" /> 
<circle cx="62000" cy="41000" r="180.315" /> 
<circle cx="62000" cy="40000" r="180.315" /> 
<circle cx="53543.3" cy="39708.7" r="570.866" /> 
<circle cx="63385.8" cy="39708.7" r="570.866" /> 
<circle cx="53543.3" cy="49944.9" r="570.866" /> 
<circle cx="63385.8" cy="49944.9" r="570.866" /> 
<circle cx="54133.9" cy="41340.2" r="140.315" /> 
<circle cx="54133.9" cy="42127.6" r="140.315" /> 
<circle cx="54133.9" cy="42915" r="140.315" /> 
<circle cx="54133.9" cy="43702.4" r="140.315" /> 
<circle cx="54133.9" cy="44489.8" r="140.315" /> 
<circle cx="54133.9" cy="45277.2" r="140.315" /> 
<circle cx="54133.9" cy="46064.6" r="140.315" /> 
<circle cx="54133.9" cy="46852" r="140.315" /> 
<circle cx="54133.9" cy="47639.4" r="140.315" /> 
<circle cx="54133.9" cy="48426.8" r="140.315" /> 
<circle cx="62795.3" cy="48426.8" r="140.315" /> 
<circle cx="62795.3" cy="47639.4" r="140.315" /> 
<circle cx="62795.3" cy="46852" r="140.315" /> 
<circle cx="62795.3" cy="46064.6" r="140.315" /> 
<circle cx="62795.3" cy="45277.2" r="140.315" /> 
<circle cx="62795.3" cy="44489.8" r="140.315" /> 
<circle cx="62795.3" cy="43702.4" r="140.315" /> 
<circle cx="62795.3" cy="42915" r="140.315" /> 
<circle cx="62795.3" cy="42127.6" r="140.315" /> 
<circle cx="62795.3" cy="41340.2" r="140.315" /> 
<circle cx="61000" cy="49000" r="140.315" /> 
<circle cx="60000" cy="49000" r="140.315" /> 
<circle cx="59000" cy="49000" r="140.315" /> 
<circle cx="59000" cy="48000" r="140.315" /> 
<circle cx="58000" cy="48000" r="140.315" /> 
<circle cx="58000" cy="49000" r="140.315" /> 
<circle cx="57000" cy="48000" r="140.315" /> 
<circle cx="56000" cy="48000" r="140.315" /> 
<circle cx="56000" cy="49000" r="140.315" /> 
<circle cx="57000" cy="49000" r="140.315" /> 
<circle cx="61000" cy="47000" r="140.315" /> 
<circle cx="60000" cy="47000" r="140.315" /> 
<circle cx="59000" cy="47000" r="140.315" /> 
<circle cx="58000" cy="47000" r="140.315" /> 
<circle cx="57000" cy="47000" r="140.315" /> 
<circle cx="56000" cy="47000" r="140.315" /> 
<circle cx="61000" cy="46000" r="140.315" /> 
<circle cx="58000" cy="46000" r="140.315" /> 
<circle cx="61000" cy="44000" r="140.315" /> 
<circle cx="56000" cy="43000" r="140.315" /> 
<circle cx="58000" cy="44000" r="140.315" /> 
<circle cx="57000" cy="44000" r="140.315" /> 
<circle cx="58000" cy="43000" r="140.315" /> 
<circle cx="57000" cy="43000" r="140.315" /> 
<circle cx="57000" cy="46000" r="140.315" /> 
<circle cx="60000" cy="44000" r="140.315" /> 
<circle cx="59000" cy="44000" r="140.315" /> 
<circle cx="60000" cy="46000" r="140.315" /> 
<circle cx="56000" cy="44000" r="140.315" /> 
<circle cx="59000" cy="46000" r="140.315" /> 
<circle cx="56000" cy="46000" r="140.315" /> 
<circle cx="61000" cy="45000" r="140.315" /> 
<circle cx="59000" cy="43000" r="140.315" /> 
<circle cx="59000" cy="45000" r="140.315" /> 
<circle cx="56000" cy="45000" r="140.315" /> 
<circle cx="60000" cy="45000" r="140.315" /> 
<circle cx="57000" cy="45000" r="140.315" /> 
<circle cx="61000" cy="48000" r="140.315" /> 
<circle cx="60000" cy="48000" r="140.315" /> 
<circle cx="58000" cy="45000" r="140.315" /> 
<circle cx="60000" cy="43000" r="140.315" /> 
<circle cx="57000" cy="41000" r="140.315" /> 
<circle cx="60000" cy="40000" r="140.315" /> 
<circle cx="58000" cy="40000" r="140.315" /> 
<circle cx="56000" cy="40000" r="140.315" /> 
<circle cx="56000" cy="41000" r="140.315" /> 
<circle cx="56000" cy="42000" r="140.315" /> 
<circle cx="61000" cy="43000" r="140.315" /> 
<circle cx="58000" cy="41000" r="140.315" /> 
<circle cx="61000" cy="40000" r="140.315" /> 
<circle cx="57000" cy="40000" r="140.315" /> 
<circle cx="59000" cy="41000" r="140.315" /> 
<circle cx="60000" cy="41000" r="140.315" /> 
<circle cx="57000" cy="42000" r="140.315" /> 
<circle cx="61000" cy="41000" r="140.315" /> 
<circle cx="61000" cy="42000" r="140.315" /> 
<circle cx="59000" cy="40000" r="140.315" /> 
<circle cx="59000" cy="42000" r="140.315" /> 
<circle cx="58000" cy="42000" r="140.315" /> 
<circle cx="60000" cy="42000" r="140.315" /> 
</g> 
</svg>
