%FSLAX34Y34*%
G04 Gerber Fmt 3.4, Leading zero omitted, Abs format*
G04 (created by PCBNEW (2013-11-26 BZR 4502)-product) date Wed 27 Nov 2013 13:40:40 EST*
%MOIN*%
G01*
G70*
G90*
G04 APERTURE LIST*
%ADD10C,0.005000*%
%ADD11C,0.003937*%
%ADD12C,0.007874*%
%ADD13C,0.011811*%
G04 APERTURE END LIST*
G54D10*
G54D11*
X11913Y12464D02*
X11913Y23D01*
X23Y12464D02*
X11913Y12464D01*
X23Y23D02*
X23Y12464D01*
X11913Y23D02*
X23Y23D01*
G54D12*
X47Y6592D02*
X322Y6317D01*
X322Y6592D02*
X47Y6317D01*
X755Y6596D02*
X1031Y6321D01*
X1031Y6596D02*
X755Y6321D01*
X699Y9321D02*
G75*
G03X699Y9321I-160J0D01*
G74*
G01*
X699Y8321D02*
G75*
G03X699Y8321I-160J0D01*
G74*
G01*
X1797Y9608D02*
G75*
G03X1797Y9608I-160J0D01*
G74*
G01*
X1797Y8821D02*
G75*
G03X1797Y8821I-160J0D01*
G74*
G01*
X1797Y8033D02*
G75*
G03X1797Y8033I-160J0D01*
G74*
G01*
X1797Y7246D02*
G75*
G03X1797Y7246I-160J0D01*
G74*
G01*
X1797Y6459D02*
G75*
G03X1797Y6459I-160J0D01*
G74*
G01*
X1797Y5671D02*
G75*
G03X1797Y5671I-160J0D01*
G74*
G01*
X1797Y4884D02*
G75*
G03X1797Y4884I-160J0D01*
G74*
G01*
X1797Y4096D02*
G75*
G03X1797Y4096I-160J0D01*
G74*
G01*
X1797Y3309D02*
G75*
G03X1797Y3309I-160J0D01*
G74*
G01*
X1797Y2522D02*
G75*
G03X1797Y2522I-160J0D01*
G74*
G01*
X3663Y11548D02*
G75*
G03X3663Y11548I-160J0D01*
G74*
G01*
X3663Y10548D02*
G75*
G03X3663Y10548I-160J0D01*
G74*
G01*
X3663Y9548D02*
G75*
G03X3663Y9548I-160J0D01*
G74*
G01*
X3663Y8548D02*
G75*
G03X3663Y8548I-160J0D01*
G74*
G01*
X3663Y7548D02*
G75*
G03X3663Y7548I-160J0D01*
G74*
G01*
X3663Y6548D02*
G75*
G03X3663Y6548I-160J0D01*
G74*
G01*
X3663Y5548D02*
G75*
G03X3663Y5548I-160J0D01*
G74*
G01*
X3663Y4548D02*
G75*
G03X3663Y4548I-160J0D01*
G74*
G01*
X3663Y3548D02*
G75*
G03X3663Y3548I-160J0D01*
G74*
G01*
X3663Y2548D02*
G75*
G03X3663Y2548I-160J0D01*
G74*
G01*
X3663Y1548D02*
G75*
G03X3663Y1548I-160J0D01*
G74*
G01*
X3663Y548D02*
G75*
G03X3663Y548I-160J0D01*
G74*
G01*
X4663Y11548D02*
G75*
G03X4663Y11548I-160J0D01*
G74*
G01*
X4663Y10548D02*
G75*
G03X4663Y10548I-160J0D01*
G74*
G01*
X4663Y9548D02*
G75*
G03X4663Y9548I-160J0D01*
G74*
G01*
X4663Y8548D02*
G75*
G03X4663Y8548I-160J0D01*
G74*
G01*
X4663Y7548D02*
G75*
G03X4663Y7548I-160J0D01*
G74*
G01*
X4663Y6548D02*
G75*
G03X4663Y6548I-160J0D01*
G74*
G01*
X4663Y5548D02*
G75*
G03X4663Y5548I-160J0D01*
G74*
G01*
X4663Y4548D02*
G75*
G03X4663Y4548I-160J0D01*
G74*
G01*
X4663Y3548D02*
G75*
G03X4663Y3548I-160J0D01*
G74*
G01*
X4663Y2548D02*
G75*
G03X4663Y2548I-160J0D01*
G74*
G01*
X4663Y1548D02*
G75*
G03X4663Y1548I-160J0D01*
G74*
G01*
X4663Y548D02*
G75*
G03X4663Y548I-160J0D01*
G74*
G01*
X5663Y11548D02*
G75*
G03X5663Y11548I-160J0D01*
G74*
G01*
X5663Y10548D02*
G75*
G03X5663Y10548I-160J0D01*
G74*
G01*
X5663Y9548D02*
G75*
G03X5663Y9548I-160J0D01*
G74*
G01*
X5663Y8548D02*
G75*
G03X5663Y8548I-160J0D01*
G74*
G01*
X5663Y7548D02*
G75*
G03X5663Y7548I-160J0D01*
G74*
G01*
X5663Y6548D02*
G75*
G03X5663Y6548I-160J0D01*
G74*
G01*
X5663Y5548D02*
G75*
G03X5663Y5548I-160J0D01*
G74*
G01*
X5663Y4548D02*
G75*
G03X5663Y4548I-160J0D01*
G74*
G01*
X5663Y3548D02*
G75*
G03X5663Y3548I-160J0D01*
G74*
G01*
X5663Y2548D02*
G75*
G03X5663Y2548I-160J0D01*
G74*
G01*
X5663Y1548D02*
G75*
G03X5663Y1548I-160J0D01*
G74*
G01*
X5663Y548D02*
G75*
G03X5663Y548I-160J0D01*
G74*
G01*
X6663Y11548D02*
G75*
G03X6663Y11548I-160J0D01*
G74*
G01*
X6663Y10548D02*
G75*
G03X6663Y10548I-160J0D01*
G74*
G01*
X6663Y9548D02*
G75*
G03X6663Y9548I-160J0D01*
G74*
G01*
X6663Y8548D02*
G75*
G03X6663Y8548I-160J0D01*
G74*
G01*
X6663Y7548D02*
G75*
G03X6663Y7548I-160J0D01*
G74*
G01*
X6663Y6548D02*
G75*
G03X6663Y6548I-160J0D01*
G74*
G01*
X6663Y5548D02*
G75*
G03X6663Y5548I-160J0D01*
G74*
G01*
X6663Y4548D02*
G75*
G03X6663Y4548I-160J0D01*
G74*
G01*
X6663Y3548D02*
G75*
G03X6663Y3548I-160J0D01*
G74*
G01*
X6663Y2548D02*
G75*
G03X6663Y2548I-160J0D01*
G74*
G01*
X6663Y1548D02*
G75*
G03X6663Y1548I-160J0D01*
G74*
G01*
X6663Y548D02*
G75*
G03X6663Y548I-160J0D01*
G74*
G01*
X7663Y11548D02*
G75*
G03X7663Y11548I-160J0D01*
G74*
G01*
X7663Y10548D02*
G75*
G03X7663Y10548I-160J0D01*
G74*
G01*
X7663Y9548D02*
G75*
G03X7663Y9548I-160J0D01*
G74*
G01*
X7663Y8548D02*
G75*
G03X7663Y8548I-160J0D01*
G74*
G01*
X7663Y7548D02*
G75*
G03X7663Y7548I-160J0D01*
G74*
G01*
X7663Y6548D02*
G75*
G03X7663Y6548I-160J0D01*
G74*
G01*
X7663Y5548D02*
G75*
G03X7663Y5548I-160J0D01*
G74*
G01*
X7663Y4548D02*
G75*
G03X7663Y4548I-160J0D01*
G74*
G01*
X7663Y3548D02*
G75*
G03X7663Y3548I-160J0D01*
G74*
G01*
X7663Y2548D02*
G75*
G03X7663Y2548I-160J0D01*
G74*
G01*
X7663Y1548D02*
G75*
G03X7663Y1548I-160J0D01*
G74*
G01*
X7663Y548D02*
G75*
G03X7663Y548I-160J0D01*
G74*
G01*
X8663Y11548D02*
G75*
G03X8663Y11548I-160J0D01*
G74*
G01*
X8663Y10548D02*
G75*
G03X8663Y10548I-160J0D01*
G74*
G01*
X8663Y9548D02*
G75*
G03X8663Y9548I-160J0D01*
G74*
G01*
X8663Y8548D02*
G75*
G03X8663Y8548I-160J0D01*
G74*
G01*
X8663Y7548D02*
G75*
G03X8663Y7548I-160J0D01*
G74*
G01*
X8663Y6548D02*
G75*
G03X8663Y6548I-160J0D01*
G74*
G01*
X8663Y5548D02*
G75*
G03X8663Y5548I-160J0D01*
G74*
G01*
X8663Y4548D02*
G75*
G03X8663Y4548I-160J0D01*
G74*
G01*
X8663Y3548D02*
G75*
G03X8663Y3548I-160J0D01*
G74*
G01*
X8663Y2548D02*
G75*
G03X8663Y2548I-160J0D01*
G74*
G01*
X8663Y1548D02*
G75*
G03X8663Y1548I-160J0D01*
G74*
G01*
X8663Y548D02*
G75*
G03X8663Y548I-160J0D01*
G74*
G01*
X10459Y9608D02*
G75*
G03X10459Y9608I-160J0D01*
G74*
G01*
X10459Y8821D02*
G75*
G03X10459Y8821I-160J0D01*
G74*
G01*
X10459Y8033D02*
G75*
G03X10459Y8033I-160J0D01*
G74*
G01*
X10459Y7246D02*
G75*
G03X10459Y7246I-160J0D01*
G74*
G01*
X10459Y6459D02*
G75*
G03X10459Y6459I-160J0D01*
G74*
G01*
X10459Y5671D02*
G75*
G03X10459Y5671I-160J0D01*
G74*
G01*
X10459Y4884D02*
G75*
G03X10459Y4884I-160J0D01*
G74*
G01*
X10459Y4096D02*
G75*
G03X10459Y4096I-160J0D01*
G74*
G01*
X10459Y3309D02*
G75*
G03X10459Y3309I-160J0D01*
G74*
G01*
X10459Y2522D02*
G75*
G03X10459Y2522I-160J0D01*
G74*
G01*
X2503Y10748D02*
X2503Y10348D01*
X2303Y10548D02*
X2703Y10548D01*
X2503Y9748D02*
X2503Y9348D01*
X2303Y9548D02*
X2703Y9548D01*
X2503Y8748D02*
X2503Y8348D01*
X2303Y8548D02*
X2703Y8548D01*
X2503Y7748D02*
X2503Y7348D01*
X2303Y7548D02*
X2703Y7548D01*
X2503Y6748D02*
X2503Y6348D01*
X2303Y6548D02*
X2703Y6548D01*
X2503Y5748D02*
X2503Y5348D01*
X2303Y5548D02*
X2703Y5548D01*
X2503Y4748D02*
X2503Y4348D01*
X2303Y4548D02*
X2703Y4548D01*
X2503Y3748D02*
X2503Y3348D01*
X2303Y3548D02*
X2703Y3548D01*
X2503Y2748D02*
X2503Y2348D01*
X2303Y2548D02*
X2703Y2548D01*
X2503Y1748D02*
X2503Y1348D01*
X2303Y1548D02*
X2703Y1548D01*
X9503Y10748D02*
X9503Y10348D01*
X9303Y10548D02*
X9703Y10548D01*
X9503Y9748D02*
X9503Y9348D01*
X9303Y9548D02*
X9703Y9548D01*
X9503Y8748D02*
X9503Y8348D01*
X9303Y8548D02*
X9703Y8548D01*
X9503Y7748D02*
X9503Y7348D01*
X9303Y7548D02*
X9703Y7548D01*
X9503Y6748D02*
X9503Y6348D01*
X9303Y6548D02*
X9703Y6548D01*
X9503Y5748D02*
X9503Y5348D01*
X9303Y5548D02*
X9703Y5548D01*
X9503Y4748D02*
X9503Y4348D01*
X9303Y4548D02*
X9703Y4548D01*
X9503Y3748D02*
X9503Y3348D01*
X9303Y3548D02*
X9703Y3548D01*
X9503Y2748D02*
X9503Y2348D01*
X9303Y2548D02*
X9703Y2548D01*
X9503Y1748D02*
X9503Y1348D01*
X9303Y1548D02*
X9703Y1548D01*
X1464Y10822D02*
X1464Y11657D01*
X629Y11657D01*
X629Y10822D01*
X1464Y10822D01*
X1464Y586D02*
X1464Y1421D01*
X629Y1421D01*
X629Y586D01*
X1464Y586D01*
X11307Y10822D02*
X11307Y11657D01*
X10472Y11657D01*
X10472Y10822D01*
X11307Y10822D01*
X11307Y586D02*
X11307Y1421D01*
X10472Y1421D01*
X10472Y586D01*
X11307Y586D01*
G54D13*
X1072Y-1829D02*
X1072Y-648D01*
X1353Y-648D01*
X1522Y-704D01*
X1634Y-817D01*
X1691Y-929D01*
X1747Y-1154D01*
X1747Y-1323D01*
X1691Y-1548D01*
X1634Y-1660D01*
X1522Y-1773D01*
X1353Y-1829D01*
X1072Y-1829D01*
X2253Y-1829D02*
X2253Y-1042D01*
X2253Y-1267D02*
X2309Y-1154D01*
X2366Y-1098D01*
X2478Y-1042D01*
X2591Y-1042D01*
X2984Y-1829D02*
X2984Y-1042D01*
X2984Y-648D02*
X2928Y-704D01*
X2984Y-760D01*
X3041Y-704D01*
X2984Y-648D01*
X2984Y-760D01*
X3715Y-1829D02*
X3603Y-1773D01*
X3547Y-1660D01*
X3547Y-648D01*
X4334Y-1829D02*
X4222Y-1773D01*
X4165Y-1660D01*
X4165Y-648D01*
X5684Y-1829D02*
X5684Y-648D01*
X6078Y-1492D01*
X6471Y-648D01*
X6471Y-1829D01*
X7540Y-1829D02*
X7540Y-1210D01*
X7484Y-1098D01*
X7371Y-1042D01*
X7146Y-1042D01*
X7034Y-1098D01*
X7540Y-1773D02*
X7428Y-1829D01*
X7146Y-1829D01*
X7034Y-1773D01*
X6978Y-1660D01*
X6978Y-1548D01*
X7034Y-1435D01*
X7146Y-1379D01*
X7428Y-1379D01*
X7540Y-1323D01*
X8102Y-1042D02*
X8102Y-2223D01*
X8102Y-1098D02*
X8215Y-1042D01*
X8440Y-1042D01*
X8552Y-1098D01*
X8609Y-1154D01*
X8665Y-1267D01*
X8665Y-1604D01*
X8609Y-1717D01*
X8552Y-1773D01*
X8440Y-1829D01*
X8215Y-1829D01*
X8102Y-1773D01*
X9171Y-1717D02*
X9227Y-1773D01*
X9171Y-1829D01*
X9115Y-1773D01*
X9171Y-1717D01*
X9171Y-1829D01*
X9171Y-1098D02*
X9227Y-1154D01*
X9171Y-1210D01*
X9115Y-1154D01*
X9171Y-1098D01*
X9171Y-1210D01*
X-271Y-3637D02*
X3Y-3913D01*
X3Y-3637D02*
X-271Y-3913D01*
X1297Y-3128D02*
X1410Y-3128D01*
X1522Y-3185D01*
X1578Y-3241D01*
X1634Y-3353D01*
X1691Y-3578D01*
X1691Y-3859D01*
X1634Y-4084D01*
X1578Y-4197D01*
X1522Y-4253D01*
X1410Y-4309D01*
X1297Y-4309D01*
X1185Y-4253D01*
X1128Y-4197D01*
X1072Y-4084D01*
X1016Y-3859D01*
X1016Y-3578D01*
X1072Y-3353D01*
X1128Y-3241D01*
X1185Y-3185D01*
X1297Y-3128D01*
X2197Y-4197D02*
X2253Y-4253D01*
X2197Y-4309D01*
X2141Y-4253D01*
X2197Y-4197D01*
X2197Y-4309D01*
X2647Y-3128D02*
X3434Y-3128D01*
X2928Y-4309D01*
X4109Y-3128D02*
X4222Y-3128D01*
X4334Y-3185D01*
X4390Y-3241D01*
X4447Y-3353D01*
X4503Y-3578D01*
X4503Y-3859D01*
X4447Y-4084D01*
X4390Y-4197D01*
X4334Y-4253D01*
X4222Y-4309D01*
X4109Y-4309D01*
X3997Y-4253D01*
X3940Y-4197D01*
X3884Y-4084D01*
X3828Y-3859D01*
X3828Y-3578D01*
X3884Y-3353D01*
X3940Y-3241D01*
X3997Y-3185D01*
X4109Y-3128D01*
X5009Y-4309D02*
X5009Y-3522D01*
X5009Y-3634D02*
X5065Y-3578D01*
X5178Y-3522D01*
X5347Y-3522D01*
X5459Y-3578D01*
X5515Y-3691D01*
X5515Y-4309D01*
X5515Y-3691D02*
X5571Y-3578D01*
X5684Y-3522D01*
X5853Y-3522D01*
X5965Y-3578D01*
X6021Y-3691D01*
X6021Y-4309D01*
X6584Y-4309D02*
X6584Y-3522D01*
X6584Y-3634D02*
X6640Y-3578D01*
X6753Y-3522D01*
X6921Y-3522D01*
X7034Y-3578D01*
X7090Y-3691D01*
X7090Y-4309D01*
X7090Y-3691D02*
X7146Y-3578D01*
X7259Y-3522D01*
X7428Y-3522D01*
X7540Y-3578D01*
X7596Y-3691D01*
X7596Y-4309D01*
X9902Y-3072D02*
X8890Y-4591D01*
X11421Y-3128D02*
X11533Y-3128D01*
X11646Y-3185D01*
X11702Y-3241D01*
X11758Y-3353D01*
X11814Y-3578D01*
X11814Y-3859D01*
X11758Y-4084D01*
X11702Y-4197D01*
X11646Y-4253D01*
X11533Y-4309D01*
X11421Y-4309D01*
X11308Y-4253D01*
X11252Y-4197D01*
X11196Y-4084D01*
X11140Y-3859D01*
X11140Y-3578D01*
X11196Y-3353D01*
X11252Y-3241D01*
X11308Y-3185D01*
X11421Y-3128D01*
X12321Y-4197D02*
X12377Y-4253D01*
X12321Y-4309D01*
X12264Y-4253D01*
X12321Y-4197D01*
X12321Y-4309D01*
X13108Y-3128D02*
X13221Y-3128D01*
X13333Y-3185D01*
X13389Y-3241D01*
X13446Y-3353D01*
X13502Y-3578D01*
X13502Y-3859D01*
X13446Y-4084D01*
X13389Y-4197D01*
X13333Y-4253D01*
X13221Y-4309D01*
X13108Y-4309D01*
X12996Y-4253D01*
X12939Y-4197D01*
X12883Y-4084D01*
X12827Y-3859D01*
X12827Y-3578D01*
X12883Y-3353D01*
X12939Y-3241D01*
X12996Y-3185D01*
X13108Y-3128D01*
X13952Y-3241D02*
X14008Y-3185D01*
X14120Y-3128D01*
X14402Y-3128D01*
X14514Y-3185D01*
X14570Y-3241D01*
X14627Y-3353D01*
X14627Y-3466D01*
X14570Y-3634D01*
X13895Y-4309D01*
X14627Y-4309D01*
X15302Y-3634D02*
X15189Y-3578D01*
X15133Y-3522D01*
X15077Y-3410D01*
X15077Y-3353D01*
X15133Y-3241D01*
X15189Y-3185D01*
X15302Y-3128D01*
X15526Y-3128D01*
X15639Y-3185D01*
X15695Y-3241D01*
X15751Y-3353D01*
X15751Y-3410D01*
X15695Y-3522D01*
X15639Y-3578D01*
X15526Y-3634D01*
X15302Y-3634D01*
X15189Y-3691D01*
X15133Y-3747D01*
X15077Y-3859D01*
X15077Y-4084D01*
X15133Y-4197D01*
X15189Y-4253D01*
X15302Y-4309D01*
X15526Y-4309D01*
X15639Y-4253D01*
X15695Y-4197D01*
X15751Y-4084D01*
X15751Y-3859D01*
X15695Y-3747D01*
X15639Y-3691D01*
X15526Y-3634D01*
X16201Y-3128D02*
X16201Y-3353D01*
X16651Y-3128D02*
X16651Y-3353D01*
X18395Y-4759D02*
X18339Y-4703D01*
X18226Y-4534D01*
X18170Y-4422D01*
X18114Y-4253D01*
X18057Y-3972D01*
X18057Y-3747D01*
X18114Y-3466D01*
X18170Y-3297D01*
X18226Y-3185D01*
X18339Y-3016D01*
X18395Y-2960D01*
X18789Y-3241D02*
X18845Y-3185D01*
X18957Y-3128D01*
X19239Y-3128D01*
X19351Y-3185D01*
X19407Y-3241D01*
X19464Y-3353D01*
X19464Y-3466D01*
X19407Y-3634D01*
X18732Y-4309D01*
X19464Y-4309D01*
X20870Y-4309D02*
X20870Y-3128D01*
X21376Y-4309D02*
X21376Y-3691D01*
X21320Y-3578D01*
X21207Y-3522D01*
X21038Y-3522D01*
X20926Y-3578D01*
X20870Y-3634D01*
X22107Y-4309D02*
X21994Y-4253D01*
X21938Y-4197D01*
X21882Y-4084D01*
X21882Y-3747D01*
X21938Y-3634D01*
X21994Y-3578D01*
X22107Y-3522D01*
X22276Y-3522D01*
X22388Y-3578D01*
X22444Y-3634D01*
X22501Y-3747D01*
X22501Y-4084D01*
X22444Y-4197D01*
X22388Y-4253D01*
X22276Y-4309D01*
X22107Y-4309D01*
X23176Y-4309D02*
X23063Y-4253D01*
X23007Y-4141D01*
X23007Y-3128D01*
X24075Y-4253D02*
X23963Y-4309D01*
X23738Y-4309D01*
X23625Y-4253D01*
X23569Y-4141D01*
X23569Y-3691D01*
X23625Y-3578D01*
X23738Y-3522D01*
X23963Y-3522D01*
X24075Y-3578D01*
X24132Y-3691D01*
X24132Y-3803D01*
X23569Y-3916D01*
X24582Y-4253D02*
X24694Y-4309D01*
X24919Y-4309D01*
X25032Y-4253D01*
X25088Y-4141D01*
X25088Y-4084D01*
X25032Y-3972D01*
X24919Y-3916D01*
X24750Y-3916D01*
X24638Y-3859D01*
X24582Y-3747D01*
X24582Y-3691D01*
X24638Y-3578D01*
X24750Y-3522D01*
X24919Y-3522D01*
X25032Y-3578D01*
X25482Y-4759D02*
X25538Y-4703D01*
X25650Y-4534D01*
X25706Y-4422D01*
X25763Y-4253D01*
X25819Y-3972D01*
X25819Y-3747D01*
X25763Y-3466D01*
X25706Y-3297D01*
X25650Y-3185D01*
X25538Y-3016D01*
X25482Y-2960D01*
G54D12*
X3Y-5334D02*
G75*
G03X3Y-5334I-160J0D01*
G74*
G01*
G54D13*
X1297Y-4687D02*
X1410Y-4687D01*
X1522Y-4744D01*
X1578Y-4800D01*
X1634Y-4912D01*
X1691Y-5137D01*
X1691Y-5419D01*
X1634Y-5643D01*
X1578Y-5756D01*
X1522Y-5812D01*
X1410Y-5868D01*
X1297Y-5868D01*
X1185Y-5812D01*
X1128Y-5756D01*
X1072Y-5643D01*
X1016Y-5419D01*
X1016Y-5137D01*
X1072Y-4912D01*
X1128Y-4800D01*
X1185Y-4744D01*
X1297Y-4687D01*
X2197Y-5756D02*
X2253Y-5812D01*
X2197Y-5868D01*
X2141Y-5812D01*
X2197Y-5756D01*
X2197Y-5868D01*
X2928Y-5194D02*
X2816Y-5137D01*
X2759Y-5081D01*
X2703Y-4969D01*
X2703Y-4912D01*
X2759Y-4800D01*
X2816Y-4744D01*
X2928Y-4687D01*
X3153Y-4687D01*
X3266Y-4744D01*
X3322Y-4800D01*
X3378Y-4912D01*
X3378Y-4969D01*
X3322Y-5081D01*
X3266Y-5137D01*
X3153Y-5194D01*
X2928Y-5194D01*
X2816Y-5250D01*
X2759Y-5306D01*
X2703Y-5419D01*
X2703Y-5643D01*
X2759Y-5756D01*
X2816Y-5812D01*
X2928Y-5868D01*
X3153Y-5868D01*
X3266Y-5812D01*
X3322Y-5756D01*
X3378Y-5643D01*
X3378Y-5419D01*
X3322Y-5306D01*
X3266Y-5250D01*
X3153Y-5194D01*
X4503Y-5868D02*
X3828Y-5868D01*
X4165Y-5868D02*
X4165Y-4687D01*
X4053Y-4856D01*
X3940Y-4969D01*
X3828Y-5025D01*
X5009Y-5868D02*
X5009Y-5081D01*
X5009Y-5194D02*
X5065Y-5137D01*
X5178Y-5081D01*
X5347Y-5081D01*
X5459Y-5137D01*
X5515Y-5250D01*
X5515Y-5868D01*
X5515Y-5250D02*
X5571Y-5137D01*
X5684Y-5081D01*
X5853Y-5081D01*
X5965Y-5137D01*
X6021Y-5250D01*
X6021Y-5868D01*
X6584Y-5868D02*
X6584Y-5081D01*
X6584Y-5194D02*
X6640Y-5137D01*
X6753Y-5081D01*
X6921Y-5081D01*
X7034Y-5137D01*
X7090Y-5250D01*
X7090Y-5868D01*
X7090Y-5250D02*
X7146Y-5137D01*
X7259Y-5081D01*
X7428Y-5081D01*
X7540Y-5137D01*
X7596Y-5250D01*
X7596Y-5868D01*
X9902Y-4631D02*
X8890Y-6150D01*
X11421Y-4687D02*
X11533Y-4687D01*
X11646Y-4744D01*
X11702Y-4800D01*
X11758Y-4912D01*
X11814Y-5137D01*
X11814Y-5419D01*
X11758Y-5643D01*
X11702Y-5756D01*
X11646Y-5812D01*
X11533Y-5868D01*
X11421Y-5868D01*
X11308Y-5812D01*
X11252Y-5756D01*
X11196Y-5643D01*
X11140Y-5419D01*
X11140Y-5137D01*
X11196Y-4912D01*
X11252Y-4800D01*
X11308Y-4744D01*
X11421Y-4687D01*
X12321Y-5756D02*
X12377Y-5812D01*
X12321Y-5868D01*
X12264Y-5812D01*
X12321Y-5756D01*
X12321Y-5868D01*
X13108Y-4687D02*
X13221Y-4687D01*
X13333Y-4744D01*
X13389Y-4800D01*
X13446Y-4912D01*
X13502Y-5137D01*
X13502Y-5419D01*
X13446Y-5643D01*
X13389Y-5756D01*
X13333Y-5812D01*
X13221Y-5868D01*
X13108Y-5868D01*
X12996Y-5812D01*
X12939Y-5756D01*
X12883Y-5643D01*
X12827Y-5419D01*
X12827Y-5137D01*
X12883Y-4912D01*
X12939Y-4800D01*
X12996Y-4744D01*
X13108Y-4687D01*
X13895Y-4687D02*
X14627Y-4687D01*
X14233Y-5137D01*
X14402Y-5137D01*
X14514Y-5194D01*
X14570Y-5250D01*
X14627Y-5362D01*
X14627Y-5643D01*
X14570Y-5756D01*
X14514Y-5812D01*
X14402Y-5868D01*
X14064Y-5868D01*
X13952Y-5812D01*
X13895Y-5756D01*
X15077Y-4800D02*
X15133Y-4744D01*
X15245Y-4687D01*
X15526Y-4687D01*
X15639Y-4744D01*
X15695Y-4800D01*
X15751Y-4912D01*
X15751Y-5025D01*
X15695Y-5194D01*
X15020Y-5868D01*
X15751Y-5868D01*
X16201Y-4687D02*
X16201Y-4912D01*
X16651Y-4687D02*
X16651Y-4912D01*
X18395Y-6318D02*
X18339Y-6262D01*
X18226Y-6093D01*
X18170Y-5981D01*
X18114Y-5812D01*
X18057Y-5531D01*
X18057Y-5306D01*
X18114Y-5025D01*
X18170Y-4856D01*
X18226Y-4744D01*
X18339Y-4575D01*
X18395Y-4519D01*
X18901Y-5868D02*
X19126Y-5868D01*
X19239Y-5812D01*
X19295Y-5756D01*
X19407Y-5587D01*
X19464Y-5362D01*
X19464Y-4912D01*
X19407Y-4800D01*
X19351Y-4744D01*
X19239Y-4687D01*
X19014Y-4687D01*
X18901Y-4744D01*
X18845Y-4800D01*
X18789Y-4912D01*
X18789Y-5194D01*
X18845Y-5306D01*
X18901Y-5362D01*
X19014Y-5419D01*
X19239Y-5419D01*
X19351Y-5362D01*
X19407Y-5306D01*
X19464Y-5194D01*
X20476Y-5081D02*
X20476Y-5868D01*
X20195Y-4631D02*
X19913Y-5475D01*
X20645Y-5475D01*
X21994Y-5868D02*
X21994Y-4687D01*
X22501Y-5868D02*
X22501Y-5250D01*
X22444Y-5137D01*
X22332Y-5081D01*
X22163Y-5081D01*
X22051Y-5137D01*
X21994Y-5194D01*
X23232Y-5868D02*
X23119Y-5812D01*
X23063Y-5756D01*
X23007Y-5643D01*
X23007Y-5306D01*
X23063Y-5194D01*
X23119Y-5137D01*
X23232Y-5081D01*
X23401Y-5081D01*
X23513Y-5137D01*
X23569Y-5194D01*
X23625Y-5306D01*
X23625Y-5643D01*
X23569Y-5756D01*
X23513Y-5812D01*
X23401Y-5868D01*
X23232Y-5868D01*
X24300Y-5868D02*
X24188Y-5812D01*
X24132Y-5700D01*
X24132Y-4687D01*
X25200Y-5812D02*
X25088Y-5868D01*
X24863Y-5868D01*
X24750Y-5812D01*
X24694Y-5700D01*
X24694Y-5250D01*
X24750Y-5137D01*
X24863Y-5081D01*
X25088Y-5081D01*
X25200Y-5137D01*
X25257Y-5250D01*
X25257Y-5362D01*
X24694Y-5475D01*
X25706Y-5812D02*
X25819Y-5868D01*
X26044Y-5868D01*
X26156Y-5812D01*
X26213Y-5700D01*
X26213Y-5643D01*
X26156Y-5531D01*
X26044Y-5475D01*
X25875Y-5475D01*
X25763Y-5419D01*
X25706Y-5306D01*
X25706Y-5250D01*
X25763Y-5137D01*
X25875Y-5081D01*
X26044Y-5081D01*
X26156Y-5137D01*
X26606Y-6318D02*
X26663Y-6262D01*
X26775Y-6093D01*
X26831Y-5981D01*
X26888Y-5812D01*
X26944Y-5531D01*
X26944Y-5306D01*
X26888Y-5025D01*
X26831Y-4856D01*
X26775Y-4744D01*
X26663Y-4575D01*
X26606Y-4519D01*
X-196Y-6693D02*
X-196Y-7093D01*
X-396Y-6893D02*
X3Y-6893D01*
X1691Y-7428D02*
X1016Y-7428D01*
X1353Y-7428D02*
X1353Y-6246D01*
X1241Y-6415D01*
X1128Y-6528D01*
X1016Y-6584D01*
X2197Y-7315D02*
X2253Y-7371D01*
X2197Y-7428D01*
X2141Y-7371D01*
X2197Y-7315D01*
X2197Y-7428D01*
X2984Y-6246D02*
X3097Y-6246D01*
X3209Y-6303D01*
X3266Y-6359D01*
X3322Y-6471D01*
X3378Y-6696D01*
X3378Y-6978D01*
X3322Y-7203D01*
X3266Y-7315D01*
X3209Y-7371D01*
X3097Y-7428D01*
X2984Y-7428D01*
X2872Y-7371D01*
X2816Y-7315D01*
X2759Y-7203D01*
X2703Y-6978D01*
X2703Y-6696D01*
X2759Y-6471D01*
X2816Y-6359D01*
X2872Y-6303D01*
X2984Y-6246D01*
X3828Y-6359D02*
X3884Y-6303D01*
X3997Y-6246D01*
X4278Y-6246D01*
X4390Y-6303D01*
X4447Y-6359D01*
X4503Y-6471D01*
X4503Y-6584D01*
X4447Y-6753D01*
X3772Y-7428D01*
X4503Y-7428D01*
X5009Y-7428D02*
X5009Y-6640D01*
X5009Y-6753D02*
X5065Y-6696D01*
X5178Y-6640D01*
X5347Y-6640D01*
X5459Y-6696D01*
X5515Y-6809D01*
X5515Y-7428D01*
X5515Y-6809D02*
X5571Y-6696D01*
X5684Y-6640D01*
X5853Y-6640D01*
X5965Y-6696D01*
X6021Y-6809D01*
X6021Y-7428D01*
X6584Y-7428D02*
X6584Y-6640D01*
X6584Y-6753D02*
X6640Y-6696D01*
X6753Y-6640D01*
X6921Y-6640D01*
X7034Y-6696D01*
X7090Y-6809D01*
X7090Y-7428D01*
X7090Y-6809D02*
X7146Y-6696D01*
X7259Y-6640D01*
X7428Y-6640D01*
X7540Y-6696D01*
X7596Y-6809D01*
X7596Y-7428D01*
X9902Y-6190D02*
X8890Y-7709D01*
X11421Y-6246D02*
X11533Y-6246D01*
X11646Y-6303D01*
X11702Y-6359D01*
X11758Y-6471D01*
X11814Y-6696D01*
X11814Y-6978D01*
X11758Y-7203D01*
X11702Y-7315D01*
X11646Y-7371D01*
X11533Y-7428D01*
X11421Y-7428D01*
X11308Y-7371D01*
X11252Y-7315D01*
X11196Y-7203D01*
X11140Y-6978D01*
X11140Y-6696D01*
X11196Y-6471D01*
X11252Y-6359D01*
X11308Y-6303D01*
X11421Y-6246D01*
X12321Y-7315D02*
X12377Y-7371D01*
X12321Y-7428D01*
X12264Y-7371D01*
X12321Y-7315D01*
X12321Y-7428D01*
X13108Y-6246D02*
X13221Y-6246D01*
X13333Y-6303D01*
X13389Y-6359D01*
X13446Y-6471D01*
X13502Y-6696D01*
X13502Y-6978D01*
X13446Y-7203D01*
X13389Y-7315D01*
X13333Y-7371D01*
X13221Y-7428D01*
X13108Y-7428D01*
X12996Y-7371D01*
X12939Y-7315D01*
X12883Y-7203D01*
X12827Y-6978D01*
X12827Y-6696D01*
X12883Y-6471D01*
X12939Y-6359D01*
X12996Y-6303D01*
X13108Y-6246D01*
X14514Y-6640D02*
X14514Y-7428D01*
X14233Y-6190D02*
X13952Y-7034D01*
X14683Y-7034D01*
X15358Y-6246D02*
X15470Y-6246D01*
X15583Y-6303D01*
X15639Y-6359D01*
X15695Y-6471D01*
X15751Y-6696D01*
X15751Y-6978D01*
X15695Y-7203D01*
X15639Y-7315D01*
X15583Y-7371D01*
X15470Y-7428D01*
X15358Y-7428D01*
X15245Y-7371D01*
X15189Y-7315D01*
X15133Y-7203D01*
X15077Y-6978D01*
X15077Y-6696D01*
X15133Y-6471D01*
X15189Y-6359D01*
X15245Y-6303D01*
X15358Y-6246D01*
X16201Y-6246D02*
X16201Y-6471D01*
X16651Y-6246D02*
X16651Y-6471D01*
X18395Y-7877D02*
X18339Y-7821D01*
X18226Y-7652D01*
X18170Y-7540D01*
X18114Y-7371D01*
X18057Y-7090D01*
X18057Y-6865D01*
X18114Y-6584D01*
X18170Y-6415D01*
X18226Y-6303D01*
X18339Y-6134D01*
X18395Y-6078D01*
X18789Y-6359D02*
X18845Y-6303D01*
X18957Y-6246D01*
X19239Y-6246D01*
X19351Y-6303D01*
X19407Y-6359D01*
X19464Y-6471D01*
X19464Y-6584D01*
X19407Y-6753D01*
X18732Y-7428D01*
X19464Y-7428D01*
X20195Y-6246D02*
X20307Y-6246D01*
X20420Y-6303D01*
X20476Y-6359D01*
X20532Y-6471D01*
X20588Y-6696D01*
X20588Y-6978D01*
X20532Y-7203D01*
X20476Y-7315D01*
X20420Y-7371D01*
X20307Y-7428D01*
X20195Y-7428D01*
X20082Y-7371D01*
X20026Y-7315D01*
X19970Y-7203D01*
X19913Y-6978D01*
X19913Y-6696D01*
X19970Y-6471D01*
X20026Y-6359D01*
X20082Y-6303D01*
X20195Y-6246D01*
X21994Y-7428D02*
X21994Y-6246D01*
X22501Y-7428D02*
X22501Y-6809D01*
X22444Y-6696D01*
X22332Y-6640D01*
X22163Y-6640D01*
X22051Y-6696D01*
X21994Y-6753D01*
X23232Y-7428D02*
X23119Y-7371D01*
X23063Y-7315D01*
X23007Y-7203D01*
X23007Y-6865D01*
X23063Y-6753D01*
X23119Y-6696D01*
X23232Y-6640D01*
X23401Y-6640D01*
X23513Y-6696D01*
X23569Y-6753D01*
X23625Y-6865D01*
X23625Y-7203D01*
X23569Y-7315D01*
X23513Y-7371D01*
X23401Y-7428D01*
X23232Y-7428D01*
X24300Y-7428D02*
X24188Y-7371D01*
X24132Y-7259D01*
X24132Y-6246D01*
X25200Y-7371D02*
X25088Y-7428D01*
X24863Y-7428D01*
X24750Y-7371D01*
X24694Y-7259D01*
X24694Y-6809D01*
X24750Y-6696D01*
X24863Y-6640D01*
X25088Y-6640D01*
X25200Y-6696D01*
X25257Y-6809D01*
X25257Y-6921D01*
X24694Y-7034D01*
X25706Y-7371D02*
X25819Y-7428D01*
X26044Y-7428D01*
X26156Y-7371D01*
X26213Y-7259D01*
X26213Y-7203D01*
X26156Y-7090D01*
X26044Y-7034D01*
X25875Y-7034D01*
X25763Y-6978D01*
X25706Y-6865D01*
X25706Y-6809D01*
X25763Y-6696D01*
X25875Y-6640D01*
X26044Y-6640D01*
X26156Y-6696D01*
X26606Y-7877D02*
X26663Y-7821D01*
X26775Y-7652D01*
X26831Y-7540D01*
X26888Y-7371D01*
X26944Y-7090D01*
X26944Y-6865D01*
X26888Y-6584D01*
X26831Y-6415D01*
X26775Y-6303D01*
X26663Y-6134D01*
X26606Y-6078D01*
G54D12*
X-169Y-8870D02*
X-169Y-8035D01*
X-1004Y-8035D01*
X-1004Y-8870D01*
X-169Y-8870D01*
G54D13*
X960Y-7805D02*
X1691Y-7805D01*
X1297Y-8255D01*
X1466Y-8255D01*
X1578Y-8312D01*
X1634Y-8368D01*
X1691Y-8480D01*
X1691Y-8762D01*
X1634Y-8874D01*
X1578Y-8930D01*
X1466Y-8987D01*
X1128Y-8987D01*
X1016Y-8930D01*
X960Y-8874D01*
X2197Y-8874D02*
X2253Y-8930D01*
X2197Y-8987D01*
X2141Y-8930D01*
X2197Y-8874D01*
X2197Y-8987D01*
X2984Y-7805D02*
X3097Y-7805D01*
X3209Y-7862D01*
X3266Y-7918D01*
X3322Y-8030D01*
X3378Y-8255D01*
X3378Y-8537D01*
X3322Y-8762D01*
X3266Y-8874D01*
X3209Y-8930D01*
X3097Y-8987D01*
X2984Y-8987D01*
X2872Y-8930D01*
X2816Y-8874D01*
X2759Y-8762D01*
X2703Y-8537D01*
X2703Y-8255D01*
X2759Y-8030D01*
X2816Y-7918D01*
X2872Y-7862D01*
X2984Y-7805D01*
X4109Y-7805D02*
X4222Y-7805D01*
X4334Y-7862D01*
X4390Y-7918D01*
X4447Y-8030D01*
X4503Y-8255D01*
X4503Y-8537D01*
X4447Y-8762D01*
X4390Y-8874D01*
X4334Y-8930D01*
X4222Y-8987D01*
X4109Y-8987D01*
X3997Y-8930D01*
X3940Y-8874D01*
X3884Y-8762D01*
X3828Y-8537D01*
X3828Y-8255D01*
X3884Y-8030D01*
X3940Y-7918D01*
X3997Y-7862D01*
X4109Y-7805D01*
X5009Y-8987D02*
X5009Y-8199D01*
X5009Y-8312D02*
X5065Y-8255D01*
X5178Y-8199D01*
X5347Y-8199D01*
X5459Y-8255D01*
X5515Y-8368D01*
X5515Y-8987D01*
X5515Y-8368D02*
X5571Y-8255D01*
X5684Y-8199D01*
X5853Y-8199D01*
X5965Y-8255D01*
X6021Y-8368D01*
X6021Y-8987D01*
X6584Y-8987D02*
X6584Y-8199D01*
X6584Y-8312D02*
X6640Y-8255D01*
X6753Y-8199D01*
X6921Y-8199D01*
X7034Y-8255D01*
X7090Y-8368D01*
X7090Y-8987D01*
X7090Y-8368D02*
X7146Y-8255D01*
X7259Y-8199D01*
X7428Y-8199D01*
X7540Y-8255D01*
X7596Y-8368D01*
X7596Y-8987D01*
X9902Y-7749D02*
X8890Y-9268D01*
X11421Y-7805D02*
X11533Y-7805D01*
X11646Y-7862D01*
X11702Y-7918D01*
X11758Y-8030D01*
X11814Y-8255D01*
X11814Y-8537D01*
X11758Y-8762D01*
X11702Y-8874D01*
X11646Y-8930D01*
X11533Y-8987D01*
X11421Y-8987D01*
X11308Y-8930D01*
X11252Y-8874D01*
X11196Y-8762D01*
X11140Y-8537D01*
X11140Y-8255D01*
X11196Y-8030D01*
X11252Y-7918D01*
X11308Y-7862D01*
X11421Y-7805D01*
X12321Y-8874D02*
X12377Y-8930D01*
X12321Y-8987D01*
X12264Y-8930D01*
X12321Y-8874D01*
X12321Y-8987D01*
X13502Y-8987D02*
X12827Y-8987D01*
X13164Y-8987D02*
X13164Y-7805D01*
X13052Y-7974D01*
X12939Y-8087D01*
X12827Y-8143D01*
X14627Y-8987D02*
X13952Y-8987D01*
X14289Y-8987D02*
X14289Y-7805D01*
X14177Y-7974D01*
X14064Y-8087D01*
X13952Y-8143D01*
X15302Y-8312D02*
X15189Y-8255D01*
X15133Y-8199D01*
X15077Y-8087D01*
X15077Y-8030D01*
X15133Y-7918D01*
X15189Y-7862D01*
X15302Y-7805D01*
X15526Y-7805D01*
X15639Y-7862D01*
X15695Y-7918D01*
X15751Y-8030D01*
X15751Y-8087D01*
X15695Y-8199D01*
X15639Y-8255D01*
X15526Y-8312D01*
X15302Y-8312D01*
X15189Y-8368D01*
X15133Y-8424D01*
X15077Y-8537D01*
X15077Y-8762D01*
X15133Y-8874D01*
X15189Y-8930D01*
X15302Y-8987D01*
X15526Y-8987D01*
X15639Y-8930D01*
X15695Y-8874D01*
X15751Y-8762D01*
X15751Y-8537D01*
X15695Y-8424D01*
X15639Y-8368D01*
X15526Y-8312D01*
X16201Y-7805D02*
X16201Y-8030D01*
X16651Y-7805D02*
X16651Y-8030D01*
X18395Y-9437D02*
X18339Y-9380D01*
X18226Y-9212D01*
X18170Y-9099D01*
X18114Y-8930D01*
X18057Y-8649D01*
X18057Y-8424D01*
X18114Y-8143D01*
X18170Y-7974D01*
X18226Y-7862D01*
X18339Y-7693D01*
X18395Y-7637D01*
X19351Y-8199D02*
X19351Y-8987D01*
X19070Y-7749D02*
X18789Y-8593D01*
X19520Y-8593D01*
X20870Y-8987D02*
X20870Y-7805D01*
X21376Y-8987D02*
X21376Y-8368D01*
X21320Y-8255D01*
X21207Y-8199D01*
X21038Y-8199D01*
X20926Y-8255D01*
X20870Y-8312D01*
X22107Y-8987D02*
X21994Y-8930D01*
X21938Y-8874D01*
X21882Y-8762D01*
X21882Y-8424D01*
X21938Y-8312D01*
X21994Y-8255D01*
X22107Y-8199D01*
X22276Y-8199D01*
X22388Y-8255D01*
X22444Y-8312D01*
X22501Y-8424D01*
X22501Y-8762D01*
X22444Y-8874D01*
X22388Y-8930D01*
X22276Y-8987D01*
X22107Y-8987D01*
X23176Y-8987D02*
X23063Y-8930D01*
X23007Y-8818D01*
X23007Y-7805D01*
X24075Y-8930D02*
X23963Y-8987D01*
X23738Y-8987D01*
X23625Y-8930D01*
X23569Y-8818D01*
X23569Y-8368D01*
X23625Y-8255D01*
X23738Y-8199D01*
X23963Y-8199D01*
X24075Y-8255D01*
X24132Y-8368D01*
X24132Y-8480D01*
X23569Y-8593D01*
X24582Y-8930D02*
X24694Y-8987D01*
X24919Y-8987D01*
X25032Y-8930D01*
X25088Y-8818D01*
X25088Y-8762D01*
X25032Y-8649D01*
X24919Y-8593D01*
X24750Y-8593D01*
X24638Y-8537D01*
X24582Y-8424D01*
X24582Y-8368D01*
X24638Y-8255D01*
X24750Y-8199D01*
X24919Y-8199D01*
X25032Y-8255D01*
X25482Y-9437D02*
X25538Y-9380D01*
X25650Y-9212D01*
X25706Y-9099D01*
X25763Y-8930D01*
X25819Y-8649D01*
X25819Y-8424D01*
X25763Y-8143D01*
X25706Y-7974D01*
X25650Y-7862D01*
X25538Y-7693D01*
X25482Y-7637D01*
M02*
