M48
;DRILL file {Pcbnew (2013-11-26 BZR 4502)-product} date Wed 27 Nov 2013 13:40:39 EST
;FORMAT={-:-/ absolute / metric / decimal}
FMAT,2
METRIC,TZ
T1C0.700
T2C0.813
T3C1.016
T4C3.000
%
G90
G05
M71
T1
X0.47Y16.396
X2.27Y16.406
T2
X1.37Y23.676
X1.37Y21.136
X4.16Y24.406
X4.16Y22.406
X4.16Y20.406
X4.16Y18.406
X4.16Y16.406
X4.16Y14.406
X4.16Y12.406
X4.16Y10.406
X4.16Y8.406
X4.16Y6.406
X8.9Y29.334
X8.9Y26.794
X8.9Y24.254
X8.9Y21.714
X8.9Y19.174
X8.9Y16.634
X8.9Y14.094
X8.9Y11.554
X8.9Y9.014
X8.9Y6.474
X8.9Y3.934
X8.9Y1.394
X11.44Y29.334
X11.44Y26.794
X11.44Y24.254
X11.44Y21.714
X11.44Y19.174
X11.44Y16.634
X11.44Y14.094
X11.44Y11.554
X11.44Y9.014
X11.44Y6.474
X11.44Y3.934
X11.44Y1.394
X13.98Y29.334
X13.98Y26.794
X13.98Y24.254
X13.98Y21.714
X13.98Y19.174
X13.98Y16.634
X13.98Y14.094
X13.98Y11.554
X13.98Y9.014
X13.98Y6.474
X13.98Y3.934
X13.98Y1.394
X16.52Y29.334
X16.52Y26.794
X16.52Y24.254
X16.52Y21.714
X16.52Y19.174
X16.52Y16.634
X16.52Y14.094
X16.52Y11.554
X16.52Y9.014
X16.52Y6.474
X16.52Y3.934
X16.52Y1.394
X19.06Y29.334
X19.06Y26.794
X19.06Y24.254
X19.06Y21.714
X19.06Y19.174
X19.06Y16.634
X19.06Y14.094
X19.06Y11.554
X19.06Y9.014
X19.06Y6.474
X19.06Y3.934
X19.06Y1.394
X21.6Y29.334
X21.6Y26.794
X21.6Y24.254
X21.6Y21.714
X21.6Y19.174
X21.6Y16.634
X21.6Y14.094
X21.6Y11.554
X21.6Y9.014
X21.6Y6.474
X21.6Y3.934
X21.6Y1.394
X26.16Y24.406
X26.16Y22.406
X26.16Y20.406
X26.16Y18.406
X26.16Y16.406
X26.16Y14.406
X26.16Y12.406
X26.16Y10.406
X26.16Y8.406
X26.16Y6.406
T3
X6.36Y26.794
X6.36Y24.254
X6.36Y21.714
X6.36Y19.174
X6.36Y16.634
X6.36Y14.094
X6.36Y11.554
X6.36Y9.014
X6.36Y6.474
X6.36Y3.934
X24.14Y26.794
X24.14Y24.254
X24.14Y21.714
X24.14Y19.174
X24.14Y16.634
X24.14Y14.094
X24.14Y11.554
X24.14Y9.014
X24.14Y6.474
X24.14Y3.934
T4
X2.66Y28.55
X2.66Y2.55
X27.66Y28.55
X27.66Y2.55
T0
M30
