%FSLAX34Y34*%
G04 Gerber Fmt 3.4, Leading zero omitted, Abs format*
G04 (created by PCBNEW (2013-12-14 BZR 4555)-product) date Fri 03 Jan 2014 13:42:18 EST*
%MOIN*%
G01*
G70*
G90*
G04 APERTURE LIST*
%ADD10C,0.005000*%
%ADD11C,0.003937*%
%ADD12C,0.007874*%
%ADD13C,0.011811*%
G04 APERTURE END LIST*
G54D10*
G54D11*
X12157Y12464D02*
X12157Y23D01*
X31Y12464D02*
X12157Y12464D01*
X31Y23D02*
X31Y12464D01*
X12157Y23D02*
X31Y23D01*
G54D12*
X153Y6592D02*
X429Y6317D01*
X429Y6592D02*
X153Y6317D01*
X862Y6596D02*
X1137Y6321D01*
X1137Y6596D02*
X862Y6321D01*
X1904Y9608D02*
G75*
G03X1904Y9608I-160J0D01*
G74*
G01*
X1904Y8821D02*
G75*
G03X1904Y8821I-160J0D01*
G74*
G01*
X1904Y8033D02*
G75*
G03X1904Y8033I-160J0D01*
G74*
G01*
X1904Y7246D02*
G75*
G03X1904Y7246I-160J0D01*
G74*
G01*
X1904Y6459D02*
G75*
G03X1904Y6459I-160J0D01*
G74*
G01*
X1904Y5671D02*
G75*
G03X1904Y5671I-160J0D01*
G74*
G01*
X1904Y4884D02*
G75*
G03X1904Y4884I-160J0D01*
G74*
G01*
X1904Y4096D02*
G75*
G03X1904Y4096I-160J0D01*
G74*
G01*
X1904Y3309D02*
G75*
G03X1904Y3309I-160J0D01*
G74*
G01*
X1904Y2522D02*
G75*
G03X1904Y2522I-160J0D01*
G74*
G01*
X10565Y9608D02*
G75*
G03X10565Y9608I-160J0D01*
G74*
G01*
X10565Y8821D02*
G75*
G03X10565Y8821I-160J0D01*
G74*
G01*
X10565Y8033D02*
G75*
G03X10565Y8033I-160J0D01*
G74*
G01*
X10565Y7246D02*
G75*
G03X10565Y7246I-160J0D01*
G74*
G01*
X10565Y6459D02*
G75*
G03X10565Y6459I-160J0D01*
G74*
G01*
X10565Y5671D02*
G75*
G03X10565Y5671I-160J0D01*
G74*
G01*
X10565Y4884D02*
G75*
G03X10565Y4884I-160J0D01*
G74*
G01*
X10565Y4096D02*
G75*
G03X10565Y4096I-160J0D01*
G74*
G01*
X10565Y3309D02*
G75*
G03X10565Y3309I-160J0D01*
G74*
G01*
X10565Y2522D02*
G75*
G03X10565Y2522I-160J0D01*
G74*
G01*
X645Y9521D02*
X645Y9121D01*
X445Y9321D02*
X845Y9321D01*
X645Y8521D02*
X645Y8121D01*
X445Y8321D02*
X845Y8321D01*
X2610Y10748D02*
X2610Y10348D01*
X2410Y10548D02*
X2810Y10548D01*
X2610Y9748D02*
X2610Y9348D01*
X2410Y9548D02*
X2810Y9548D01*
X2610Y8748D02*
X2610Y8348D01*
X2410Y8548D02*
X2810Y8548D01*
X2610Y7748D02*
X2610Y7348D01*
X2410Y7548D02*
X2810Y7548D01*
X2610Y6748D02*
X2610Y6348D01*
X2410Y6548D02*
X2810Y6548D01*
X2610Y5748D02*
X2610Y5348D01*
X2410Y5548D02*
X2810Y5548D01*
X2610Y4748D02*
X2610Y4348D01*
X2410Y4548D02*
X2810Y4548D01*
X2610Y3748D02*
X2610Y3348D01*
X2410Y3548D02*
X2810Y3548D01*
X2610Y2748D02*
X2610Y2348D01*
X2410Y2548D02*
X2810Y2548D01*
X2610Y1748D02*
X2610Y1348D01*
X2410Y1548D02*
X2810Y1548D01*
X3610Y11748D02*
X3610Y11348D01*
X3410Y11548D02*
X3810Y11548D01*
X3610Y10748D02*
X3610Y10348D01*
X3410Y10548D02*
X3810Y10548D01*
X3610Y9748D02*
X3610Y9348D01*
X3410Y9548D02*
X3810Y9548D01*
X3610Y8748D02*
X3610Y8348D01*
X3410Y8548D02*
X3810Y8548D01*
X3610Y7748D02*
X3610Y7348D01*
X3410Y7548D02*
X3810Y7548D01*
X3610Y6748D02*
X3610Y6348D01*
X3410Y6548D02*
X3810Y6548D01*
X3610Y5748D02*
X3610Y5348D01*
X3410Y5548D02*
X3810Y5548D01*
X3610Y4748D02*
X3610Y4348D01*
X3410Y4548D02*
X3810Y4548D01*
X3610Y3748D02*
X3610Y3348D01*
X3410Y3548D02*
X3810Y3548D01*
X3610Y2748D02*
X3610Y2348D01*
X3410Y2548D02*
X3810Y2548D01*
X3610Y1748D02*
X3610Y1348D01*
X3410Y1548D02*
X3810Y1548D01*
X3610Y748D02*
X3610Y348D01*
X3410Y548D02*
X3810Y548D01*
X4610Y11748D02*
X4610Y11348D01*
X4410Y11548D02*
X4810Y11548D01*
X4610Y10748D02*
X4610Y10348D01*
X4410Y10548D02*
X4810Y10548D01*
X4610Y9748D02*
X4610Y9348D01*
X4410Y9548D02*
X4810Y9548D01*
X4610Y8748D02*
X4610Y8348D01*
X4410Y8548D02*
X4810Y8548D01*
X4610Y7748D02*
X4610Y7348D01*
X4410Y7548D02*
X4810Y7548D01*
X4610Y6748D02*
X4610Y6348D01*
X4410Y6548D02*
X4810Y6548D01*
X4610Y5748D02*
X4610Y5348D01*
X4410Y5548D02*
X4810Y5548D01*
X4610Y4748D02*
X4610Y4348D01*
X4410Y4548D02*
X4810Y4548D01*
X4610Y3748D02*
X4610Y3348D01*
X4410Y3548D02*
X4810Y3548D01*
X4610Y2748D02*
X4610Y2348D01*
X4410Y2548D02*
X4810Y2548D01*
X4610Y1748D02*
X4610Y1348D01*
X4410Y1548D02*
X4810Y1548D01*
X4610Y748D02*
X4610Y348D01*
X4410Y548D02*
X4810Y548D01*
X5610Y11748D02*
X5610Y11348D01*
X5410Y11548D02*
X5810Y11548D01*
X5610Y10748D02*
X5610Y10348D01*
X5410Y10548D02*
X5810Y10548D01*
X5610Y9748D02*
X5610Y9348D01*
X5410Y9548D02*
X5810Y9548D01*
X5610Y8748D02*
X5610Y8348D01*
X5410Y8548D02*
X5810Y8548D01*
X5610Y7748D02*
X5610Y7348D01*
X5410Y7548D02*
X5810Y7548D01*
X5610Y6748D02*
X5610Y6348D01*
X5410Y6548D02*
X5810Y6548D01*
X5610Y5748D02*
X5610Y5348D01*
X5410Y5548D02*
X5810Y5548D01*
X5610Y4748D02*
X5610Y4348D01*
X5410Y4548D02*
X5810Y4548D01*
X5610Y3748D02*
X5610Y3348D01*
X5410Y3548D02*
X5810Y3548D01*
X5610Y2748D02*
X5610Y2348D01*
X5410Y2548D02*
X5810Y2548D01*
X5610Y1748D02*
X5610Y1348D01*
X5410Y1548D02*
X5810Y1548D01*
X5610Y748D02*
X5610Y348D01*
X5410Y548D02*
X5810Y548D01*
X6610Y11748D02*
X6610Y11348D01*
X6410Y11548D02*
X6810Y11548D01*
X6610Y10748D02*
X6610Y10348D01*
X6410Y10548D02*
X6810Y10548D01*
X6610Y9748D02*
X6610Y9348D01*
X6410Y9548D02*
X6810Y9548D01*
X6610Y8748D02*
X6610Y8348D01*
X6410Y8548D02*
X6810Y8548D01*
X6610Y7748D02*
X6610Y7348D01*
X6410Y7548D02*
X6810Y7548D01*
X6610Y6748D02*
X6610Y6348D01*
X6410Y6548D02*
X6810Y6548D01*
X6610Y5748D02*
X6610Y5348D01*
X6410Y5548D02*
X6810Y5548D01*
X6610Y4748D02*
X6610Y4348D01*
X6410Y4548D02*
X6810Y4548D01*
X6610Y3748D02*
X6610Y3348D01*
X6410Y3548D02*
X6810Y3548D01*
X6610Y2748D02*
X6610Y2348D01*
X6410Y2548D02*
X6810Y2548D01*
X6610Y1748D02*
X6610Y1348D01*
X6410Y1548D02*
X6810Y1548D01*
X6610Y748D02*
X6610Y348D01*
X6410Y548D02*
X6810Y548D01*
X7610Y11748D02*
X7610Y11348D01*
X7410Y11548D02*
X7810Y11548D01*
X7610Y10748D02*
X7610Y10348D01*
X7410Y10548D02*
X7810Y10548D01*
X7610Y9748D02*
X7610Y9348D01*
X7410Y9548D02*
X7810Y9548D01*
X7610Y8748D02*
X7610Y8348D01*
X7410Y8548D02*
X7810Y8548D01*
X7610Y7748D02*
X7610Y7348D01*
X7410Y7548D02*
X7810Y7548D01*
X7610Y6748D02*
X7610Y6348D01*
X7410Y6548D02*
X7810Y6548D01*
X7610Y5748D02*
X7610Y5348D01*
X7410Y5548D02*
X7810Y5548D01*
X7610Y4748D02*
X7610Y4348D01*
X7410Y4548D02*
X7810Y4548D01*
X7610Y3748D02*
X7610Y3348D01*
X7410Y3548D02*
X7810Y3548D01*
X7610Y2748D02*
X7610Y2348D01*
X7410Y2548D02*
X7810Y2548D01*
X7610Y1748D02*
X7610Y1348D01*
X7410Y1548D02*
X7810Y1548D01*
X7610Y748D02*
X7610Y348D01*
X7410Y548D02*
X7810Y548D01*
X8610Y11748D02*
X8610Y11348D01*
X8410Y11548D02*
X8810Y11548D01*
X8610Y10748D02*
X8610Y10348D01*
X8410Y10548D02*
X8810Y10548D01*
X8610Y9748D02*
X8610Y9348D01*
X8410Y9548D02*
X8810Y9548D01*
X8610Y8748D02*
X8610Y8348D01*
X8410Y8548D02*
X8810Y8548D01*
X8610Y7748D02*
X8610Y7348D01*
X8410Y7548D02*
X8810Y7548D01*
X8610Y6748D02*
X8610Y6348D01*
X8410Y6548D02*
X8810Y6548D01*
X8610Y5748D02*
X8610Y5348D01*
X8410Y5548D02*
X8810Y5548D01*
X8610Y4748D02*
X8610Y4348D01*
X8410Y4548D02*
X8810Y4548D01*
X8610Y3748D02*
X8610Y3348D01*
X8410Y3548D02*
X8810Y3548D01*
X8610Y2748D02*
X8610Y2348D01*
X8410Y2548D02*
X8810Y2548D01*
X8610Y1748D02*
X8610Y1348D01*
X8410Y1548D02*
X8810Y1548D01*
X8610Y748D02*
X8610Y348D01*
X8410Y548D02*
X8810Y548D01*
X9610Y10748D02*
X9610Y10348D01*
X9410Y10548D02*
X9810Y10548D01*
X9610Y9748D02*
X9610Y9348D01*
X9410Y9548D02*
X9810Y9548D01*
X9610Y8748D02*
X9610Y8348D01*
X9410Y8548D02*
X9810Y8548D01*
X9610Y7748D02*
X9610Y7348D01*
X9410Y7548D02*
X9810Y7548D01*
X9610Y6748D02*
X9610Y6348D01*
X9410Y6548D02*
X9810Y6548D01*
X9610Y5748D02*
X9610Y5348D01*
X9410Y5548D02*
X9810Y5548D01*
X9610Y4748D02*
X9610Y4348D01*
X9410Y4548D02*
X9810Y4548D01*
X9610Y3748D02*
X9610Y3348D01*
X9410Y3548D02*
X9810Y3548D01*
X9610Y2748D02*
X9610Y2348D01*
X9410Y2548D02*
X9810Y2548D01*
X9610Y1748D02*
X9610Y1348D01*
X9410Y1548D02*
X9810Y1548D01*
X1571Y10822D02*
X1571Y11657D01*
X735Y11657D01*
X735Y10822D01*
X1571Y10822D01*
X1571Y586D02*
X1571Y1421D01*
X735Y1421D01*
X735Y586D01*
X1571Y586D01*
X11413Y10822D02*
X11413Y11657D01*
X10578Y11657D01*
X10578Y10822D01*
X11413Y10822D01*
X11413Y586D02*
X11413Y1421D01*
X10578Y1421D01*
X10578Y586D01*
X11413Y586D01*
G54D13*
X1080Y-1829D02*
X1080Y-648D01*
X1361Y-648D01*
X1530Y-704D01*
X1642Y-817D01*
X1699Y-929D01*
X1755Y-1154D01*
X1755Y-1323D01*
X1699Y-1548D01*
X1642Y-1660D01*
X1530Y-1773D01*
X1361Y-1829D01*
X1080Y-1829D01*
X2261Y-1829D02*
X2261Y-1042D01*
X2261Y-1267D02*
X2317Y-1154D01*
X2374Y-1098D01*
X2486Y-1042D01*
X2598Y-1042D01*
X2992Y-1829D02*
X2992Y-1042D01*
X2992Y-648D02*
X2936Y-704D01*
X2992Y-760D01*
X3048Y-704D01*
X2992Y-648D01*
X2992Y-760D01*
X3723Y-1829D02*
X3611Y-1773D01*
X3555Y-1660D01*
X3555Y-648D01*
X4342Y-1829D02*
X4230Y-1773D01*
X4173Y-1660D01*
X4173Y-648D01*
X5692Y-1829D02*
X5692Y-648D01*
X6086Y-1492D01*
X6479Y-648D01*
X6479Y-1829D01*
X7548Y-1829D02*
X7548Y-1210D01*
X7492Y-1098D01*
X7379Y-1042D01*
X7154Y-1042D01*
X7042Y-1098D01*
X7548Y-1773D02*
X7435Y-1829D01*
X7154Y-1829D01*
X7042Y-1773D01*
X6985Y-1660D01*
X6985Y-1548D01*
X7042Y-1435D01*
X7154Y-1379D01*
X7435Y-1379D01*
X7548Y-1323D01*
X8110Y-1042D02*
X8110Y-2223D01*
X8110Y-1098D02*
X8223Y-1042D01*
X8448Y-1042D01*
X8560Y-1098D01*
X8616Y-1154D01*
X8673Y-1267D01*
X8673Y-1604D01*
X8616Y-1717D01*
X8560Y-1773D01*
X8448Y-1829D01*
X8223Y-1829D01*
X8110Y-1773D01*
X9179Y-1717D02*
X9235Y-1773D01*
X9179Y-1829D01*
X9123Y-1773D01*
X9179Y-1717D01*
X9179Y-1829D01*
X9179Y-1098D02*
X9235Y-1154D01*
X9179Y-1210D01*
X9123Y-1154D01*
X9179Y-1098D01*
X9179Y-1210D01*
X-263Y-3637D02*
X11Y-3913D01*
X11Y-3637D02*
X-263Y-3913D01*
X1305Y-3128D02*
X1417Y-3128D01*
X1530Y-3185D01*
X1586Y-3241D01*
X1642Y-3353D01*
X1699Y-3578D01*
X1699Y-3859D01*
X1642Y-4084D01*
X1586Y-4197D01*
X1530Y-4253D01*
X1417Y-4309D01*
X1305Y-4309D01*
X1192Y-4253D01*
X1136Y-4197D01*
X1080Y-4084D01*
X1024Y-3859D01*
X1024Y-3578D01*
X1080Y-3353D01*
X1136Y-3241D01*
X1192Y-3185D01*
X1305Y-3128D01*
X2205Y-4197D02*
X2261Y-4253D01*
X2205Y-4309D01*
X2149Y-4253D01*
X2205Y-4197D01*
X2205Y-4309D01*
X2655Y-3128D02*
X3442Y-3128D01*
X2936Y-4309D01*
X4117Y-3128D02*
X4230Y-3128D01*
X4342Y-3185D01*
X4398Y-3241D01*
X4455Y-3353D01*
X4511Y-3578D01*
X4511Y-3859D01*
X4455Y-4084D01*
X4398Y-4197D01*
X4342Y-4253D01*
X4230Y-4309D01*
X4117Y-4309D01*
X4005Y-4253D01*
X3948Y-4197D01*
X3892Y-4084D01*
X3836Y-3859D01*
X3836Y-3578D01*
X3892Y-3353D01*
X3948Y-3241D01*
X4005Y-3185D01*
X4117Y-3128D01*
X5017Y-4309D02*
X5017Y-3522D01*
X5017Y-3634D02*
X5073Y-3578D01*
X5186Y-3522D01*
X5354Y-3522D01*
X5467Y-3578D01*
X5523Y-3691D01*
X5523Y-4309D01*
X5523Y-3691D02*
X5579Y-3578D01*
X5692Y-3522D01*
X5861Y-3522D01*
X5973Y-3578D01*
X6029Y-3691D01*
X6029Y-4309D01*
X6592Y-4309D02*
X6592Y-3522D01*
X6592Y-3634D02*
X6648Y-3578D01*
X6760Y-3522D01*
X6929Y-3522D01*
X7042Y-3578D01*
X7098Y-3691D01*
X7098Y-4309D01*
X7098Y-3691D02*
X7154Y-3578D01*
X7267Y-3522D01*
X7435Y-3522D01*
X7548Y-3578D01*
X7604Y-3691D01*
X7604Y-4309D01*
X9910Y-3072D02*
X8898Y-4591D01*
X11429Y-3128D02*
X11541Y-3128D01*
X11654Y-3185D01*
X11710Y-3241D01*
X11766Y-3353D01*
X11822Y-3578D01*
X11822Y-3859D01*
X11766Y-4084D01*
X11710Y-4197D01*
X11654Y-4253D01*
X11541Y-4309D01*
X11429Y-4309D01*
X11316Y-4253D01*
X11260Y-4197D01*
X11204Y-4084D01*
X11147Y-3859D01*
X11147Y-3578D01*
X11204Y-3353D01*
X11260Y-3241D01*
X11316Y-3185D01*
X11429Y-3128D01*
X12329Y-4197D02*
X12385Y-4253D01*
X12329Y-4309D01*
X12272Y-4253D01*
X12329Y-4197D01*
X12329Y-4309D01*
X13116Y-3128D02*
X13228Y-3128D01*
X13341Y-3185D01*
X13397Y-3241D01*
X13453Y-3353D01*
X13510Y-3578D01*
X13510Y-3859D01*
X13453Y-4084D01*
X13397Y-4197D01*
X13341Y-4253D01*
X13228Y-4309D01*
X13116Y-4309D01*
X13003Y-4253D01*
X12947Y-4197D01*
X12891Y-4084D01*
X12835Y-3859D01*
X12835Y-3578D01*
X12891Y-3353D01*
X12947Y-3241D01*
X13003Y-3185D01*
X13116Y-3128D01*
X13960Y-3241D02*
X14016Y-3185D01*
X14128Y-3128D01*
X14410Y-3128D01*
X14522Y-3185D01*
X14578Y-3241D01*
X14634Y-3353D01*
X14634Y-3466D01*
X14578Y-3634D01*
X13903Y-4309D01*
X14634Y-4309D01*
X15309Y-3634D02*
X15197Y-3578D01*
X15141Y-3522D01*
X15084Y-3410D01*
X15084Y-3353D01*
X15141Y-3241D01*
X15197Y-3185D01*
X15309Y-3128D01*
X15534Y-3128D01*
X15647Y-3185D01*
X15703Y-3241D01*
X15759Y-3353D01*
X15759Y-3410D01*
X15703Y-3522D01*
X15647Y-3578D01*
X15534Y-3634D01*
X15309Y-3634D01*
X15197Y-3691D01*
X15141Y-3747D01*
X15084Y-3859D01*
X15084Y-4084D01*
X15141Y-4197D01*
X15197Y-4253D01*
X15309Y-4309D01*
X15534Y-4309D01*
X15647Y-4253D01*
X15703Y-4197D01*
X15759Y-4084D01*
X15759Y-3859D01*
X15703Y-3747D01*
X15647Y-3691D01*
X15534Y-3634D01*
X16209Y-3128D02*
X16209Y-3353D01*
X16659Y-3128D02*
X16659Y-3353D01*
X18403Y-4759D02*
X18347Y-4703D01*
X18234Y-4534D01*
X18178Y-4422D01*
X18122Y-4253D01*
X18065Y-3972D01*
X18065Y-3747D01*
X18122Y-3466D01*
X18178Y-3297D01*
X18234Y-3185D01*
X18347Y-3016D01*
X18403Y-2960D01*
X18796Y-3241D02*
X18853Y-3185D01*
X18965Y-3128D01*
X19246Y-3128D01*
X19359Y-3185D01*
X19415Y-3241D01*
X19471Y-3353D01*
X19471Y-3466D01*
X19415Y-3634D01*
X18740Y-4309D01*
X19471Y-4309D01*
X20877Y-4309D02*
X20877Y-3128D01*
X21384Y-4309D02*
X21384Y-3691D01*
X21327Y-3578D01*
X21215Y-3522D01*
X21046Y-3522D01*
X20934Y-3578D01*
X20877Y-3634D01*
X22115Y-4309D02*
X22002Y-4253D01*
X21946Y-4197D01*
X21890Y-4084D01*
X21890Y-3747D01*
X21946Y-3634D01*
X22002Y-3578D01*
X22115Y-3522D01*
X22284Y-3522D01*
X22396Y-3578D01*
X22452Y-3634D01*
X22508Y-3747D01*
X22508Y-4084D01*
X22452Y-4197D01*
X22396Y-4253D01*
X22284Y-4309D01*
X22115Y-4309D01*
X23183Y-4309D02*
X23071Y-4253D01*
X23015Y-4141D01*
X23015Y-3128D01*
X24083Y-4253D02*
X23971Y-4309D01*
X23746Y-4309D01*
X23633Y-4253D01*
X23577Y-4141D01*
X23577Y-3691D01*
X23633Y-3578D01*
X23746Y-3522D01*
X23971Y-3522D01*
X24083Y-3578D01*
X24140Y-3691D01*
X24140Y-3803D01*
X23577Y-3916D01*
X24589Y-4253D02*
X24702Y-4309D01*
X24927Y-4309D01*
X25039Y-4253D01*
X25096Y-4141D01*
X25096Y-4084D01*
X25039Y-3972D01*
X24927Y-3916D01*
X24758Y-3916D01*
X24646Y-3859D01*
X24589Y-3747D01*
X24589Y-3691D01*
X24646Y-3578D01*
X24758Y-3522D01*
X24927Y-3522D01*
X25039Y-3578D01*
X25489Y-4759D02*
X25546Y-4703D01*
X25658Y-4534D01*
X25714Y-4422D01*
X25771Y-4253D01*
X25827Y-3972D01*
X25827Y-3747D01*
X25771Y-3466D01*
X25714Y-3297D01*
X25658Y-3185D01*
X25546Y-3016D01*
X25489Y-2960D01*
G54D12*
X11Y-5334D02*
G75*
G03X11Y-5334I-160J0D01*
G74*
G01*
G54D13*
X1305Y-4687D02*
X1417Y-4687D01*
X1530Y-4744D01*
X1586Y-4800D01*
X1642Y-4912D01*
X1699Y-5137D01*
X1699Y-5419D01*
X1642Y-5643D01*
X1586Y-5756D01*
X1530Y-5812D01*
X1417Y-5868D01*
X1305Y-5868D01*
X1192Y-5812D01*
X1136Y-5756D01*
X1080Y-5643D01*
X1024Y-5419D01*
X1024Y-5137D01*
X1080Y-4912D01*
X1136Y-4800D01*
X1192Y-4744D01*
X1305Y-4687D01*
X2205Y-5756D02*
X2261Y-5812D01*
X2205Y-5868D01*
X2149Y-5812D01*
X2205Y-5756D01*
X2205Y-5868D01*
X2936Y-5194D02*
X2823Y-5137D01*
X2767Y-5081D01*
X2711Y-4969D01*
X2711Y-4912D01*
X2767Y-4800D01*
X2823Y-4744D01*
X2936Y-4687D01*
X3161Y-4687D01*
X3273Y-4744D01*
X3330Y-4800D01*
X3386Y-4912D01*
X3386Y-4969D01*
X3330Y-5081D01*
X3273Y-5137D01*
X3161Y-5194D01*
X2936Y-5194D01*
X2823Y-5250D01*
X2767Y-5306D01*
X2711Y-5419D01*
X2711Y-5643D01*
X2767Y-5756D01*
X2823Y-5812D01*
X2936Y-5868D01*
X3161Y-5868D01*
X3273Y-5812D01*
X3330Y-5756D01*
X3386Y-5643D01*
X3386Y-5419D01*
X3330Y-5306D01*
X3273Y-5250D01*
X3161Y-5194D01*
X4511Y-5868D02*
X3836Y-5868D01*
X4173Y-5868D02*
X4173Y-4687D01*
X4061Y-4856D01*
X3948Y-4969D01*
X3836Y-5025D01*
X5017Y-5868D02*
X5017Y-5081D01*
X5017Y-5194D02*
X5073Y-5137D01*
X5186Y-5081D01*
X5354Y-5081D01*
X5467Y-5137D01*
X5523Y-5250D01*
X5523Y-5868D01*
X5523Y-5250D02*
X5579Y-5137D01*
X5692Y-5081D01*
X5861Y-5081D01*
X5973Y-5137D01*
X6029Y-5250D01*
X6029Y-5868D01*
X6592Y-5868D02*
X6592Y-5081D01*
X6592Y-5194D02*
X6648Y-5137D01*
X6760Y-5081D01*
X6929Y-5081D01*
X7042Y-5137D01*
X7098Y-5250D01*
X7098Y-5868D01*
X7098Y-5250D02*
X7154Y-5137D01*
X7267Y-5081D01*
X7435Y-5081D01*
X7548Y-5137D01*
X7604Y-5250D01*
X7604Y-5868D01*
X9910Y-4631D02*
X8898Y-6150D01*
X11429Y-4687D02*
X11541Y-4687D01*
X11654Y-4744D01*
X11710Y-4800D01*
X11766Y-4912D01*
X11822Y-5137D01*
X11822Y-5419D01*
X11766Y-5643D01*
X11710Y-5756D01*
X11654Y-5812D01*
X11541Y-5868D01*
X11429Y-5868D01*
X11316Y-5812D01*
X11260Y-5756D01*
X11204Y-5643D01*
X11147Y-5419D01*
X11147Y-5137D01*
X11204Y-4912D01*
X11260Y-4800D01*
X11316Y-4744D01*
X11429Y-4687D01*
X12329Y-5756D02*
X12385Y-5812D01*
X12329Y-5868D01*
X12272Y-5812D01*
X12329Y-5756D01*
X12329Y-5868D01*
X13116Y-4687D02*
X13228Y-4687D01*
X13341Y-4744D01*
X13397Y-4800D01*
X13453Y-4912D01*
X13510Y-5137D01*
X13510Y-5419D01*
X13453Y-5643D01*
X13397Y-5756D01*
X13341Y-5812D01*
X13228Y-5868D01*
X13116Y-5868D01*
X13003Y-5812D01*
X12947Y-5756D01*
X12891Y-5643D01*
X12835Y-5419D01*
X12835Y-5137D01*
X12891Y-4912D01*
X12947Y-4800D01*
X13003Y-4744D01*
X13116Y-4687D01*
X13903Y-4687D02*
X14634Y-4687D01*
X14241Y-5137D01*
X14410Y-5137D01*
X14522Y-5194D01*
X14578Y-5250D01*
X14634Y-5362D01*
X14634Y-5643D01*
X14578Y-5756D01*
X14522Y-5812D01*
X14410Y-5868D01*
X14072Y-5868D01*
X13960Y-5812D01*
X13903Y-5756D01*
X15084Y-4800D02*
X15141Y-4744D01*
X15253Y-4687D01*
X15534Y-4687D01*
X15647Y-4744D01*
X15703Y-4800D01*
X15759Y-4912D01*
X15759Y-5025D01*
X15703Y-5194D01*
X15028Y-5868D01*
X15759Y-5868D01*
X16209Y-4687D02*
X16209Y-4912D01*
X16659Y-4687D02*
X16659Y-4912D01*
X18403Y-6318D02*
X18347Y-6262D01*
X18234Y-6093D01*
X18178Y-5981D01*
X18122Y-5812D01*
X18065Y-5531D01*
X18065Y-5306D01*
X18122Y-5025D01*
X18178Y-4856D01*
X18234Y-4744D01*
X18347Y-4575D01*
X18403Y-4519D01*
X18796Y-4800D02*
X18853Y-4744D01*
X18965Y-4687D01*
X19246Y-4687D01*
X19359Y-4744D01*
X19415Y-4800D01*
X19471Y-4912D01*
X19471Y-5025D01*
X19415Y-5194D01*
X18740Y-5868D01*
X19471Y-5868D01*
X20203Y-4687D02*
X20315Y-4687D01*
X20428Y-4744D01*
X20484Y-4800D01*
X20540Y-4912D01*
X20596Y-5137D01*
X20596Y-5419D01*
X20540Y-5643D01*
X20484Y-5756D01*
X20428Y-5812D01*
X20315Y-5868D01*
X20203Y-5868D01*
X20090Y-5812D01*
X20034Y-5756D01*
X19978Y-5643D01*
X19921Y-5419D01*
X19921Y-5137D01*
X19978Y-4912D01*
X20034Y-4800D01*
X20090Y-4744D01*
X20203Y-4687D01*
X22002Y-5868D02*
X22002Y-4687D01*
X22508Y-5868D02*
X22508Y-5250D01*
X22452Y-5137D01*
X22340Y-5081D01*
X22171Y-5081D01*
X22059Y-5137D01*
X22002Y-5194D01*
X23240Y-5868D02*
X23127Y-5812D01*
X23071Y-5756D01*
X23015Y-5643D01*
X23015Y-5306D01*
X23071Y-5194D01*
X23127Y-5137D01*
X23240Y-5081D01*
X23408Y-5081D01*
X23521Y-5137D01*
X23577Y-5194D01*
X23633Y-5306D01*
X23633Y-5643D01*
X23577Y-5756D01*
X23521Y-5812D01*
X23408Y-5868D01*
X23240Y-5868D01*
X24308Y-5868D02*
X24196Y-5812D01*
X24140Y-5700D01*
X24140Y-4687D01*
X25208Y-5812D02*
X25096Y-5868D01*
X24871Y-5868D01*
X24758Y-5812D01*
X24702Y-5700D01*
X24702Y-5250D01*
X24758Y-5137D01*
X24871Y-5081D01*
X25096Y-5081D01*
X25208Y-5137D01*
X25264Y-5250D01*
X25264Y-5362D01*
X24702Y-5475D01*
X25714Y-5812D02*
X25827Y-5868D01*
X26052Y-5868D01*
X26164Y-5812D01*
X26221Y-5700D01*
X26221Y-5643D01*
X26164Y-5531D01*
X26052Y-5475D01*
X25883Y-5475D01*
X25771Y-5419D01*
X25714Y-5306D01*
X25714Y-5250D01*
X25771Y-5137D01*
X25883Y-5081D01*
X26052Y-5081D01*
X26164Y-5137D01*
X26614Y-6318D02*
X26670Y-6262D01*
X26783Y-6093D01*
X26839Y-5981D01*
X26895Y-5812D01*
X26952Y-5531D01*
X26952Y-5306D01*
X26895Y-5025D01*
X26839Y-4856D01*
X26783Y-4744D01*
X26670Y-4575D01*
X26614Y-4519D01*
X-188Y-6693D02*
X-188Y-7093D01*
X-388Y-6893D02*
X11Y-6893D01*
X1699Y-7428D02*
X1024Y-7428D01*
X1361Y-7428D02*
X1361Y-6246D01*
X1249Y-6415D01*
X1136Y-6528D01*
X1024Y-6584D01*
X2205Y-7315D02*
X2261Y-7371D01*
X2205Y-7428D01*
X2149Y-7371D01*
X2205Y-7315D01*
X2205Y-7428D01*
X2992Y-6246D02*
X3105Y-6246D01*
X3217Y-6303D01*
X3273Y-6359D01*
X3330Y-6471D01*
X3386Y-6696D01*
X3386Y-6978D01*
X3330Y-7203D01*
X3273Y-7315D01*
X3217Y-7371D01*
X3105Y-7428D01*
X2992Y-7428D01*
X2880Y-7371D01*
X2823Y-7315D01*
X2767Y-7203D01*
X2711Y-6978D01*
X2711Y-6696D01*
X2767Y-6471D01*
X2823Y-6359D01*
X2880Y-6303D01*
X2992Y-6246D01*
X3836Y-6359D02*
X3892Y-6303D01*
X4005Y-6246D01*
X4286Y-6246D01*
X4398Y-6303D01*
X4455Y-6359D01*
X4511Y-6471D01*
X4511Y-6584D01*
X4455Y-6753D01*
X3780Y-7428D01*
X4511Y-7428D01*
X5017Y-7428D02*
X5017Y-6640D01*
X5017Y-6753D02*
X5073Y-6696D01*
X5186Y-6640D01*
X5354Y-6640D01*
X5467Y-6696D01*
X5523Y-6809D01*
X5523Y-7428D01*
X5523Y-6809D02*
X5579Y-6696D01*
X5692Y-6640D01*
X5861Y-6640D01*
X5973Y-6696D01*
X6029Y-6809D01*
X6029Y-7428D01*
X6592Y-7428D02*
X6592Y-6640D01*
X6592Y-6753D02*
X6648Y-6696D01*
X6760Y-6640D01*
X6929Y-6640D01*
X7042Y-6696D01*
X7098Y-6809D01*
X7098Y-7428D01*
X7098Y-6809D02*
X7154Y-6696D01*
X7267Y-6640D01*
X7435Y-6640D01*
X7548Y-6696D01*
X7604Y-6809D01*
X7604Y-7428D01*
X9910Y-6190D02*
X8898Y-7709D01*
X11429Y-6246D02*
X11541Y-6246D01*
X11654Y-6303D01*
X11710Y-6359D01*
X11766Y-6471D01*
X11822Y-6696D01*
X11822Y-6978D01*
X11766Y-7203D01*
X11710Y-7315D01*
X11654Y-7371D01*
X11541Y-7428D01*
X11429Y-7428D01*
X11316Y-7371D01*
X11260Y-7315D01*
X11204Y-7203D01*
X11147Y-6978D01*
X11147Y-6696D01*
X11204Y-6471D01*
X11260Y-6359D01*
X11316Y-6303D01*
X11429Y-6246D01*
X12329Y-7315D02*
X12385Y-7371D01*
X12329Y-7428D01*
X12272Y-7371D01*
X12329Y-7315D01*
X12329Y-7428D01*
X13116Y-6246D02*
X13228Y-6246D01*
X13341Y-6303D01*
X13397Y-6359D01*
X13453Y-6471D01*
X13510Y-6696D01*
X13510Y-6978D01*
X13453Y-7203D01*
X13397Y-7315D01*
X13341Y-7371D01*
X13228Y-7428D01*
X13116Y-7428D01*
X13003Y-7371D01*
X12947Y-7315D01*
X12891Y-7203D01*
X12835Y-6978D01*
X12835Y-6696D01*
X12891Y-6471D01*
X12947Y-6359D01*
X13003Y-6303D01*
X13116Y-6246D01*
X14522Y-6640D02*
X14522Y-7428D01*
X14241Y-6190D02*
X13960Y-7034D01*
X14691Y-7034D01*
X15366Y-6246D02*
X15478Y-6246D01*
X15591Y-6303D01*
X15647Y-6359D01*
X15703Y-6471D01*
X15759Y-6696D01*
X15759Y-6978D01*
X15703Y-7203D01*
X15647Y-7315D01*
X15591Y-7371D01*
X15478Y-7428D01*
X15366Y-7428D01*
X15253Y-7371D01*
X15197Y-7315D01*
X15141Y-7203D01*
X15084Y-6978D01*
X15084Y-6696D01*
X15141Y-6471D01*
X15197Y-6359D01*
X15253Y-6303D01*
X15366Y-6246D01*
X16209Y-6246D02*
X16209Y-6471D01*
X16659Y-6246D02*
X16659Y-6471D01*
X18403Y-7877D02*
X18347Y-7821D01*
X18234Y-7652D01*
X18178Y-7540D01*
X18122Y-7371D01*
X18065Y-7090D01*
X18065Y-6865D01*
X18122Y-6584D01*
X18178Y-6415D01*
X18234Y-6303D01*
X18347Y-6134D01*
X18403Y-6078D01*
X18909Y-7428D02*
X19134Y-7428D01*
X19246Y-7371D01*
X19303Y-7315D01*
X19415Y-7146D01*
X19471Y-6921D01*
X19471Y-6471D01*
X19415Y-6359D01*
X19359Y-6303D01*
X19246Y-6246D01*
X19021Y-6246D01*
X18909Y-6303D01*
X18853Y-6359D01*
X18796Y-6471D01*
X18796Y-6753D01*
X18853Y-6865D01*
X18909Y-6921D01*
X19021Y-6978D01*
X19246Y-6978D01*
X19359Y-6921D01*
X19415Y-6865D01*
X19471Y-6753D01*
X20484Y-6640D02*
X20484Y-7428D01*
X20203Y-6190D02*
X19921Y-7034D01*
X20652Y-7034D01*
X22002Y-7428D02*
X22002Y-6246D01*
X22508Y-7428D02*
X22508Y-6809D01*
X22452Y-6696D01*
X22340Y-6640D01*
X22171Y-6640D01*
X22059Y-6696D01*
X22002Y-6753D01*
X23240Y-7428D02*
X23127Y-7371D01*
X23071Y-7315D01*
X23015Y-7203D01*
X23015Y-6865D01*
X23071Y-6753D01*
X23127Y-6696D01*
X23240Y-6640D01*
X23408Y-6640D01*
X23521Y-6696D01*
X23577Y-6753D01*
X23633Y-6865D01*
X23633Y-7203D01*
X23577Y-7315D01*
X23521Y-7371D01*
X23408Y-7428D01*
X23240Y-7428D01*
X24308Y-7428D02*
X24196Y-7371D01*
X24140Y-7259D01*
X24140Y-6246D01*
X25208Y-7371D02*
X25096Y-7428D01*
X24871Y-7428D01*
X24758Y-7371D01*
X24702Y-7259D01*
X24702Y-6809D01*
X24758Y-6696D01*
X24871Y-6640D01*
X25096Y-6640D01*
X25208Y-6696D01*
X25264Y-6809D01*
X25264Y-6921D01*
X24702Y-7034D01*
X25714Y-7371D02*
X25827Y-7428D01*
X26052Y-7428D01*
X26164Y-7371D01*
X26221Y-7259D01*
X26221Y-7203D01*
X26164Y-7090D01*
X26052Y-7034D01*
X25883Y-7034D01*
X25771Y-6978D01*
X25714Y-6865D01*
X25714Y-6809D01*
X25771Y-6696D01*
X25883Y-6640D01*
X26052Y-6640D01*
X26164Y-6696D01*
X26614Y-7877D02*
X26670Y-7821D01*
X26783Y-7652D01*
X26839Y-7540D01*
X26895Y-7371D01*
X26952Y-7090D01*
X26952Y-6865D01*
X26895Y-6584D01*
X26839Y-6415D01*
X26783Y-6303D01*
X26670Y-6134D01*
X26614Y-6078D01*
G54D12*
X-161Y-8870D02*
X-161Y-8035D01*
X-996Y-8035D01*
X-996Y-8870D01*
X-161Y-8870D01*
G54D13*
X967Y-7805D02*
X1699Y-7805D01*
X1305Y-8255D01*
X1474Y-8255D01*
X1586Y-8312D01*
X1642Y-8368D01*
X1699Y-8480D01*
X1699Y-8762D01*
X1642Y-8874D01*
X1586Y-8930D01*
X1474Y-8987D01*
X1136Y-8987D01*
X1024Y-8930D01*
X967Y-8874D01*
X2205Y-8874D02*
X2261Y-8930D01*
X2205Y-8987D01*
X2149Y-8930D01*
X2205Y-8874D01*
X2205Y-8987D01*
X2992Y-7805D02*
X3105Y-7805D01*
X3217Y-7862D01*
X3273Y-7918D01*
X3330Y-8030D01*
X3386Y-8255D01*
X3386Y-8537D01*
X3330Y-8762D01*
X3273Y-8874D01*
X3217Y-8930D01*
X3105Y-8987D01*
X2992Y-8987D01*
X2880Y-8930D01*
X2823Y-8874D01*
X2767Y-8762D01*
X2711Y-8537D01*
X2711Y-8255D01*
X2767Y-8030D01*
X2823Y-7918D01*
X2880Y-7862D01*
X2992Y-7805D01*
X4117Y-7805D02*
X4230Y-7805D01*
X4342Y-7862D01*
X4398Y-7918D01*
X4455Y-8030D01*
X4511Y-8255D01*
X4511Y-8537D01*
X4455Y-8762D01*
X4398Y-8874D01*
X4342Y-8930D01*
X4230Y-8987D01*
X4117Y-8987D01*
X4005Y-8930D01*
X3948Y-8874D01*
X3892Y-8762D01*
X3836Y-8537D01*
X3836Y-8255D01*
X3892Y-8030D01*
X3948Y-7918D01*
X4005Y-7862D01*
X4117Y-7805D01*
X5017Y-8987D02*
X5017Y-8199D01*
X5017Y-8312D02*
X5073Y-8255D01*
X5186Y-8199D01*
X5354Y-8199D01*
X5467Y-8255D01*
X5523Y-8368D01*
X5523Y-8987D01*
X5523Y-8368D02*
X5579Y-8255D01*
X5692Y-8199D01*
X5861Y-8199D01*
X5973Y-8255D01*
X6029Y-8368D01*
X6029Y-8987D01*
X6592Y-8987D02*
X6592Y-8199D01*
X6592Y-8312D02*
X6648Y-8255D01*
X6760Y-8199D01*
X6929Y-8199D01*
X7042Y-8255D01*
X7098Y-8368D01*
X7098Y-8987D01*
X7098Y-8368D02*
X7154Y-8255D01*
X7267Y-8199D01*
X7435Y-8199D01*
X7548Y-8255D01*
X7604Y-8368D01*
X7604Y-8987D01*
X9910Y-7749D02*
X8898Y-9268D01*
X11429Y-7805D02*
X11541Y-7805D01*
X11654Y-7862D01*
X11710Y-7918D01*
X11766Y-8030D01*
X11822Y-8255D01*
X11822Y-8537D01*
X11766Y-8762D01*
X11710Y-8874D01*
X11654Y-8930D01*
X11541Y-8987D01*
X11429Y-8987D01*
X11316Y-8930D01*
X11260Y-8874D01*
X11204Y-8762D01*
X11147Y-8537D01*
X11147Y-8255D01*
X11204Y-8030D01*
X11260Y-7918D01*
X11316Y-7862D01*
X11429Y-7805D01*
X12329Y-8874D02*
X12385Y-8930D01*
X12329Y-8987D01*
X12272Y-8930D01*
X12329Y-8874D01*
X12329Y-8987D01*
X13510Y-8987D02*
X12835Y-8987D01*
X13172Y-8987D02*
X13172Y-7805D01*
X13060Y-7974D01*
X12947Y-8087D01*
X12835Y-8143D01*
X14634Y-8987D02*
X13960Y-8987D01*
X14297Y-8987D02*
X14297Y-7805D01*
X14185Y-7974D01*
X14072Y-8087D01*
X13960Y-8143D01*
X15309Y-8312D02*
X15197Y-8255D01*
X15141Y-8199D01*
X15084Y-8087D01*
X15084Y-8030D01*
X15141Y-7918D01*
X15197Y-7862D01*
X15309Y-7805D01*
X15534Y-7805D01*
X15647Y-7862D01*
X15703Y-7918D01*
X15759Y-8030D01*
X15759Y-8087D01*
X15703Y-8199D01*
X15647Y-8255D01*
X15534Y-8312D01*
X15309Y-8312D01*
X15197Y-8368D01*
X15141Y-8424D01*
X15084Y-8537D01*
X15084Y-8762D01*
X15141Y-8874D01*
X15197Y-8930D01*
X15309Y-8987D01*
X15534Y-8987D01*
X15647Y-8930D01*
X15703Y-8874D01*
X15759Y-8762D01*
X15759Y-8537D01*
X15703Y-8424D01*
X15647Y-8368D01*
X15534Y-8312D01*
X16209Y-7805D02*
X16209Y-8030D01*
X16659Y-7805D02*
X16659Y-8030D01*
X18403Y-9437D02*
X18347Y-9380D01*
X18234Y-9212D01*
X18178Y-9099D01*
X18122Y-8930D01*
X18065Y-8649D01*
X18065Y-8424D01*
X18122Y-8143D01*
X18178Y-7974D01*
X18234Y-7862D01*
X18347Y-7693D01*
X18403Y-7637D01*
X19359Y-8199D02*
X19359Y-8987D01*
X19078Y-7749D02*
X18796Y-8593D01*
X19528Y-8593D01*
X20877Y-8987D02*
X20877Y-7805D01*
X21384Y-8987D02*
X21384Y-8368D01*
X21327Y-8255D01*
X21215Y-8199D01*
X21046Y-8199D01*
X20934Y-8255D01*
X20877Y-8312D01*
X22115Y-8987D02*
X22002Y-8930D01*
X21946Y-8874D01*
X21890Y-8762D01*
X21890Y-8424D01*
X21946Y-8312D01*
X22002Y-8255D01*
X22115Y-8199D01*
X22284Y-8199D01*
X22396Y-8255D01*
X22452Y-8312D01*
X22508Y-8424D01*
X22508Y-8762D01*
X22452Y-8874D01*
X22396Y-8930D01*
X22284Y-8987D01*
X22115Y-8987D01*
X23183Y-8987D02*
X23071Y-8930D01*
X23015Y-8818D01*
X23015Y-7805D01*
X24083Y-8930D02*
X23971Y-8987D01*
X23746Y-8987D01*
X23633Y-8930D01*
X23577Y-8818D01*
X23577Y-8368D01*
X23633Y-8255D01*
X23746Y-8199D01*
X23971Y-8199D01*
X24083Y-8255D01*
X24140Y-8368D01*
X24140Y-8480D01*
X23577Y-8593D01*
X24589Y-8930D02*
X24702Y-8987D01*
X24927Y-8987D01*
X25039Y-8930D01*
X25096Y-8818D01*
X25096Y-8762D01*
X25039Y-8649D01*
X24927Y-8593D01*
X24758Y-8593D01*
X24646Y-8537D01*
X24589Y-8424D01*
X24589Y-8368D01*
X24646Y-8255D01*
X24758Y-8199D01*
X24927Y-8199D01*
X25039Y-8255D01*
X25489Y-9437D02*
X25546Y-9380D01*
X25658Y-9212D01*
X25714Y-9099D01*
X25771Y-8930D01*
X25827Y-8649D01*
X25827Y-8424D01*
X25771Y-8143D01*
X25714Y-7974D01*
X25658Y-7862D01*
X25546Y-7693D01*
X25489Y-7637D01*
M02*
