%FSLAX34Y34*%
G04 Gerber Fmt 3.4, Leading zero omitted, Abs format*
G04 (created by PCBNEW (2013-12-14 BZR 4555)-product) date Thu 06 Mar 2014 11:08:20 EST*
%MOIN*%
G01*
G70*
G90*
G04 APERTURE LIST*
%ADD10C,0.005000*%
%ADD11C,0.003937*%
%ADD12C,0.007874*%
%ADD13C,0.011811*%
G04 APERTURE END LIST*
G54D10*
G54D11*
X12157Y12464D02*
X12157Y23D01*
X31Y12464D02*
X12157Y12464D01*
X31Y23D02*
X31Y12464D01*
X12157Y23D02*
X31Y23D01*
G54D12*
X1584Y9768D02*
X1904Y9448D01*
X1904Y9768D02*
X1584Y9448D01*
X1584Y8981D02*
X1904Y8661D01*
X1904Y8981D02*
X1584Y8661D01*
X1584Y8193D02*
X1904Y7873D01*
X1904Y8193D02*
X1584Y7873D01*
X1584Y7406D02*
X1904Y7086D01*
X1904Y7406D02*
X1584Y7086D01*
X1584Y6619D02*
X1904Y6299D01*
X1904Y6619D02*
X1584Y6299D01*
X1584Y5831D02*
X1904Y5511D01*
X1904Y5831D02*
X1584Y5511D01*
X1584Y5044D02*
X1904Y4724D01*
X1904Y5044D02*
X1584Y4724D01*
X1584Y4256D02*
X1904Y3936D01*
X1904Y4256D02*
X1584Y3936D01*
X1584Y3469D02*
X1904Y3149D01*
X1904Y3469D02*
X1584Y3149D01*
X1584Y2682D02*
X1904Y2362D01*
X1904Y2682D02*
X1584Y2362D01*
X10245Y9768D02*
X10565Y9448D01*
X10565Y9768D02*
X10245Y9448D01*
X10245Y8981D02*
X10565Y8661D01*
X10565Y8981D02*
X10245Y8661D01*
X10245Y8193D02*
X10565Y7873D01*
X10565Y8193D02*
X10245Y7873D01*
X10245Y7406D02*
X10565Y7086D01*
X10565Y7406D02*
X10245Y7086D01*
X10245Y6619D02*
X10565Y6299D01*
X10565Y6619D02*
X10245Y6299D01*
X10245Y5831D02*
X10565Y5511D01*
X10565Y5831D02*
X10245Y5511D01*
X10245Y5044D02*
X10565Y4724D01*
X10565Y5044D02*
X10245Y4724D01*
X10245Y4256D02*
X10565Y3936D01*
X10565Y4256D02*
X10245Y3936D01*
X10245Y3469D02*
X10565Y3149D01*
X10565Y3469D02*
X10245Y3149D01*
X10245Y2682D02*
X10565Y2362D01*
X10565Y2682D02*
X10245Y2362D01*
X810Y9548D02*
G75*
G03X810Y9548I-200J0D01*
G74*
G01*
X810Y8548D02*
G75*
G03X810Y8548I-200J0D01*
G74*
G01*
X810Y7548D02*
G75*
G03X810Y7548I-200J0D01*
G74*
G01*
X810Y6548D02*
G75*
G03X810Y6548I-200J0D01*
G74*
G01*
X810Y5548D02*
G75*
G03X810Y5548I-200J0D01*
G74*
G01*
X810Y4548D02*
G75*
G03X810Y4548I-200J0D01*
G74*
G01*
X810Y3548D02*
G75*
G03X810Y3548I-200J0D01*
G74*
G01*
X810Y2548D02*
G75*
G03X810Y2548I-200J0D01*
G74*
G01*
X2810Y10548D02*
G75*
G03X2810Y10548I-200J0D01*
G74*
G01*
X2810Y9548D02*
G75*
G03X2810Y9548I-200J0D01*
G74*
G01*
X2810Y8548D02*
G75*
G03X2810Y8548I-200J0D01*
G74*
G01*
X2810Y7548D02*
G75*
G03X2810Y7548I-200J0D01*
G74*
G01*
X2810Y6548D02*
G75*
G03X2810Y6548I-200J0D01*
G74*
G01*
X2810Y5548D02*
G75*
G03X2810Y5548I-200J0D01*
G74*
G01*
X2810Y4548D02*
G75*
G03X2810Y4548I-200J0D01*
G74*
G01*
X2810Y3548D02*
G75*
G03X2810Y3548I-200J0D01*
G74*
G01*
X2810Y2548D02*
G75*
G03X2810Y2548I-200J0D01*
G74*
G01*
X2810Y1548D02*
G75*
G03X2810Y1548I-200J0D01*
G74*
G01*
X3810Y11548D02*
G75*
G03X3810Y11548I-200J0D01*
G74*
G01*
X3810Y10548D02*
G75*
G03X3810Y10548I-200J0D01*
G74*
G01*
X3810Y9548D02*
G75*
G03X3810Y9548I-200J0D01*
G74*
G01*
X3810Y8548D02*
G75*
G03X3810Y8548I-200J0D01*
G74*
G01*
X3810Y7548D02*
G75*
G03X3810Y7548I-200J0D01*
G74*
G01*
X3810Y6548D02*
G75*
G03X3810Y6548I-200J0D01*
G74*
G01*
X3810Y5548D02*
G75*
G03X3810Y5548I-200J0D01*
G74*
G01*
X3810Y4548D02*
G75*
G03X3810Y4548I-200J0D01*
G74*
G01*
X3810Y3548D02*
G75*
G03X3810Y3548I-200J0D01*
G74*
G01*
X3810Y2548D02*
G75*
G03X3810Y2548I-200J0D01*
G74*
G01*
X3810Y1548D02*
G75*
G03X3810Y1548I-200J0D01*
G74*
G01*
X3810Y548D02*
G75*
G03X3810Y548I-200J0D01*
G74*
G01*
X4810Y11548D02*
G75*
G03X4810Y11548I-200J0D01*
G74*
G01*
X4810Y10548D02*
G75*
G03X4810Y10548I-200J0D01*
G74*
G01*
X4810Y9548D02*
G75*
G03X4810Y9548I-200J0D01*
G74*
G01*
X4810Y8548D02*
G75*
G03X4810Y8548I-200J0D01*
G74*
G01*
X4810Y7548D02*
G75*
G03X4810Y7548I-200J0D01*
G74*
G01*
X4810Y6548D02*
G75*
G03X4810Y6548I-200J0D01*
G74*
G01*
X4810Y5548D02*
G75*
G03X4810Y5548I-200J0D01*
G74*
G01*
X4810Y4548D02*
G75*
G03X4810Y4548I-200J0D01*
G74*
G01*
X4810Y3548D02*
G75*
G03X4810Y3548I-200J0D01*
G74*
G01*
X4810Y2548D02*
G75*
G03X4810Y2548I-200J0D01*
G74*
G01*
X4810Y1548D02*
G75*
G03X4810Y1548I-200J0D01*
G74*
G01*
X4810Y548D02*
G75*
G03X4810Y548I-200J0D01*
G74*
G01*
X5810Y11548D02*
G75*
G03X5810Y11548I-200J0D01*
G74*
G01*
X5810Y10548D02*
G75*
G03X5810Y10548I-200J0D01*
G74*
G01*
X5810Y9548D02*
G75*
G03X5810Y9548I-200J0D01*
G74*
G01*
X5810Y8548D02*
G75*
G03X5810Y8548I-200J0D01*
G74*
G01*
X5810Y7548D02*
G75*
G03X5810Y7548I-200J0D01*
G74*
G01*
X5810Y6548D02*
G75*
G03X5810Y6548I-200J0D01*
G74*
G01*
X5810Y5548D02*
G75*
G03X5810Y5548I-200J0D01*
G74*
G01*
X5810Y4548D02*
G75*
G03X5810Y4548I-200J0D01*
G74*
G01*
X5810Y3548D02*
G75*
G03X5810Y3548I-200J0D01*
G74*
G01*
X5810Y2548D02*
G75*
G03X5810Y2548I-200J0D01*
G74*
G01*
X5810Y1548D02*
G75*
G03X5810Y1548I-200J0D01*
G74*
G01*
X5810Y548D02*
G75*
G03X5810Y548I-200J0D01*
G74*
G01*
X6810Y11548D02*
G75*
G03X6810Y11548I-200J0D01*
G74*
G01*
X6810Y10548D02*
G75*
G03X6810Y10548I-200J0D01*
G74*
G01*
X6810Y9548D02*
G75*
G03X6810Y9548I-200J0D01*
G74*
G01*
X6810Y8548D02*
G75*
G03X6810Y8548I-200J0D01*
G74*
G01*
X6810Y7548D02*
G75*
G03X6810Y7548I-200J0D01*
G74*
G01*
X6810Y6548D02*
G75*
G03X6810Y6548I-200J0D01*
G74*
G01*
X6810Y5548D02*
G75*
G03X6810Y5548I-200J0D01*
G74*
G01*
X6810Y4548D02*
G75*
G03X6810Y4548I-200J0D01*
G74*
G01*
X6810Y3548D02*
G75*
G03X6810Y3548I-200J0D01*
G74*
G01*
X6810Y2548D02*
G75*
G03X6810Y2548I-200J0D01*
G74*
G01*
X6810Y1548D02*
G75*
G03X6810Y1548I-200J0D01*
G74*
G01*
X6810Y548D02*
G75*
G03X6810Y548I-200J0D01*
G74*
G01*
X7810Y11548D02*
G75*
G03X7810Y11548I-200J0D01*
G74*
G01*
X7810Y10548D02*
G75*
G03X7810Y10548I-200J0D01*
G74*
G01*
X7810Y9548D02*
G75*
G03X7810Y9548I-200J0D01*
G74*
G01*
X7810Y8548D02*
G75*
G03X7810Y8548I-200J0D01*
G74*
G01*
X7810Y7548D02*
G75*
G03X7810Y7548I-200J0D01*
G74*
G01*
X7810Y6548D02*
G75*
G03X7810Y6548I-200J0D01*
G74*
G01*
X7810Y5548D02*
G75*
G03X7810Y5548I-200J0D01*
G74*
G01*
X7810Y4548D02*
G75*
G03X7810Y4548I-200J0D01*
G74*
G01*
X7810Y3548D02*
G75*
G03X7810Y3548I-200J0D01*
G74*
G01*
X7810Y2548D02*
G75*
G03X7810Y2548I-200J0D01*
G74*
G01*
X7810Y1548D02*
G75*
G03X7810Y1548I-200J0D01*
G74*
G01*
X7810Y548D02*
G75*
G03X7810Y548I-200J0D01*
G74*
G01*
X8810Y11548D02*
G75*
G03X8810Y11548I-200J0D01*
G74*
G01*
X8810Y10548D02*
G75*
G03X8810Y10548I-200J0D01*
G74*
G01*
X8810Y9548D02*
G75*
G03X8810Y9548I-200J0D01*
G74*
G01*
X8810Y8548D02*
G75*
G03X8810Y8548I-200J0D01*
G74*
G01*
X8810Y7548D02*
G75*
G03X8810Y7548I-200J0D01*
G74*
G01*
X8810Y6548D02*
G75*
G03X8810Y6548I-200J0D01*
G74*
G01*
X8810Y5548D02*
G75*
G03X8810Y5548I-200J0D01*
G74*
G01*
X8810Y4548D02*
G75*
G03X8810Y4548I-200J0D01*
G74*
G01*
X8810Y3548D02*
G75*
G03X8810Y3548I-200J0D01*
G74*
G01*
X8810Y2548D02*
G75*
G03X8810Y2548I-200J0D01*
G74*
G01*
X8810Y1548D02*
G75*
G03X8810Y1548I-200J0D01*
G74*
G01*
X8810Y548D02*
G75*
G03X8810Y548I-200J0D01*
G74*
G01*
X9810Y10548D02*
G75*
G03X9810Y10548I-200J0D01*
G74*
G01*
X9810Y9548D02*
G75*
G03X9810Y9548I-200J0D01*
G74*
G01*
X9810Y8548D02*
G75*
G03X9810Y8548I-200J0D01*
G74*
G01*
X9810Y7548D02*
G75*
G03X9810Y7548I-200J0D01*
G74*
G01*
X9810Y6548D02*
G75*
G03X9810Y6548I-200J0D01*
G74*
G01*
X9810Y5548D02*
G75*
G03X9810Y5548I-200J0D01*
G74*
G01*
X9810Y4548D02*
G75*
G03X9810Y4548I-200J0D01*
G74*
G01*
X9810Y3548D02*
G75*
G03X9810Y3548I-200J0D01*
G74*
G01*
X9810Y2548D02*
G75*
G03X9810Y2548I-200J0D01*
G74*
G01*
X9810Y1548D02*
G75*
G03X9810Y1548I-200J0D01*
G74*
G01*
X11810Y9548D02*
G75*
G03X11810Y9548I-200J0D01*
G74*
G01*
X11810Y8548D02*
G75*
G03X11810Y8548I-200J0D01*
G74*
G01*
X11810Y7548D02*
G75*
G03X11810Y7548I-200J0D01*
G74*
G01*
X11810Y6548D02*
G75*
G03X11810Y6548I-200J0D01*
G74*
G01*
X11810Y5548D02*
G75*
G03X11810Y5548I-200J0D01*
G74*
G01*
X11810Y4548D02*
G75*
G03X11810Y4548I-200J0D01*
G74*
G01*
X11810Y3548D02*
G75*
G03X11810Y3548I-200J0D01*
G74*
G01*
X11810Y2548D02*
G75*
G03X11810Y2548I-200J0D01*
G74*
G01*
X1153Y11830D02*
X1153Y10649D01*
X562Y11240D02*
X1744Y11240D01*
X1153Y1594D02*
X1153Y413D01*
X562Y1003D02*
X1744Y1003D01*
X10996Y11830D02*
X10996Y10649D01*
X10405Y11240D02*
X11586Y11240D01*
X10996Y1594D02*
X10996Y413D01*
X10405Y1003D02*
X11586Y1003D01*
G54D13*
X1080Y-1829D02*
X1080Y-648D01*
X1361Y-648D01*
X1530Y-704D01*
X1642Y-817D01*
X1699Y-929D01*
X1755Y-1154D01*
X1755Y-1323D01*
X1699Y-1548D01*
X1642Y-1660D01*
X1530Y-1773D01*
X1361Y-1829D01*
X1080Y-1829D01*
X2261Y-1829D02*
X2261Y-1042D01*
X2261Y-1267D02*
X2317Y-1154D01*
X2374Y-1098D01*
X2486Y-1042D01*
X2598Y-1042D01*
X2992Y-1829D02*
X2992Y-1042D01*
X2992Y-648D02*
X2936Y-704D01*
X2992Y-760D01*
X3048Y-704D01*
X2992Y-648D01*
X2992Y-760D01*
X3723Y-1829D02*
X3611Y-1773D01*
X3555Y-1660D01*
X3555Y-648D01*
X4342Y-1829D02*
X4230Y-1773D01*
X4173Y-1660D01*
X4173Y-648D01*
X5692Y-1829D02*
X5692Y-648D01*
X6086Y-1492D01*
X6479Y-648D01*
X6479Y-1829D01*
X7548Y-1829D02*
X7548Y-1210D01*
X7492Y-1098D01*
X7379Y-1042D01*
X7154Y-1042D01*
X7042Y-1098D01*
X7548Y-1773D02*
X7435Y-1829D01*
X7154Y-1829D01*
X7042Y-1773D01*
X6985Y-1660D01*
X6985Y-1548D01*
X7042Y-1435D01*
X7154Y-1379D01*
X7435Y-1379D01*
X7548Y-1323D01*
X8110Y-1042D02*
X8110Y-2223D01*
X8110Y-1098D02*
X8223Y-1042D01*
X8448Y-1042D01*
X8560Y-1098D01*
X8616Y-1154D01*
X8673Y-1267D01*
X8673Y-1604D01*
X8616Y-1717D01*
X8560Y-1773D01*
X8448Y-1829D01*
X8223Y-1829D01*
X8110Y-1773D01*
X9179Y-1717D02*
X9235Y-1773D01*
X9179Y-1829D01*
X9123Y-1773D01*
X9179Y-1717D01*
X9179Y-1829D01*
X9179Y-1098D02*
X9235Y-1154D01*
X9179Y-1210D01*
X9123Y-1154D01*
X9179Y-1098D01*
X9179Y-1210D01*
X-308Y-3615D02*
X11Y-3935D01*
X11Y-3615D02*
X-308Y-3935D01*
X1305Y-3128D02*
X1417Y-3128D01*
X1530Y-3185D01*
X1586Y-3241D01*
X1642Y-3353D01*
X1699Y-3578D01*
X1699Y-3859D01*
X1642Y-4084D01*
X1586Y-4197D01*
X1530Y-4253D01*
X1417Y-4309D01*
X1305Y-4309D01*
X1192Y-4253D01*
X1136Y-4197D01*
X1080Y-4084D01*
X1024Y-3859D01*
X1024Y-3578D01*
X1080Y-3353D01*
X1136Y-3241D01*
X1192Y-3185D01*
X1305Y-3128D01*
X2205Y-4197D02*
X2261Y-4253D01*
X2205Y-4309D01*
X2149Y-4253D01*
X2205Y-4197D01*
X2205Y-4309D01*
X2936Y-3634D02*
X2823Y-3578D01*
X2767Y-3522D01*
X2711Y-3410D01*
X2711Y-3353D01*
X2767Y-3241D01*
X2823Y-3185D01*
X2936Y-3128D01*
X3161Y-3128D01*
X3273Y-3185D01*
X3330Y-3241D01*
X3386Y-3353D01*
X3386Y-3410D01*
X3330Y-3522D01*
X3273Y-3578D01*
X3161Y-3634D01*
X2936Y-3634D01*
X2823Y-3691D01*
X2767Y-3747D01*
X2711Y-3859D01*
X2711Y-4084D01*
X2767Y-4197D01*
X2823Y-4253D01*
X2936Y-4309D01*
X3161Y-4309D01*
X3273Y-4253D01*
X3330Y-4197D01*
X3386Y-4084D01*
X3386Y-3859D01*
X3330Y-3747D01*
X3273Y-3691D01*
X3161Y-3634D01*
X4511Y-4309D02*
X3836Y-4309D01*
X4173Y-4309D02*
X4173Y-3128D01*
X4061Y-3297D01*
X3948Y-3410D01*
X3836Y-3466D01*
X5017Y-4309D02*
X5017Y-3522D01*
X5017Y-3634D02*
X5073Y-3578D01*
X5186Y-3522D01*
X5354Y-3522D01*
X5467Y-3578D01*
X5523Y-3691D01*
X5523Y-4309D01*
X5523Y-3691D02*
X5579Y-3578D01*
X5692Y-3522D01*
X5861Y-3522D01*
X5973Y-3578D01*
X6029Y-3691D01*
X6029Y-4309D01*
X6592Y-4309D02*
X6592Y-3522D01*
X6592Y-3634D02*
X6648Y-3578D01*
X6760Y-3522D01*
X6929Y-3522D01*
X7042Y-3578D01*
X7098Y-3691D01*
X7098Y-4309D01*
X7098Y-3691D02*
X7154Y-3578D01*
X7267Y-3522D01*
X7435Y-3522D01*
X7548Y-3578D01*
X7604Y-3691D01*
X7604Y-4309D01*
X9910Y-3072D02*
X8898Y-4591D01*
X11429Y-3128D02*
X11541Y-3128D01*
X11654Y-3185D01*
X11710Y-3241D01*
X11766Y-3353D01*
X11822Y-3578D01*
X11822Y-3859D01*
X11766Y-4084D01*
X11710Y-4197D01*
X11654Y-4253D01*
X11541Y-4309D01*
X11429Y-4309D01*
X11316Y-4253D01*
X11260Y-4197D01*
X11204Y-4084D01*
X11147Y-3859D01*
X11147Y-3578D01*
X11204Y-3353D01*
X11260Y-3241D01*
X11316Y-3185D01*
X11429Y-3128D01*
X12329Y-4197D02*
X12385Y-4253D01*
X12329Y-4309D01*
X12272Y-4253D01*
X12329Y-4197D01*
X12329Y-4309D01*
X13116Y-3128D02*
X13228Y-3128D01*
X13341Y-3185D01*
X13397Y-3241D01*
X13453Y-3353D01*
X13510Y-3578D01*
X13510Y-3859D01*
X13453Y-4084D01*
X13397Y-4197D01*
X13341Y-4253D01*
X13228Y-4309D01*
X13116Y-4309D01*
X13003Y-4253D01*
X12947Y-4197D01*
X12891Y-4084D01*
X12835Y-3859D01*
X12835Y-3578D01*
X12891Y-3353D01*
X12947Y-3241D01*
X13003Y-3185D01*
X13116Y-3128D01*
X13903Y-3128D02*
X14634Y-3128D01*
X14241Y-3578D01*
X14410Y-3578D01*
X14522Y-3634D01*
X14578Y-3691D01*
X14634Y-3803D01*
X14634Y-4084D01*
X14578Y-4197D01*
X14522Y-4253D01*
X14410Y-4309D01*
X14072Y-4309D01*
X13960Y-4253D01*
X13903Y-4197D01*
X15084Y-3241D02*
X15141Y-3185D01*
X15253Y-3128D01*
X15534Y-3128D01*
X15647Y-3185D01*
X15703Y-3241D01*
X15759Y-3353D01*
X15759Y-3466D01*
X15703Y-3634D01*
X15028Y-4309D01*
X15759Y-4309D01*
X16209Y-3128D02*
X16209Y-3353D01*
X16659Y-3128D02*
X16659Y-3353D01*
X18403Y-4759D02*
X18347Y-4703D01*
X18234Y-4534D01*
X18178Y-4422D01*
X18122Y-4253D01*
X18065Y-3972D01*
X18065Y-3747D01*
X18122Y-3466D01*
X18178Y-3297D01*
X18234Y-3185D01*
X18347Y-3016D01*
X18403Y-2960D01*
X18796Y-3241D02*
X18853Y-3185D01*
X18965Y-3128D01*
X19246Y-3128D01*
X19359Y-3185D01*
X19415Y-3241D01*
X19471Y-3353D01*
X19471Y-3466D01*
X19415Y-3634D01*
X18740Y-4309D01*
X19471Y-4309D01*
X20203Y-3128D02*
X20315Y-3128D01*
X20428Y-3185D01*
X20484Y-3241D01*
X20540Y-3353D01*
X20596Y-3578D01*
X20596Y-3859D01*
X20540Y-4084D01*
X20484Y-4197D01*
X20428Y-4253D01*
X20315Y-4309D01*
X20203Y-4309D01*
X20090Y-4253D01*
X20034Y-4197D01*
X19978Y-4084D01*
X19921Y-3859D01*
X19921Y-3578D01*
X19978Y-3353D01*
X20034Y-3241D01*
X20090Y-3185D01*
X20203Y-3128D01*
X22002Y-4309D02*
X22002Y-3128D01*
X22508Y-4309D02*
X22508Y-3691D01*
X22452Y-3578D01*
X22340Y-3522D01*
X22171Y-3522D01*
X22059Y-3578D01*
X22002Y-3634D01*
X23240Y-4309D02*
X23127Y-4253D01*
X23071Y-4197D01*
X23015Y-4084D01*
X23015Y-3747D01*
X23071Y-3634D01*
X23127Y-3578D01*
X23240Y-3522D01*
X23408Y-3522D01*
X23521Y-3578D01*
X23577Y-3634D01*
X23633Y-3747D01*
X23633Y-4084D01*
X23577Y-4197D01*
X23521Y-4253D01*
X23408Y-4309D01*
X23240Y-4309D01*
X24308Y-4309D02*
X24196Y-4253D01*
X24140Y-4141D01*
X24140Y-3128D01*
X25208Y-4253D02*
X25096Y-4309D01*
X24871Y-4309D01*
X24758Y-4253D01*
X24702Y-4141D01*
X24702Y-3691D01*
X24758Y-3578D01*
X24871Y-3522D01*
X25096Y-3522D01*
X25208Y-3578D01*
X25264Y-3691D01*
X25264Y-3803D01*
X24702Y-3916D01*
X25714Y-4253D02*
X25827Y-4309D01*
X26052Y-4309D01*
X26164Y-4253D01*
X26221Y-4141D01*
X26221Y-4084D01*
X26164Y-3972D01*
X26052Y-3916D01*
X25883Y-3916D01*
X25771Y-3859D01*
X25714Y-3747D01*
X25714Y-3691D01*
X25771Y-3578D01*
X25883Y-3522D01*
X26052Y-3522D01*
X26164Y-3578D01*
X26614Y-4759D02*
X26670Y-4703D01*
X26783Y-4534D01*
X26839Y-4422D01*
X26895Y-4253D01*
X26952Y-3972D01*
X26952Y-3747D01*
X26895Y-3466D01*
X26839Y-3297D01*
X26783Y-3185D01*
X26670Y-3016D01*
X26614Y-2960D01*
G54D12*
X11Y-5334D02*
G75*
G03X11Y-5334I-200J0D01*
G74*
G01*
G54D13*
X1699Y-5868D02*
X1024Y-5868D01*
X1361Y-5868D02*
X1361Y-4687D01*
X1249Y-4856D01*
X1136Y-4969D01*
X1024Y-5025D01*
X2205Y-5756D02*
X2261Y-5812D01*
X2205Y-5868D01*
X2149Y-5812D01*
X2205Y-5756D01*
X2205Y-5868D01*
X2992Y-4687D02*
X3105Y-4687D01*
X3217Y-4744D01*
X3273Y-4800D01*
X3330Y-4912D01*
X3386Y-5137D01*
X3386Y-5419D01*
X3330Y-5643D01*
X3273Y-5756D01*
X3217Y-5812D01*
X3105Y-5868D01*
X2992Y-5868D01*
X2880Y-5812D01*
X2823Y-5756D01*
X2767Y-5643D01*
X2711Y-5419D01*
X2711Y-5137D01*
X2767Y-4912D01*
X2823Y-4800D01*
X2880Y-4744D01*
X2992Y-4687D01*
X3836Y-4800D02*
X3892Y-4744D01*
X4005Y-4687D01*
X4286Y-4687D01*
X4398Y-4744D01*
X4455Y-4800D01*
X4511Y-4912D01*
X4511Y-5025D01*
X4455Y-5194D01*
X3780Y-5868D01*
X4511Y-5868D01*
X5017Y-5868D02*
X5017Y-5081D01*
X5017Y-5194D02*
X5073Y-5137D01*
X5186Y-5081D01*
X5354Y-5081D01*
X5467Y-5137D01*
X5523Y-5250D01*
X5523Y-5868D01*
X5523Y-5250D02*
X5579Y-5137D01*
X5692Y-5081D01*
X5861Y-5081D01*
X5973Y-5137D01*
X6029Y-5250D01*
X6029Y-5868D01*
X6592Y-5868D02*
X6592Y-5081D01*
X6592Y-5194D02*
X6648Y-5137D01*
X6760Y-5081D01*
X6929Y-5081D01*
X7042Y-5137D01*
X7098Y-5250D01*
X7098Y-5868D01*
X7098Y-5250D02*
X7154Y-5137D01*
X7267Y-5081D01*
X7435Y-5081D01*
X7548Y-5137D01*
X7604Y-5250D01*
X7604Y-5868D01*
X9910Y-4631D02*
X8898Y-6150D01*
X11429Y-4687D02*
X11541Y-4687D01*
X11654Y-4744D01*
X11710Y-4800D01*
X11766Y-4912D01*
X11822Y-5137D01*
X11822Y-5419D01*
X11766Y-5643D01*
X11710Y-5756D01*
X11654Y-5812D01*
X11541Y-5868D01*
X11429Y-5868D01*
X11316Y-5812D01*
X11260Y-5756D01*
X11204Y-5643D01*
X11147Y-5419D01*
X11147Y-5137D01*
X11204Y-4912D01*
X11260Y-4800D01*
X11316Y-4744D01*
X11429Y-4687D01*
X12329Y-5756D02*
X12385Y-5812D01*
X12329Y-5868D01*
X12272Y-5812D01*
X12329Y-5756D01*
X12329Y-5868D01*
X13116Y-4687D02*
X13228Y-4687D01*
X13341Y-4744D01*
X13397Y-4800D01*
X13453Y-4912D01*
X13510Y-5137D01*
X13510Y-5419D01*
X13453Y-5643D01*
X13397Y-5756D01*
X13341Y-5812D01*
X13228Y-5868D01*
X13116Y-5868D01*
X13003Y-5812D01*
X12947Y-5756D01*
X12891Y-5643D01*
X12835Y-5419D01*
X12835Y-5137D01*
X12891Y-4912D01*
X12947Y-4800D01*
X13003Y-4744D01*
X13116Y-4687D01*
X14522Y-5081D02*
X14522Y-5868D01*
X14241Y-4631D02*
X13960Y-5475D01*
X14691Y-5475D01*
X15366Y-4687D02*
X15478Y-4687D01*
X15591Y-4744D01*
X15647Y-4800D01*
X15703Y-4912D01*
X15759Y-5137D01*
X15759Y-5419D01*
X15703Y-5643D01*
X15647Y-5756D01*
X15591Y-5812D01*
X15478Y-5868D01*
X15366Y-5868D01*
X15253Y-5812D01*
X15197Y-5756D01*
X15141Y-5643D01*
X15084Y-5419D01*
X15084Y-5137D01*
X15141Y-4912D01*
X15197Y-4800D01*
X15253Y-4744D01*
X15366Y-4687D01*
X16209Y-4687D02*
X16209Y-4912D01*
X16659Y-4687D02*
X16659Y-4912D01*
X18403Y-6318D02*
X18347Y-6262D01*
X18234Y-6093D01*
X18178Y-5981D01*
X18122Y-5812D01*
X18065Y-5531D01*
X18065Y-5306D01*
X18122Y-5025D01*
X18178Y-4856D01*
X18234Y-4744D01*
X18347Y-4575D01*
X18403Y-4519D01*
X19471Y-5868D02*
X18796Y-5868D01*
X19134Y-5868D02*
X19134Y-4687D01*
X19021Y-4856D01*
X18909Y-4969D01*
X18796Y-5025D01*
X20203Y-4687D02*
X20315Y-4687D01*
X20428Y-4744D01*
X20484Y-4800D01*
X20540Y-4912D01*
X20596Y-5137D01*
X20596Y-5419D01*
X20540Y-5643D01*
X20484Y-5756D01*
X20428Y-5812D01*
X20315Y-5868D01*
X20203Y-5868D01*
X20090Y-5812D01*
X20034Y-5756D01*
X19978Y-5643D01*
X19921Y-5419D01*
X19921Y-5137D01*
X19978Y-4912D01*
X20034Y-4800D01*
X20090Y-4744D01*
X20203Y-4687D01*
X21271Y-5194D02*
X21159Y-5137D01*
X21102Y-5081D01*
X21046Y-4969D01*
X21046Y-4912D01*
X21102Y-4800D01*
X21159Y-4744D01*
X21271Y-4687D01*
X21496Y-4687D01*
X21609Y-4744D01*
X21665Y-4800D01*
X21721Y-4912D01*
X21721Y-4969D01*
X21665Y-5081D01*
X21609Y-5137D01*
X21496Y-5194D01*
X21271Y-5194D01*
X21159Y-5250D01*
X21102Y-5306D01*
X21046Y-5419D01*
X21046Y-5643D01*
X21102Y-5756D01*
X21159Y-5812D01*
X21271Y-5868D01*
X21496Y-5868D01*
X21609Y-5812D01*
X21665Y-5756D01*
X21721Y-5643D01*
X21721Y-5419D01*
X21665Y-5306D01*
X21609Y-5250D01*
X21496Y-5194D01*
X23127Y-5868D02*
X23127Y-4687D01*
X23633Y-5868D02*
X23633Y-5250D01*
X23577Y-5137D01*
X23465Y-5081D01*
X23296Y-5081D01*
X23183Y-5137D01*
X23127Y-5194D01*
X24365Y-5868D02*
X24252Y-5812D01*
X24196Y-5756D01*
X24140Y-5643D01*
X24140Y-5306D01*
X24196Y-5194D01*
X24252Y-5137D01*
X24365Y-5081D01*
X24533Y-5081D01*
X24646Y-5137D01*
X24702Y-5194D01*
X24758Y-5306D01*
X24758Y-5643D01*
X24702Y-5756D01*
X24646Y-5812D01*
X24533Y-5868D01*
X24365Y-5868D01*
X25433Y-5868D02*
X25321Y-5812D01*
X25264Y-5700D01*
X25264Y-4687D01*
X26333Y-5812D02*
X26221Y-5868D01*
X25996Y-5868D01*
X25883Y-5812D01*
X25827Y-5700D01*
X25827Y-5250D01*
X25883Y-5137D01*
X25996Y-5081D01*
X26221Y-5081D01*
X26333Y-5137D01*
X26389Y-5250D01*
X26389Y-5362D01*
X25827Y-5475D01*
X26839Y-5812D02*
X26952Y-5868D01*
X27177Y-5868D01*
X27289Y-5812D01*
X27345Y-5700D01*
X27345Y-5643D01*
X27289Y-5531D01*
X27177Y-5475D01*
X27008Y-5475D01*
X26895Y-5419D01*
X26839Y-5306D01*
X26839Y-5250D01*
X26895Y-5137D01*
X27008Y-5081D01*
X27177Y-5081D01*
X27289Y-5137D01*
X27739Y-6318D02*
X27795Y-6262D01*
X27908Y-6093D01*
X27964Y-5981D01*
X28020Y-5812D01*
X28077Y-5531D01*
X28077Y-5306D01*
X28020Y-5025D01*
X27964Y-4856D01*
X27908Y-4744D01*
X27795Y-4575D01*
X27739Y-4519D01*
X-578Y-6303D02*
X-578Y-7484D01*
X-1169Y-6893D02*
X11Y-6893D01*
X967Y-6246D02*
X1699Y-6246D01*
X1305Y-6696D01*
X1474Y-6696D01*
X1586Y-6753D01*
X1642Y-6809D01*
X1699Y-6921D01*
X1699Y-7203D01*
X1642Y-7315D01*
X1586Y-7371D01*
X1474Y-7428D01*
X1136Y-7428D01*
X1024Y-7371D01*
X967Y-7315D01*
X2205Y-7315D02*
X2261Y-7371D01*
X2205Y-7428D01*
X2149Y-7371D01*
X2205Y-7315D01*
X2205Y-7428D01*
X2992Y-6246D02*
X3105Y-6246D01*
X3217Y-6303D01*
X3273Y-6359D01*
X3330Y-6471D01*
X3386Y-6696D01*
X3386Y-6978D01*
X3330Y-7203D01*
X3273Y-7315D01*
X3217Y-7371D01*
X3105Y-7428D01*
X2992Y-7428D01*
X2880Y-7371D01*
X2823Y-7315D01*
X2767Y-7203D01*
X2711Y-6978D01*
X2711Y-6696D01*
X2767Y-6471D01*
X2823Y-6359D01*
X2880Y-6303D01*
X2992Y-6246D01*
X4117Y-6246D02*
X4230Y-6246D01*
X4342Y-6303D01*
X4398Y-6359D01*
X4455Y-6471D01*
X4511Y-6696D01*
X4511Y-6978D01*
X4455Y-7203D01*
X4398Y-7315D01*
X4342Y-7371D01*
X4230Y-7428D01*
X4117Y-7428D01*
X4005Y-7371D01*
X3948Y-7315D01*
X3892Y-7203D01*
X3836Y-6978D01*
X3836Y-6696D01*
X3892Y-6471D01*
X3948Y-6359D01*
X4005Y-6303D01*
X4117Y-6246D01*
X5017Y-7428D02*
X5017Y-6640D01*
X5017Y-6753D02*
X5073Y-6696D01*
X5186Y-6640D01*
X5354Y-6640D01*
X5467Y-6696D01*
X5523Y-6809D01*
X5523Y-7428D01*
X5523Y-6809D02*
X5579Y-6696D01*
X5692Y-6640D01*
X5861Y-6640D01*
X5973Y-6696D01*
X6029Y-6809D01*
X6029Y-7428D01*
X6592Y-7428D02*
X6592Y-6640D01*
X6592Y-6753D02*
X6648Y-6696D01*
X6760Y-6640D01*
X6929Y-6640D01*
X7042Y-6696D01*
X7098Y-6809D01*
X7098Y-7428D01*
X7098Y-6809D02*
X7154Y-6696D01*
X7267Y-6640D01*
X7435Y-6640D01*
X7548Y-6696D01*
X7604Y-6809D01*
X7604Y-7428D01*
X9910Y-6190D02*
X8898Y-7709D01*
X11429Y-6246D02*
X11541Y-6246D01*
X11654Y-6303D01*
X11710Y-6359D01*
X11766Y-6471D01*
X11822Y-6696D01*
X11822Y-6978D01*
X11766Y-7203D01*
X11710Y-7315D01*
X11654Y-7371D01*
X11541Y-7428D01*
X11429Y-7428D01*
X11316Y-7371D01*
X11260Y-7315D01*
X11204Y-7203D01*
X11147Y-6978D01*
X11147Y-6696D01*
X11204Y-6471D01*
X11260Y-6359D01*
X11316Y-6303D01*
X11429Y-6246D01*
X12329Y-7315D02*
X12385Y-7371D01*
X12329Y-7428D01*
X12272Y-7371D01*
X12329Y-7315D01*
X12329Y-7428D01*
X13510Y-7428D02*
X12835Y-7428D01*
X13172Y-7428D02*
X13172Y-6246D01*
X13060Y-6415D01*
X12947Y-6528D01*
X12835Y-6584D01*
X14634Y-7428D02*
X13960Y-7428D01*
X14297Y-7428D02*
X14297Y-6246D01*
X14185Y-6415D01*
X14072Y-6528D01*
X13960Y-6584D01*
X15309Y-6753D02*
X15197Y-6696D01*
X15141Y-6640D01*
X15084Y-6528D01*
X15084Y-6471D01*
X15141Y-6359D01*
X15197Y-6303D01*
X15309Y-6246D01*
X15534Y-6246D01*
X15647Y-6303D01*
X15703Y-6359D01*
X15759Y-6471D01*
X15759Y-6528D01*
X15703Y-6640D01*
X15647Y-6696D01*
X15534Y-6753D01*
X15309Y-6753D01*
X15197Y-6809D01*
X15141Y-6865D01*
X15084Y-6978D01*
X15084Y-7203D01*
X15141Y-7315D01*
X15197Y-7371D01*
X15309Y-7428D01*
X15534Y-7428D01*
X15647Y-7371D01*
X15703Y-7315D01*
X15759Y-7203D01*
X15759Y-6978D01*
X15703Y-6865D01*
X15647Y-6809D01*
X15534Y-6753D01*
X16209Y-6246D02*
X16209Y-6471D01*
X16659Y-6246D02*
X16659Y-6471D01*
X18403Y-7877D02*
X18347Y-7821D01*
X18234Y-7652D01*
X18178Y-7540D01*
X18122Y-7371D01*
X18065Y-7090D01*
X18065Y-6865D01*
X18122Y-6584D01*
X18178Y-6415D01*
X18234Y-6303D01*
X18347Y-6134D01*
X18403Y-6078D01*
X19359Y-6640D02*
X19359Y-7428D01*
X19078Y-6190D02*
X18796Y-7034D01*
X19528Y-7034D01*
X20877Y-7428D02*
X20877Y-6246D01*
X21384Y-7428D02*
X21384Y-6809D01*
X21327Y-6696D01*
X21215Y-6640D01*
X21046Y-6640D01*
X20934Y-6696D01*
X20877Y-6753D01*
X22115Y-7428D02*
X22002Y-7371D01*
X21946Y-7315D01*
X21890Y-7203D01*
X21890Y-6865D01*
X21946Y-6753D01*
X22002Y-6696D01*
X22115Y-6640D01*
X22284Y-6640D01*
X22396Y-6696D01*
X22452Y-6753D01*
X22508Y-6865D01*
X22508Y-7203D01*
X22452Y-7315D01*
X22396Y-7371D01*
X22284Y-7428D01*
X22115Y-7428D01*
X23183Y-7428D02*
X23071Y-7371D01*
X23015Y-7259D01*
X23015Y-6246D01*
X24083Y-7371D02*
X23971Y-7428D01*
X23746Y-7428D01*
X23633Y-7371D01*
X23577Y-7259D01*
X23577Y-6809D01*
X23633Y-6696D01*
X23746Y-6640D01*
X23971Y-6640D01*
X24083Y-6696D01*
X24140Y-6809D01*
X24140Y-6921D01*
X23577Y-7034D01*
X24589Y-7371D02*
X24702Y-7428D01*
X24927Y-7428D01*
X25039Y-7371D01*
X25096Y-7259D01*
X25096Y-7203D01*
X25039Y-7090D01*
X24927Y-7034D01*
X24758Y-7034D01*
X24646Y-6978D01*
X24589Y-6865D01*
X24589Y-6809D01*
X24646Y-6696D01*
X24758Y-6640D01*
X24927Y-6640D01*
X25039Y-6696D01*
X25489Y-7877D02*
X25546Y-7821D01*
X25658Y-7652D01*
X25714Y-7540D01*
X25771Y-7371D01*
X25827Y-7090D01*
X25827Y-6865D01*
X25771Y-6584D01*
X25714Y-6415D01*
X25658Y-6303D01*
X25546Y-6134D01*
X25489Y-6078D01*
M02*
