%FSLAX34Y34*%
G04 Gerber Fmt 3.4, Leading zero omitted, Abs format*
G04 (created by PCBNEW (2013-11-13 BZR 4466)-product) date Fri 22 Nov 2013 08:51:14 EST*
%MOIN*%
G01*
G70*
G90*
G04 APERTURE LIST*
%ADD10C,0.005906*%
%ADD11R,0.060000X0.060000*%
%ADD12C,0.118110*%
%ADD13C,0.073200*%
%ADD14R,0.051181X0.035433*%
%ADD15R,0.027559X0.027559*%
%ADD16C,0.012000*%
%ADD17C,0.008000*%
G04 APERTURE END LIST*
G54D10*
G54D11*
X2503Y6540D03*
X2503Y7540D03*
X2503Y8540D03*
X2503Y9540D03*
X2503Y10540D03*
X2503Y11540D03*
X2503Y12540D03*
X2503Y13540D03*
X2503Y14540D03*
X2503Y15540D03*
X9503Y6540D03*
X9503Y7540D03*
X9503Y8540D03*
X9503Y9540D03*
X9503Y10540D03*
X9503Y11540D03*
X9503Y12540D03*
X9503Y13540D03*
X9503Y14540D03*
X9503Y15540D03*
G54D12*
X1047Y16232D03*
X10889Y16232D03*
X1047Y5996D03*
X10889Y5996D03*
G54D13*
X1637Y14600D03*
X1637Y13813D03*
X1637Y13025D03*
X1637Y12238D03*
X1637Y11451D03*
X1637Y10663D03*
X1637Y9876D03*
X1637Y9088D03*
X1637Y8301D03*
X1637Y7514D03*
X10299Y7514D03*
X10299Y8301D03*
X10299Y9088D03*
X10299Y9876D03*
X10299Y10663D03*
X10299Y11451D03*
X10299Y12238D03*
X10299Y13025D03*
X10299Y13813D03*
X10299Y14600D03*
X8503Y6540D03*
X7503Y6540D03*
X6503Y6540D03*
X6503Y7540D03*
X5503Y7540D03*
X5503Y6540D03*
X4503Y7540D03*
X3503Y7540D03*
X3503Y6540D03*
X4503Y6540D03*
X8503Y8540D03*
X7503Y8540D03*
X6503Y8540D03*
X5503Y8540D03*
X4503Y8540D03*
X3503Y8540D03*
X8503Y9540D03*
X5503Y9540D03*
X8503Y11540D03*
X3503Y12540D03*
X5503Y11540D03*
X4503Y11540D03*
X5503Y12540D03*
X4503Y12540D03*
X4503Y9540D03*
X7503Y11540D03*
X6503Y11540D03*
X7503Y9540D03*
X3503Y11540D03*
X6503Y9540D03*
X3503Y9540D03*
X8503Y10540D03*
X6503Y12540D03*
X6503Y10540D03*
X3503Y10540D03*
X7503Y10540D03*
X4503Y10540D03*
X8503Y7540D03*
X7503Y7540D03*
X5503Y10540D03*
X7503Y12540D03*
X4503Y14540D03*
X7503Y15540D03*
X5503Y15540D03*
X3503Y15540D03*
X3503Y14540D03*
X3503Y13540D03*
X8503Y12540D03*
X5503Y14540D03*
X8503Y15540D03*
X4503Y15540D03*
X6503Y14540D03*
X7503Y14540D03*
X4503Y13540D03*
X8503Y14540D03*
X8503Y13540D03*
X6503Y15540D03*
X6503Y13540D03*
X5503Y13540D03*
X7503Y13540D03*
G54D14*
X539Y10755D03*
X539Y9141D03*
G54D15*
X185Y9948D03*
X893Y9952D03*
G54D13*
X503Y13940D03*
X503Y12940D03*
X8503Y5540D03*
X4503Y5540D03*
X3503Y5540D03*
X7503Y5540D03*
X6503Y5540D03*
X5503Y5540D03*
X5503Y16540D03*
X4503Y16540D03*
X8503Y16540D03*
X7503Y16540D03*
X6503Y16540D03*
X3503Y16540D03*
G54D16*
X1637Y14600D02*
X1163Y14600D01*
X1163Y14600D02*
X503Y13940D01*
X1637Y14600D02*
X1637Y14674D01*
X1637Y14674D02*
X2503Y15540D01*
X3503Y16540D02*
X2503Y15540D01*
X8503Y16540D02*
X3503Y16540D01*
G54D17*
X1637Y14674D02*
X3503Y16540D01*
X3503Y16540D02*
X4503Y16540D01*
X4503Y16540D02*
X5503Y16540D01*
X5503Y16540D02*
X6503Y16540D01*
X6503Y16540D02*
X7503Y16540D01*
X7503Y16540D02*
X8503Y16540D01*
G54D16*
X2503Y6540D02*
X3503Y5540D01*
X3503Y5540D02*
X8503Y5540D01*
X1637Y7514D02*
X1637Y7407D01*
X1637Y7407D02*
X2503Y6540D01*
X539Y9141D02*
X539Y8612D01*
X539Y8612D02*
X1637Y7514D01*
G54D17*
X3503Y5540D02*
X5503Y5540D01*
X5503Y5540D02*
X6503Y5540D01*
X6503Y5540D02*
X7503Y5540D01*
X7503Y5540D02*
X8503Y5540D01*
G54D16*
X2503Y11540D02*
X2414Y11451D01*
X2414Y11451D02*
X1637Y11451D01*
X539Y10755D02*
X1234Y11451D01*
X1234Y11451D02*
X1637Y11451D01*
G54D17*
X1637Y11451D02*
X2414Y11451D01*
X1637Y11451D02*
X1234Y11451D01*
G54D16*
X2503Y9540D02*
X2168Y9876D01*
X2168Y9876D02*
X1637Y9876D01*
G54D17*
X1637Y9876D02*
X2168Y9876D01*
G54D16*
X1637Y10663D02*
X2381Y10663D01*
X2381Y10663D02*
X2503Y10540D01*
G54D17*
X2381Y10663D02*
X2503Y10540D01*
G54D16*
X2503Y12540D02*
X2201Y12238D01*
X2201Y12238D02*
X1637Y12238D01*
G54D17*
X1637Y12238D02*
X2201Y12238D01*
X1637Y13025D02*
X1988Y13025D01*
X1988Y13025D02*
X2503Y13540D01*
G54D16*
X2503Y14540D02*
X1776Y13813D01*
X1776Y13813D02*
X1637Y13813D01*
G54D17*
X1637Y13813D02*
X1776Y13813D01*
G54D16*
X1637Y9088D02*
X1955Y9088D01*
X1955Y9088D02*
X2503Y8540D01*
G54D17*
X1955Y9088D02*
X2503Y8540D01*
G54D16*
X1637Y8301D02*
X1743Y8301D01*
X1743Y8301D02*
X2503Y7540D01*
G54D17*
X1743Y8301D02*
X2503Y7540D01*
G54D16*
X9503Y15540D02*
X10299Y14745D01*
X10299Y14745D02*
X10299Y14600D01*
G54D17*
X10299Y14600D02*
X10299Y14745D01*
G54D16*
X10299Y13813D02*
X10231Y13813D01*
X10231Y13813D02*
X9503Y14540D01*
G54D17*
X10231Y13813D02*
X9503Y14540D01*
G54D16*
X9503Y13540D02*
X10018Y13025D01*
X10018Y13025D02*
X10299Y13025D01*
G54D17*
X10299Y13025D02*
X10018Y13025D01*
G54D16*
X10299Y12238D02*
X9806Y12238D01*
X9806Y12238D02*
X9503Y12540D01*
G54D17*
X9806Y12238D02*
X9503Y12540D01*
G54D16*
X9503Y11540D02*
X9593Y11451D01*
X9593Y11451D02*
X10299Y11451D01*
G54D17*
X10299Y11451D02*
X9593Y11451D01*
G54D16*
X10299Y10663D02*
X9626Y10663D01*
X9626Y10663D02*
X9503Y10540D01*
G54D17*
X9626Y10663D02*
X9503Y10540D01*
G54D16*
X9503Y9540D02*
X9839Y9876D01*
X9839Y9876D02*
X10299Y9876D01*
G54D17*
X10299Y9876D02*
X9839Y9876D01*
G54D16*
X10299Y9088D02*
X10051Y9088D01*
X10051Y9088D02*
X9503Y8540D01*
G54D17*
X10051Y9088D02*
X9503Y8540D01*
G54D16*
X10299Y8301D02*
X9538Y7540D01*
X9538Y7540D02*
X9503Y7540D01*
X9503Y6540D02*
X10299Y7336D01*
X10299Y7336D02*
X10299Y7514D01*
G54D17*
X10299Y7514D02*
X10299Y7336D01*
M02*
