%FSLAX34Y34*%
G04 Gerber Fmt 3.4, Leading zero omitted, Abs format*
G04 (created by PCBNEW (2013-11-26 BZR 4502)-product) date Wed 27 Nov 2013 13:45:01 EST*
%MOIN*%
G01*
G70*
G90*
G04 APERTURE LIST*
%ADD10C,0.005906*%
%ADD11C,0.089200*%
%ADD12R,0.043559X0.043559*%
%ADD13C,0.134110*%
%ADD14R,0.076000X0.076000*%
G04 APERTURE END LIST*
G54D10*
G54D11*
X10299Y2522D03*
X10299Y3309D03*
X10299Y4096D03*
X10299Y4884D03*
X10299Y5671D03*
X10299Y6459D03*
X10299Y7246D03*
X10299Y8033D03*
X10299Y8821D03*
X10299Y9608D03*
G54D12*
X893Y6459D03*
X185Y6455D03*
G54D13*
X1047Y11240D03*
X10889Y11240D03*
X1047Y1003D03*
X10889Y1003D03*
G54D11*
X1637Y9608D03*
X1637Y8821D03*
X1637Y8033D03*
X1637Y7246D03*
X1637Y6459D03*
X1637Y5671D03*
X1637Y4884D03*
X1637Y4096D03*
X1637Y3309D03*
X1637Y2522D03*
X8503Y1548D03*
X7503Y1548D03*
X6503Y1548D03*
X6503Y2548D03*
X5503Y2548D03*
X5503Y1548D03*
X4503Y2548D03*
X3503Y2548D03*
X3503Y1548D03*
X4503Y1548D03*
X8503Y3548D03*
X7503Y3548D03*
X6503Y3548D03*
X5503Y3548D03*
X4503Y3548D03*
X3503Y3548D03*
X8503Y4548D03*
X5503Y4548D03*
X8503Y6548D03*
X3503Y7548D03*
X5503Y6548D03*
X4503Y6548D03*
X5503Y7548D03*
X4503Y7548D03*
X4503Y4548D03*
X7503Y6548D03*
X6503Y6548D03*
X7503Y4548D03*
X3503Y6548D03*
X6503Y4548D03*
X3503Y4548D03*
X8503Y5548D03*
X6503Y7548D03*
X6503Y5548D03*
X3503Y5548D03*
X7503Y5548D03*
X4503Y5548D03*
X8503Y2548D03*
X7503Y2548D03*
X5503Y5548D03*
X7503Y7548D03*
X4503Y9548D03*
X7503Y10548D03*
X5503Y10548D03*
X3503Y10548D03*
X3503Y9548D03*
X3503Y8548D03*
X8503Y7548D03*
X5503Y9548D03*
X8503Y10548D03*
X4503Y10548D03*
X6503Y9548D03*
X7503Y9548D03*
X4503Y8548D03*
X8503Y9548D03*
X8503Y8548D03*
X6503Y10548D03*
X6503Y8548D03*
X5503Y8548D03*
X7503Y8548D03*
X539Y9321D03*
X539Y8321D03*
X8503Y548D03*
X4503Y548D03*
X3503Y548D03*
X7503Y548D03*
X6503Y548D03*
X5503Y548D03*
X5503Y11548D03*
X4503Y11548D03*
X8503Y11548D03*
X7503Y11548D03*
X6503Y11548D03*
X3503Y11548D03*
G54D14*
X2503Y1548D03*
X2503Y2548D03*
X2503Y3548D03*
X2503Y4548D03*
X2503Y5548D03*
X2503Y6548D03*
X2503Y7548D03*
X2503Y8548D03*
X2503Y9548D03*
X2503Y10548D03*
X9503Y1548D03*
X9503Y2548D03*
X9503Y3548D03*
X9503Y4548D03*
X9503Y5548D03*
X9503Y6548D03*
X9503Y7548D03*
X9503Y10548D03*
X9503Y8548D03*
X9503Y9548D03*
M02*
