G04 This is an RS-274x file exported by *
G04 gerbv version 2.6.0 *
G04 More information is available about gerbv at *
G04 http://gerbv.gpleda.org/ *
G04 --End of header info--*
%MOIN*%
%FSLAX34Y34*%
%IPPOS*%
G04 --Define apertures--*
%ADD10C,0.0059*%
%ADD11C,0.1181*%
%ADD12R,0.0600X0.0600*%
%ADD13C,0.0732*%
%ADD14C,0.0600*%
G04 --Start main section--*
G54D11*
G01X0001153Y0011240D03*
G01X0010996Y0011240D03*
G01X0001153Y0001003D03*
G01X0010996Y0001003D03*
G54D12*
G01X0002610Y0001548D03*
G01X0002610Y0002548D03*
G01X0002610Y0003548D03*
G01X0002610Y0004548D03*
G01X0002610Y0005548D03*
G01X0002610Y0006548D03*
G01X0002610Y0007548D03*
G01X0002610Y0008548D03*
G01X0002610Y0009548D03*
G01X0002610Y0010548D03*
G01X0009610Y0001548D03*
G01X0009610Y0002548D03*
G01X0009610Y0003548D03*
G01X0009610Y0004548D03*
G01X0009610Y0005548D03*
G01X0009610Y0006548D03*
G01X0009610Y0007548D03*
G01X0009610Y0010548D03*
G01X0009610Y0008548D03*
G01X0009610Y0009548D03*
G54D13*
G01X0000610Y0009548D03*
G01X0000610Y0008548D03*
G01X0008610Y0001548D03*
G01X0007610Y0001548D03*
G01X0006610Y0001548D03*
G01X0006610Y0002548D03*
G01X0005610Y0002548D03*
G01X0005610Y0001548D03*
G01X0004610Y0002548D03*
G01X0003610Y0002548D03*
G01X0003610Y0001548D03*
G01X0004610Y0001548D03*
G01X0008610Y0003548D03*
G01X0007610Y0003548D03*
G01X0006610Y0003548D03*
G01X0005610Y0003548D03*
G01X0004610Y0003548D03*
G01X0003610Y0003548D03*
G01X0008610Y0004548D03*
G01X0005610Y0004548D03*
G01X0008610Y0006548D03*
G01X0003610Y0007548D03*
G01X0005610Y0006548D03*
G01X0004610Y0006548D03*
G01X0005610Y0007548D03*
G01X0004610Y0007548D03*
G01X0004610Y0004548D03*
G01X0007610Y0006548D03*
G01X0006610Y0006548D03*
G01X0007610Y0004548D03*
G01X0003610Y0006548D03*
G01X0006610Y0004548D03*
G01X0003610Y0004548D03*
G01X0008610Y0005548D03*
G01X0006610Y0007548D03*
G01X0006610Y0005548D03*
G01X0003610Y0005548D03*
G01X0007610Y0005548D03*
G01X0004610Y0005548D03*
G01X0008610Y0002548D03*
G01X0007610Y0002548D03*
G01X0005610Y0005548D03*
G01X0007610Y0007548D03*
G01X0004610Y0009548D03*
G01X0007610Y0010548D03*
G01X0005610Y0010548D03*
G01X0003610Y0010548D03*
G01X0003610Y0009548D03*
G01X0003610Y0008548D03*
G01X0008610Y0007548D03*
G01X0005610Y0009548D03*
G01X0008610Y0010548D03*
G01X0004610Y0010548D03*
G01X0006610Y0009548D03*
G01X0007610Y0009548D03*
G01X0004610Y0008548D03*
G01X0008610Y0009548D03*
G01X0008610Y0008548D03*
G01X0006610Y0010548D03*
G01X0006610Y0008548D03*
G01X0005610Y0008548D03*
G01X0007610Y0008548D03*
G01X0008610Y0000548D03*
G01X0004610Y0000548D03*
G01X0003610Y0000548D03*
G01X0007610Y0000548D03*
G01X0006610Y0000548D03*
G01X0005610Y0000548D03*
G01X0005610Y0011548D03*
G01X0004610Y0011548D03*
G01X0008610Y0011548D03*
G01X0007610Y0011548D03*
G01X0006610Y0011548D03*
G01X0003610Y0011548D03*
G01X0000610Y0007548D03*
G01X0000610Y0006548D03*
G01X0000610Y0005548D03*
G01X0000610Y0004548D03*
G01X0000610Y0003548D03*
G01X0000610Y0002548D03*
G01X0011610Y0009548D03*
G01X0011610Y0008548D03*
G01X0011610Y0007548D03*
G01X0011610Y0006548D03*
G01X0011610Y0005548D03*
G01X0011610Y0004548D03*
G01X0011610Y0003548D03*
G01X0011610Y0002548D03*
G54D14*
G01X0001744Y0009608D03*
G01X0001744Y0008821D03*
G01X0001744Y0008033D03*
G01X0001744Y0007246D03*
G01X0001744Y0006459D03*
G01X0001744Y0005671D03*
G01X0001744Y0004884D03*
G01X0001744Y0004096D03*
G01X0001744Y0003309D03*
G01X0001744Y0002522D03*
G01X0010405Y0002522D03*
G01X0010405Y0003309D03*
G01X0010405Y0004096D03*
G01X0010405Y0004884D03*
G01X0010405Y0005671D03*
G01X0010405Y0006459D03*
G01X0010405Y0007246D03*
G01X0010405Y0008033D03*
G01X0010405Y0008821D03*
G01X0010405Y0009608D03*
M02*
