%FSLAX34Y34*%
G04 Gerber Fmt 3.4, Leading zero omitted, Abs format*
G04 (created by PCBNEW (2013-11-13 BZR 4466)-product) date Fri 22 Nov 2013 08:51:14 EST*
%MOIN*%
G01*
G70*
G90*
G04 APERTURE LIST*
%ADD10C,0.005906*%
%ADD11C,0.011811*%
G04 APERTURE END LIST*
G54D10*
G54D11*
X11571Y14418D02*
X11177Y14418D01*
X11233Y14418D02*
X11205Y14390D01*
X11177Y14334D01*
X11177Y14249D01*
X11205Y14193D01*
X11261Y14165D01*
X11571Y14165D01*
X11261Y14165D02*
X11205Y14137D01*
X11177Y14081D01*
X11177Y13996D01*
X11205Y13940D01*
X11261Y13912D01*
X11571Y13912D01*
X11542Y13406D02*
X11571Y13462D01*
X11571Y13575D01*
X11542Y13631D01*
X11486Y13659D01*
X11261Y13659D01*
X11205Y13631D01*
X11177Y13575D01*
X11177Y13462D01*
X11205Y13406D01*
X11261Y13378D01*
X11317Y13378D01*
X11374Y13659D01*
X11542Y13153D02*
X11571Y13096D01*
X11571Y12984D01*
X11542Y12928D01*
X11486Y12900D01*
X11458Y12900D01*
X11402Y12928D01*
X11374Y12984D01*
X11374Y13068D01*
X11346Y13125D01*
X11289Y13153D01*
X11261Y13153D01*
X11205Y13125D01*
X11177Y13068D01*
X11177Y12984D01*
X11205Y12928D01*
X11571Y12647D02*
X10980Y12647D01*
X11571Y12393D02*
X11261Y12393D01*
X11205Y12422D01*
X11177Y12478D01*
X11177Y12562D01*
X11205Y12618D01*
X11233Y12647D01*
X11177Y12197D02*
X11177Y11972D01*
X10980Y12112D02*
X11486Y12112D01*
X11542Y12084D01*
X11571Y12028D01*
X11571Y11972D01*
X11571Y11775D02*
X10980Y11775D01*
X11571Y11522D02*
X11261Y11522D01*
X11205Y11550D01*
X11177Y11606D01*
X11177Y11690D01*
X11205Y11747D01*
X11233Y11775D01*
X11571Y11240D02*
X11177Y11240D01*
X10980Y11240D02*
X11008Y11269D01*
X11036Y11240D01*
X11008Y11212D01*
X10980Y11240D01*
X11036Y11240D01*
X11177Y10959D02*
X11571Y10959D01*
X11233Y10959D02*
X11205Y10931D01*
X11177Y10875D01*
X11177Y10791D01*
X11205Y10734D01*
X11261Y10706D01*
X11571Y10706D01*
X11177Y10172D02*
X11655Y10172D01*
X11711Y10200D01*
X11739Y10228D01*
X11767Y10284D01*
X11767Y10369D01*
X11739Y10425D01*
X11542Y10172D02*
X11571Y10228D01*
X11571Y10341D01*
X11542Y10397D01*
X11514Y10425D01*
X11458Y10453D01*
X11289Y10453D01*
X11233Y10425D01*
X11205Y10397D01*
X11177Y10341D01*
X11177Y10228D01*
X11205Y10172D01*
X11514Y9891D02*
X11542Y9862D01*
X11571Y9891D01*
X11542Y9919D01*
X11514Y9891D01*
X11571Y9891D01*
X11542Y9356D02*
X11571Y9413D01*
X11571Y9525D01*
X11542Y9581D01*
X11514Y9609D01*
X11458Y9638D01*
X11289Y9638D01*
X11233Y9609D01*
X11205Y9581D01*
X11177Y9525D01*
X11177Y9413D01*
X11205Y9356D01*
X11571Y9019D02*
X11542Y9075D01*
X11514Y9103D01*
X11458Y9131D01*
X11289Y9131D01*
X11233Y9103D01*
X11205Y9075D01*
X11177Y9019D01*
X11177Y8934D01*
X11205Y8878D01*
X11233Y8850D01*
X11289Y8822D01*
X11458Y8822D01*
X11514Y8850D01*
X11542Y8878D01*
X11571Y8934D01*
X11571Y9019D01*
X11571Y8569D02*
X11177Y8569D01*
X11233Y8569D02*
X11205Y8541D01*
X11177Y8485D01*
X11177Y8400D01*
X11205Y8344D01*
X11261Y8316D01*
X11571Y8316D01*
X11261Y8316D02*
X11205Y8288D01*
X11177Y8231D01*
X11177Y8147D01*
X11205Y8091D01*
X11261Y8063D01*
X11571Y8063D01*
M02*
