%FSLAX34Y34*%
G04 Gerber Fmt 3.4, Leading zero omitted, Abs format*
G04 (created by PCBNEW (2013-12-04 BZR 4521)-product) date Thu 05 Dec 2013 16:39:20 EST*
%MOIN*%
G01*
G70*
G90*
G04 APERTURE LIST*
%ADD10C,0.005906*%
%ADD11C,0.004921*%
%ADD12C,0.003937*%
G04 APERTURE END LIST*
G54D10*
G54D11*
X10907Y5028D02*
X10907Y4979D01*
X10919Y4955D01*
X10943Y4930D01*
X10992Y4918D01*
X11077Y4918D01*
X11126Y4930D01*
X11150Y4955D01*
X11163Y4979D01*
X11163Y5028D01*
X11150Y5052D01*
X11126Y5076D01*
X11077Y5089D01*
X10992Y5089D01*
X10943Y5076D01*
X10919Y5052D01*
X10907Y5028D01*
X10992Y4808D02*
X11248Y4808D01*
X11004Y4808D02*
X10992Y4784D01*
X10992Y4735D01*
X11004Y4711D01*
X11016Y4699D01*
X11041Y4686D01*
X11114Y4686D01*
X11138Y4699D01*
X11150Y4711D01*
X11163Y4735D01*
X11163Y4784D01*
X11150Y4808D01*
X11150Y4479D02*
X11163Y4504D01*
X11163Y4552D01*
X11150Y4577D01*
X11126Y4589D01*
X11028Y4589D01*
X11004Y4577D01*
X10992Y4552D01*
X10992Y4504D01*
X11004Y4479D01*
X11028Y4467D01*
X11053Y4467D01*
X11077Y4589D01*
X10992Y4357D02*
X11163Y4357D01*
X11016Y4357D02*
X11004Y4345D01*
X10992Y4321D01*
X10992Y4284D01*
X11004Y4260D01*
X11028Y4248D01*
X11163Y4248D01*
X11163Y4126D02*
X10907Y4126D01*
X11028Y4126D02*
X11028Y3980D01*
X11163Y3980D02*
X10907Y3980D01*
X11163Y3748D02*
X11028Y3748D01*
X11004Y3760D01*
X10992Y3785D01*
X10992Y3833D01*
X11004Y3858D01*
X11150Y3748D02*
X11163Y3772D01*
X11163Y3833D01*
X11150Y3858D01*
X11126Y3870D01*
X11102Y3870D01*
X11077Y3858D01*
X11065Y3833D01*
X11065Y3772D01*
X11053Y3748D01*
X11163Y3626D02*
X10992Y3626D01*
X11041Y3626D02*
X11016Y3614D01*
X11004Y3602D01*
X10992Y3577D01*
X10992Y3553D01*
X11163Y3358D02*
X10907Y3358D01*
X11150Y3358D02*
X11163Y3383D01*
X11163Y3431D01*
X11150Y3456D01*
X11138Y3468D01*
X11114Y3480D01*
X11041Y3480D01*
X11016Y3468D01*
X11004Y3456D01*
X10992Y3431D01*
X10992Y3383D01*
X11004Y3358D01*
X10992Y3261D02*
X11163Y3212D01*
X11041Y3163D01*
X11163Y3114D01*
X10992Y3066D01*
X11163Y2859D02*
X11028Y2859D01*
X11004Y2871D01*
X10992Y2895D01*
X10992Y2944D01*
X11004Y2968D01*
X11150Y2859D02*
X11163Y2883D01*
X11163Y2944D01*
X11150Y2968D01*
X11126Y2980D01*
X11102Y2980D01*
X11077Y2968D01*
X11065Y2944D01*
X11065Y2883D01*
X11053Y2859D01*
X11163Y2737D02*
X10992Y2737D01*
X11041Y2737D02*
X11016Y2724D01*
X11004Y2712D01*
X10992Y2688D01*
X10992Y2664D01*
X11150Y2481D02*
X11163Y2505D01*
X11163Y2554D01*
X11150Y2578D01*
X11126Y2590D01*
X11028Y2590D01*
X11004Y2578D01*
X10992Y2554D01*
X10992Y2505D01*
X11004Y2481D01*
X11028Y2469D01*
X11053Y2469D01*
X11077Y2590D01*
X11314Y5076D02*
X11521Y5076D01*
X11546Y5064D01*
X11558Y5052D01*
X11570Y5028D01*
X11570Y4979D01*
X11558Y4955D01*
X11546Y4942D01*
X11521Y4930D01*
X11314Y4930D01*
X11399Y4808D02*
X11570Y4808D01*
X11424Y4808D02*
X11412Y4796D01*
X11399Y4772D01*
X11399Y4735D01*
X11412Y4711D01*
X11436Y4699D01*
X11570Y4699D01*
X11570Y4467D02*
X11314Y4467D01*
X11558Y4467D02*
X11570Y4491D01*
X11570Y4540D01*
X11558Y4565D01*
X11546Y4577D01*
X11521Y4589D01*
X11448Y4589D01*
X11424Y4577D01*
X11412Y4565D01*
X11399Y4540D01*
X11399Y4491D01*
X11412Y4467D01*
X11558Y4248D02*
X11570Y4272D01*
X11570Y4321D01*
X11558Y4345D01*
X11533Y4357D01*
X11436Y4357D01*
X11412Y4345D01*
X11399Y4321D01*
X11399Y4272D01*
X11412Y4248D01*
X11436Y4236D01*
X11460Y4236D01*
X11485Y4357D01*
X11570Y4126D02*
X11399Y4126D01*
X11448Y4126D02*
X11424Y4114D01*
X11412Y4101D01*
X11399Y4077D01*
X11399Y4053D01*
X11314Y3809D02*
X11314Y3663D01*
X11570Y3736D02*
X11314Y3736D01*
X11497Y3590D02*
X11497Y3468D01*
X11570Y3614D02*
X11314Y3529D01*
X11570Y3443D01*
X11570Y3358D02*
X11314Y3358D01*
X11314Y3261D01*
X11326Y3236D01*
X11338Y3224D01*
X11363Y3212D01*
X11399Y3212D01*
X11424Y3224D01*
X11436Y3236D01*
X11448Y3261D01*
X11448Y3358D01*
X11570Y2956D02*
X11448Y3041D01*
X11570Y3102D02*
X11314Y3102D01*
X11314Y3005D01*
X11326Y2980D01*
X11338Y2968D01*
X11363Y2956D01*
X11399Y2956D01*
X11424Y2968D01*
X11436Y2980D01*
X11448Y3005D01*
X11448Y3102D01*
X11314Y2603D02*
X11314Y2554D01*
X11326Y2529D01*
X11351Y2505D01*
X11399Y2493D01*
X11485Y2493D01*
X11533Y2505D01*
X11558Y2529D01*
X11570Y2554D01*
X11570Y2603D01*
X11558Y2627D01*
X11533Y2651D01*
X11485Y2664D01*
X11399Y2664D01*
X11351Y2651D01*
X11326Y2627D01*
X11314Y2603D01*
X11570Y2383D02*
X11314Y2383D01*
X11436Y2383D02*
X11436Y2237D01*
X11570Y2237D02*
X11314Y2237D01*
X11570Y1993D02*
X11570Y2115D01*
X11314Y2115D01*
X11807Y4918D02*
X11807Y4820D01*
X11722Y4881D02*
X11941Y4881D01*
X11965Y4869D01*
X11977Y4845D01*
X11977Y4820D01*
X11977Y4625D02*
X11843Y4625D01*
X11819Y4638D01*
X11807Y4662D01*
X11807Y4711D01*
X11819Y4735D01*
X11965Y4625D02*
X11977Y4650D01*
X11977Y4711D01*
X11965Y4735D01*
X11941Y4747D01*
X11917Y4747D01*
X11892Y4735D01*
X11880Y4711D01*
X11880Y4650D01*
X11868Y4625D01*
X11807Y4504D02*
X12063Y4504D01*
X11819Y4504D02*
X11807Y4479D01*
X11807Y4431D01*
X11819Y4406D01*
X11831Y4394D01*
X11856Y4382D01*
X11929Y4382D01*
X11953Y4394D01*
X11965Y4406D01*
X11977Y4431D01*
X11977Y4479D01*
X11965Y4504D01*
X11977Y4272D02*
X11807Y4272D01*
X11856Y4272D02*
X11831Y4260D01*
X11819Y4248D01*
X11807Y4223D01*
X11807Y4199D01*
X11953Y4114D02*
X11965Y4101D01*
X11977Y4114D01*
X11965Y4126D01*
X11953Y4114D01*
X11977Y4114D01*
X11977Y3955D02*
X11965Y3980D01*
X11953Y3992D01*
X11929Y4004D01*
X11856Y4004D01*
X11831Y3992D01*
X11819Y3980D01*
X11807Y3955D01*
X11807Y3919D01*
X11819Y3894D01*
X11831Y3882D01*
X11856Y3870D01*
X11929Y3870D01*
X11953Y3882D01*
X11965Y3894D01*
X11977Y3919D01*
X11977Y3955D01*
X11977Y3760D02*
X11807Y3760D01*
X11856Y3760D02*
X11831Y3748D01*
X11819Y3736D01*
X11807Y3712D01*
X11807Y3687D01*
X11807Y3492D02*
X12014Y3492D01*
X12038Y3504D01*
X12051Y3517D01*
X12063Y3541D01*
X12063Y3577D01*
X12051Y3602D01*
X11965Y3492D02*
X11977Y3517D01*
X11977Y3565D01*
X11965Y3590D01*
X11953Y3602D01*
X11929Y3614D01*
X11856Y3614D01*
X11831Y3602D01*
X11819Y3590D01*
X11807Y3565D01*
X11807Y3517D01*
X11819Y3492D01*
X11709Y3188D02*
X12038Y3407D01*
X11722Y3053D02*
X11722Y3005D01*
X11734Y2980D01*
X11758Y2956D01*
X11807Y2944D01*
X11892Y2944D01*
X11941Y2956D01*
X11965Y2980D01*
X11977Y3005D01*
X11977Y3053D01*
X11965Y3078D01*
X11941Y3102D01*
X11892Y3114D01*
X11807Y3114D01*
X11758Y3102D01*
X11734Y3078D01*
X11722Y3053D01*
X11977Y2834D02*
X11722Y2834D01*
X11843Y2834D02*
X11843Y2688D01*
X11977Y2688D02*
X11722Y2688D01*
X11977Y2444D02*
X11977Y2566D01*
X11722Y2566D01*
G54D12*
X11172Y10076D02*
X10916Y10076D01*
X11099Y9991D01*
X10916Y9906D01*
X11172Y9906D01*
X11160Y9686D02*
X11172Y9711D01*
X11172Y9760D01*
X11160Y9784D01*
X11136Y9796D01*
X11038Y9796D01*
X11014Y9784D01*
X11002Y9760D01*
X11002Y9711D01*
X11014Y9686D01*
X11038Y9674D01*
X11063Y9674D01*
X11087Y9796D01*
X11160Y9577D02*
X11172Y9552D01*
X11172Y9504D01*
X11160Y9479D01*
X11136Y9467D01*
X11124Y9467D01*
X11099Y9479D01*
X11087Y9504D01*
X11087Y9540D01*
X11075Y9565D01*
X11050Y9577D01*
X11038Y9577D01*
X11014Y9565D01*
X11002Y9540D01*
X11002Y9504D01*
X11014Y9479D01*
X11172Y9357D02*
X10916Y9357D01*
X11172Y9248D02*
X11038Y9248D01*
X11014Y9260D01*
X11002Y9284D01*
X11002Y9321D01*
X11014Y9345D01*
X11026Y9357D01*
X11172Y9126D02*
X10916Y9126D01*
X10916Y9028D01*
X10929Y9004D01*
X10941Y8992D01*
X10965Y8980D01*
X11002Y8980D01*
X11026Y8992D01*
X11038Y9004D01*
X11050Y9028D01*
X11050Y9126D01*
X11172Y8870D02*
X11002Y8870D01*
X11050Y8870D02*
X11026Y8858D01*
X11014Y8846D01*
X11002Y8821D01*
X11002Y8797D01*
X11172Y8675D02*
X11160Y8699D01*
X11148Y8712D01*
X11124Y8724D01*
X11050Y8724D01*
X11026Y8712D01*
X11014Y8699D01*
X11002Y8675D01*
X11002Y8638D01*
X11014Y8614D01*
X11026Y8602D01*
X11050Y8590D01*
X11124Y8590D01*
X11148Y8602D01*
X11160Y8614D01*
X11172Y8638D01*
X11172Y8675D01*
X11002Y8517D02*
X11002Y8419D01*
X10916Y8480D02*
X11136Y8480D01*
X11160Y8468D01*
X11172Y8443D01*
X11172Y8419D01*
X11172Y8297D02*
X11160Y8322D01*
X11148Y8334D01*
X11124Y8346D01*
X11050Y8346D01*
X11026Y8334D01*
X11014Y8322D01*
X11002Y8297D01*
X11002Y8261D01*
X11014Y8236D01*
X11026Y8224D01*
X11050Y8212D01*
X11124Y8212D01*
X11148Y8224D01*
X11160Y8236D01*
X11172Y8261D01*
X11172Y8297D01*
X11002Y7932D02*
X11172Y7871D01*
X11002Y7810D01*
X11172Y7578D02*
X11172Y7724D01*
X11172Y7651D02*
X10916Y7651D01*
X10953Y7676D01*
X10977Y7700D01*
X10990Y7724D01*
X11148Y7469D02*
X11160Y7456D01*
X11172Y7469D01*
X11160Y7481D01*
X11148Y7469D01*
X11172Y7469D01*
X10916Y7298D02*
X10916Y7274D01*
X10929Y7249D01*
X10941Y7237D01*
X10965Y7225D01*
X11014Y7213D01*
X11075Y7213D01*
X11124Y7225D01*
X11148Y7237D01*
X11160Y7249D01*
X11172Y7274D01*
X11172Y7298D01*
X11160Y7322D01*
X11148Y7335D01*
X11124Y7347D01*
X11075Y7359D01*
X11014Y7359D01*
X10965Y7347D01*
X10941Y7335D01*
X10929Y7322D01*
X10916Y7298D01*
X11375Y9869D02*
X11363Y9894D01*
X11363Y9942D01*
X11375Y9967D01*
X11399Y9991D01*
X11424Y10003D01*
X11473Y10003D01*
X11497Y9991D01*
X11521Y9967D01*
X11533Y9942D01*
X11533Y9894D01*
X11521Y9869D01*
X11278Y9918D02*
X11290Y9979D01*
X11326Y10040D01*
X11387Y10076D01*
X11448Y10089D01*
X11509Y10076D01*
X11570Y10040D01*
X11607Y9979D01*
X11619Y9918D01*
X11607Y9857D01*
X11570Y9796D01*
X11509Y9760D01*
X11448Y9747D01*
X11387Y9760D01*
X11326Y9796D01*
X11290Y9857D01*
X11278Y9918D01*
X11570Y9638D02*
X11314Y9638D01*
X11314Y9577D01*
X11326Y9540D01*
X11351Y9516D01*
X11375Y9504D01*
X11424Y9491D01*
X11460Y9491D01*
X11509Y9504D01*
X11533Y9516D01*
X11558Y9540D01*
X11570Y9577D01*
X11570Y9638D01*
X11570Y9272D02*
X11436Y9272D01*
X11412Y9284D01*
X11399Y9309D01*
X11399Y9357D01*
X11412Y9382D01*
X11558Y9272D02*
X11570Y9296D01*
X11570Y9357D01*
X11558Y9382D01*
X11533Y9394D01*
X11509Y9394D01*
X11485Y9382D01*
X11473Y9357D01*
X11473Y9296D01*
X11460Y9272D01*
X11399Y9175D02*
X11570Y9114D01*
X11399Y9053D01*
X11570Y8955D02*
X11399Y8955D01*
X11314Y8955D02*
X11326Y8967D01*
X11338Y8955D01*
X11326Y8943D01*
X11314Y8955D01*
X11338Y8955D01*
X11570Y8724D02*
X11314Y8724D01*
X11558Y8724D02*
X11570Y8748D01*
X11570Y8797D01*
X11558Y8821D01*
X11546Y8833D01*
X11521Y8846D01*
X11448Y8846D01*
X11424Y8833D01*
X11412Y8821D01*
X11399Y8797D01*
X11399Y8748D01*
X11412Y8724D01*
X11546Y8261D02*
X11558Y8273D01*
X11570Y8309D01*
X11570Y8334D01*
X11558Y8370D01*
X11533Y8395D01*
X11509Y8407D01*
X11460Y8419D01*
X11424Y8419D01*
X11375Y8407D01*
X11351Y8395D01*
X11326Y8370D01*
X11314Y8334D01*
X11314Y8309D01*
X11326Y8273D01*
X11338Y8261D01*
X11570Y8151D02*
X11314Y8151D01*
X11570Y8041D02*
X11436Y8041D01*
X11412Y8053D01*
X11399Y8078D01*
X11399Y8114D01*
X11412Y8139D01*
X11424Y8151D01*
X11570Y7810D02*
X11436Y7810D01*
X11412Y7822D01*
X11399Y7846D01*
X11399Y7895D01*
X11412Y7919D01*
X11558Y7810D02*
X11570Y7834D01*
X11570Y7895D01*
X11558Y7919D01*
X11533Y7932D01*
X11509Y7932D01*
X11485Y7919D01*
X11473Y7895D01*
X11473Y7834D01*
X11460Y7810D01*
X11399Y7688D02*
X11570Y7688D01*
X11424Y7688D02*
X11412Y7676D01*
X11399Y7651D01*
X11399Y7615D01*
X11412Y7590D01*
X11436Y7578D01*
X11570Y7578D01*
X11399Y7493D02*
X11399Y7395D01*
X11314Y7456D02*
X11533Y7456D01*
X11558Y7444D01*
X11570Y7420D01*
X11570Y7395D01*
X11558Y7213D02*
X11570Y7237D01*
X11570Y7286D01*
X11558Y7310D01*
X11533Y7322D01*
X11436Y7322D01*
X11412Y7310D01*
X11399Y7286D01*
X11399Y7237D01*
X11412Y7213D01*
X11436Y7200D01*
X11460Y7200D01*
X11485Y7322D01*
X11570Y7091D02*
X11399Y7091D01*
X11448Y7091D02*
X11424Y7079D01*
X11412Y7066D01*
X11399Y7042D01*
X11399Y7018D01*
X11834Y9991D02*
X11846Y9955D01*
X11858Y9942D01*
X11882Y9930D01*
X11919Y9930D01*
X11943Y9942D01*
X11955Y9955D01*
X11968Y9979D01*
X11968Y10076D01*
X11712Y10076D01*
X11712Y9991D01*
X11724Y9967D01*
X11736Y9955D01*
X11760Y9942D01*
X11785Y9942D01*
X11809Y9955D01*
X11821Y9967D01*
X11834Y9991D01*
X11834Y10076D01*
X11968Y9784D02*
X11955Y9808D01*
X11943Y9820D01*
X11919Y9833D01*
X11846Y9833D01*
X11821Y9820D01*
X11809Y9808D01*
X11797Y9784D01*
X11797Y9747D01*
X11809Y9723D01*
X11821Y9711D01*
X11846Y9699D01*
X11919Y9699D01*
X11943Y9711D01*
X11955Y9723D01*
X11968Y9747D01*
X11968Y9784D01*
X11968Y9589D02*
X11712Y9589D01*
X11809Y9589D02*
X11797Y9565D01*
X11797Y9516D01*
X11809Y9491D01*
X11821Y9479D01*
X11846Y9467D01*
X11919Y9467D01*
X11943Y9479D01*
X11955Y9491D01*
X11968Y9516D01*
X11968Y9565D01*
X11955Y9589D01*
X11968Y9162D02*
X11712Y9162D01*
X11712Y9065D01*
X11724Y9041D01*
X11736Y9028D01*
X11760Y9016D01*
X11797Y9016D01*
X11821Y9028D01*
X11834Y9041D01*
X11846Y9065D01*
X11846Y9162D01*
X11968Y8870D02*
X11955Y8894D01*
X11943Y8907D01*
X11919Y8919D01*
X11846Y8919D01*
X11821Y8907D01*
X11809Y8894D01*
X11797Y8870D01*
X11797Y8833D01*
X11809Y8809D01*
X11821Y8797D01*
X11846Y8785D01*
X11919Y8785D01*
X11943Y8797D01*
X11955Y8809D01*
X11968Y8833D01*
X11968Y8870D01*
X11797Y8699D02*
X11968Y8651D01*
X11846Y8602D01*
X11968Y8553D01*
X11797Y8504D01*
X11955Y8309D02*
X11968Y8334D01*
X11968Y8383D01*
X11955Y8407D01*
X11931Y8419D01*
X11834Y8419D01*
X11809Y8407D01*
X11797Y8383D01*
X11797Y8334D01*
X11809Y8309D01*
X11834Y8297D01*
X11858Y8297D01*
X11882Y8419D01*
X11968Y8188D02*
X11797Y8188D01*
X11846Y8188D02*
X11821Y8175D01*
X11809Y8163D01*
X11797Y8139D01*
X11797Y8114D01*
X11955Y8041D02*
X11968Y8017D01*
X11968Y7968D01*
X11955Y7944D01*
X11931Y7932D01*
X11919Y7932D01*
X11895Y7944D01*
X11882Y7968D01*
X11882Y8005D01*
X11870Y8029D01*
X11846Y8041D01*
X11834Y8041D01*
X11809Y8029D01*
X11797Y8005D01*
X11797Y7968D01*
X11809Y7944D01*
X11955Y7810D02*
X11968Y7810D01*
X11992Y7822D01*
X12004Y7834D01*
X11895Y7517D02*
X11895Y7395D01*
X11968Y7542D02*
X11712Y7456D01*
X11968Y7371D01*
X11797Y7286D02*
X11968Y7286D01*
X11821Y7286D02*
X11809Y7274D01*
X11797Y7249D01*
X11797Y7213D01*
X11809Y7188D01*
X11834Y7176D01*
X11968Y7176D01*
X11968Y6945D02*
X11712Y6945D01*
X11955Y6945D02*
X11968Y6969D01*
X11968Y7018D01*
X11955Y7042D01*
X11943Y7054D01*
X11919Y7066D01*
X11846Y7066D01*
X11821Y7054D01*
X11809Y7042D01*
X11797Y7018D01*
X11797Y6969D01*
X11809Y6945D01*
X11797Y6847D02*
X11968Y6786D01*
X11797Y6725D02*
X11968Y6786D01*
X12029Y6811D01*
X12041Y6823D01*
X12053Y6847D01*
X11724Y6299D02*
X11712Y6323D01*
X11712Y6360D01*
X11724Y6396D01*
X11748Y6421D01*
X11773Y6433D01*
X11821Y6445D01*
X11858Y6445D01*
X11907Y6433D01*
X11931Y6421D01*
X11955Y6396D01*
X11968Y6360D01*
X11968Y6335D01*
X11955Y6299D01*
X11943Y6287D01*
X11858Y6287D01*
X11858Y6335D01*
X11955Y6079D02*
X11968Y6104D01*
X11968Y6152D01*
X11955Y6177D01*
X11931Y6189D01*
X11834Y6189D01*
X11809Y6177D01*
X11797Y6152D01*
X11797Y6104D01*
X11809Y6079D01*
X11834Y6067D01*
X11858Y6067D01*
X11882Y6189D01*
X11968Y5921D02*
X11955Y5945D01*
X11931Y5958D01*
X11712Y5958D01*
X11968Y5823D02*
X11797Y5823D01*
X11821Y5823D02*
X11809Y5811D01*
X11797Y5787D01*
X11797Y5750D01*
X11809Y5726D01*
X11834Y5714D01*
X11968Y5714D01*
X11834Y5714D02*
X11809Y5702D01*
X11797Y5677D01*
X11797Y5641D01*
X11809Y5616D01*
X11834Y5604D01*
X11968Y5604D01*
X11955Y5385D02*
X11968Y5409D01*
X11968Y5458D01*
X11955Y5482D01*
X11931Y5494D01*
X11834Y5494D01*
X11809Y5482D01*
X11797Y5458D01*
X11797Y5409D01*
X11809Y5385D01*
X11834Y5373D01*
X11858Y5373D01*
X11882Y5494D01*
M02*
