%FSLAX34Y34*%
G04 Gerber Fmt 3.4, Leading zero omitted, Abs format*
G04 (created by PCBNEW (2013-11-13 BZR 4466)-product) date Fri 22 Nov 2013 08:51:14 EST*
%MOIN*%
G01*
G70*
G90*
G04 APERTURE LIST*
%ADD10C,0.005906*%
%ADD11C,0.003937*%
%ADD12C,0.011811*%
%ADD13C,0.007874*%
%ADD14C,0.015000*%
%ADD15C,0.006000*%
G04 APERTURE END LIST*
G54D10*
G54D11*
X11112Y8554D02*
X10916Y8554D01*
X11056Y8619D01*
X10916Y8685D01*
X11112Y8685D01*
X11103Y8854D02*
X11112Y8835D01*
X11112Y8797D01*
X11103Y8779D01*
X11084Y8769D01*
X11009Y8769D01*
X10991Y8779D01*
X10981Y8797D01*
X10981Y8835D01*
X10991Y8854D01*
X11009Y8863D01*
X11028Y8863D01*
X11047Y8769D01*
X11103Y8938D02*
X11112Y8957D01*
X11112Y8994D01*
X11103Y9013D01*
X11084Y9022D01*
X11075Y9022D01*
X11056Y9013D01*
X11047Y8994D01*
X11047Y8966D01*
X11037Y8947D01*
X11019Y8938D01*
X11009Y8938D01*
X10991Y8947D01*
X10981Y8966D01*
X10981Y8994D01*
X10991Y9013D01*
X11112Y9107D02*
X10916Y9107D01*
X11112Y9191D02*
X11009Y9191D01*
X10991Y9182D01*
X10981Y9163D01*
X10981Y9135D01*
X10991Y9116D01*
X11000Y9107D01*
X11112Y9285D02*
X10916Y9285D01*
X10916Y9360D01*
X10925Y9379D01*
X10934Y9388D01*
X10953Y9397D01*
X10981Y9397D01*
X11000Y9388D01*
X11009Y9379D01*
X11019Y9360D01*
X11019Y9285D01*
X11112Y9482D02*
X10981Y9482D01*
X11019Y9482D02*
X11000Y9491D01*
X10991Y9500D01*
X10981Y9519D01*
X10981Y9538D01*
X11112Y9632D02*
X11103Y9613D01*
X11094Y9604D01*
X11075Y9594D01*
X11019Y9594D01*
X11000Y9604D01*
X10991Y9613D01*
X10981Y9632D01*
X10981Y9660D01*
X10991Y9679D01*
X11000Y9688D01*
X11019Y9697D01*
X11075Y9697D01*
X11094Y9688D01*
X11103Y9679D01*
X11112Y9660D01*
X11112Y9632D01*
X10981Y9754D02*
X10981Y9829D01*
X10916Y9782D02*
X11084Y9782D01*
X11103Y9791D01*
X11112Y9810D01*
X11112Y9829D01*
X11112Y9922D02*
X11103Y9904D01*
X11094Y9894D01*
X11075Y9885D01*
X11019Y9885D01*
X11000Y9894D01*
X10991Y9904D01*
X10981Y9922D01*
X10981Y9950D01*
X10991Y9969D01*
X11000Y9979D01*
X11019Y9988D01*
X11075Y9988D01*
X11094Y9979D01*
X11103Y9969D01*
X11112Y9950D01*
X11112Y9922D01*
X10981Y10204D02*
X11112Y10250D01*
X10981Y10297D01*
X11112Y10475D02*
X11112Y10363D01*
X11112Y10419D02*
X10916Y10419D01*
X10944Y10400D01*
X10963Y10382D01*
X10972Y10363D01*
X11094Y10560D02*
X11103Y10569D01*
X11112Y10560D01*
X11103Y10550D01*
X11094Y10560D01*
X11112Y10560D01*
X10916Y10691D02*
X10916Y10710D01*
X10925Y10728D01*
X10934Y10738D01*
X10953Y10747D01*
X10991Y10757D01*
X11037Y10757D01*
X11075Y10747D01*
X11094Y10738D01*
X11103Y10728D01*
X11112Y10710D01*
X11112Y10691D01*
X11103Y10672D01*
X11094Y10663D01*
X11075Y10653D01*
X11037Y10644D01*
X10991Y10644D01*
X10953Y10653D01*
X10934Y10663D01*
X10925Y10672D01*
X10916Y10691D01*
X11277Y7537D02*
X11268Y7518D01*
X11268Y7480D01*
X11277Y7462D01*
X11296Y7443D01*
X11315Y7434D01*
X11352Y7434D01*
X11371Y7443D01*
X11390Y7462D01*
X11399Y7480D01*
X11399Y7518D01*
X11390Y7537D01*
X11202Y7499D02*
X11212Y7452D01*
X11240Y7405D01*
X11287Y7377D01*
X11334Y7368D01*
X11381Y7377D01*
X11427Y7405D01*
X11456Y7452D01*
X11465Y7499D01*
X11456Y7546D01*
X11427Y7593D01*
X11381Y7621D01*
X11334Y7630D01*
X11287Y7621D01*
X11240Y7593D01*
X11212Y7546D01*
X11202Y7499D01*
X11427Y7865D02*
X11231Y7865D01*
X11231Y7912D01*
X11240Y7940D01*
X11259Y7958D01*
X11277Y7968D01*
X11315Y7977D01*
X11343Y7977D01*
X11381Y7968D01*
X11399Y7958D01*
X11418Y7940D01*
X11427Y7912D01*
X11427Y7865D01*
X11427Y8146D02*
X11324Y8146D01*
X11306Y8137D01*
X11296Y8118D01*
X11296Y8080D01*
X11306Y8062D01*
X11418Y8146D02*
X11427Y8127D01*
X11427Y8080D01*
X11418Y8062D01*
X11399Y8052D01*
X11381Y8052D01*
X11362Y8062D01*
X11352Y8080D01*
X11352Y8127D01*
X11343Y8146D01*
X11296Y8221D02*
X11427Y8268D01*
X11296Y8315D01*
X11427Y8390D02*
X11296Y8390D01*
X11231Y8390D02*
X11240Y8380D01*
X11249Y8390D01*
X11240Y8399D01*
X11231Y8390D01*
X11249Y8390D01*
X11427Y8568D02*
X11231Y8568D01*
X11418Y8568D02*
X11427Y8549D01*
X11427Y8512D01*
X11418Y8493D01*
X11409Y8483D01*
X11390Y8474D01*
X11334Y8474D01*
X11315Y8483D01*
X11306Y8493D01*
X11296Y8512D01*
X11296Y8549D01*
X11306Y8568D01*
X11409Y8924D02*
X11418Y8915D01*
X11427Y8886D01*
X11427Y8868D01*
X11418Y8840D01*
X11399Y8821D01*
X11381Y8811D01*
X11343Y8802D01*
X11315Y8802D01*
X11277Y8811D01*
X11259Y8821D01*
X11240Y8840D01*
X11231Y8868D01*
X11231Y8886D01*
X11240Y8915D01*
X11249Y8924D01*
X11427Y9008D02*
X11231Y9008D01*
X11427Y9093D02*
X11324Y9093D01*
X11306Y9083D01*
X11296Y9065D01*
X11296Y9036D01*
X11306Y9018D01*
X11315Y9008D01*
X11427Y9271D02*
X11324Y9271D01*
X11306Y9261D01*
X11296Y9243D01*
X11296Y9205D01*
X11306Y9186D01*
X11418Y9271D02*
X11427Y9252D01*
X11427Y9205D01*
X11418Y9186D01*
X11399Y9177D01*
X11381Y9177D01*
X11362Y9186D01*
X11352Y9205D01*
X11352Y9252D01*
X11343Y9271D01*
X11296Y9365D02*
X11427Y9365D01*
X11315Y9365D02*
X11306Y9374D01*
X11296Y9393D01*
X11296Y9421D01*
X11306Y9440D01*
X11324Y9449D01*
X11427Y9449D01*
X11296Y9515D02*
X11296Y9590D01*
X11231Y9543D02*
X11399Y9543D01*
X11418Y9552D01*
X11427Y9571D01*
X11427Y9590D01*
X11418Y9730D02*
X11427Y9711D01*
X11427Y9674D01*
X11418Y9655D01*
X11399Y9646D01*
X11324Y9646D01*
X11306Y9655D01*
X11296Y9674D01*
X11296Y9711D01*
X11306Y9730D01*
X11324Y9739D01*
X11343Y9739D01*
X11362Y9646D01*
X11427Y9824D02*
X11296Y9824D01*
X11334Y9824D02*
X11315Y9833D01*
X11306Y9843D01*
X11296Y9861D01*
X11296Y9880D01*
X11418Y9955D02*
X11427Y9955D01*
X11446Y9946D01*
X11456Y9936D01*
X11324Y10255D02*
X11334Y10283D01*
X11343Y10293D01*
X11362Y10302D01*
X11390Y10302D01*
X11409Y10293D01*
X11418Y10283D01*
X11427Y10264D01*
X11427Y10189D01*
X11231Y10189D01*
X11231Y10255D01*
X11240Y10274D01*
X11249Y10283D01*
X11268Y10293D01*
X11287Y10293D01*
X11306Y10283D01*
X11315Y10274D01*
X11324Y10255D01*
X11324Y10189D01*
X11427Y10414D02*
X11418Y10396D01*
X11409Y10386D01*
X11390Y10377D01*
X11334Y10377D01*
X11315Y10386D01*
X11306Y10396D01*
X11296Y10414D01*
X11296Y10443D01*
X11306Y10461D01*
X11315Y10471D01*
X11334Y10480D01*
X11390Y10480D01*
X11409Y10471D01*
X11418Y10461D01*
X11427Y10443D01*
X11427Y10414D01*
X11427Y10564D02*
X11231Y10564D01*
X11306Y10564D02*
X11296Y10583D01*
X11296Y10621D01*
X11306Y10639D01*
X11315Y10649D01*
X11334Y10658D01*
X11390Y10658D01*
X11409Y10649D01*
X11418Y10639D01*
X11427Y10621D01*
X11427Y10583D01*
X11418Y10564D01*
X11427Y10892D02*
X11231Y10892D01*
X11231Y10967D01*
X11240Y10986D01*
X11249Y10996D01*
X11268Y11005D01*
X11296Y11005D01*
X11315Y10996D01*
X11324Y10986D01*
X11334Y10967D01*
X11334Y10892D01*
X11427Y11117D02*
X11418Y11099D01*
X11409Y11089D01*
X11390Y11080D01*
X11334Y11080D01*
X11315Y11089D01*
X11306Y11099D01*
X11296Y11117D01*
X11296Y11146D01*
X11306Y11164D01*
X11315Y11174D01*
X11334Y11183D01*
X11390Y11183D01*
X11409Y11174D01*
X11418Y11164D01*
X11427Y11146D01*
X11427Y11117D01*
X11296Y11249D02*
X11427Y11286D01*
X11334Y11324D01*
X11427Y11361D01*
X11296Y11399D01*
X11418Y11549D02*
X11427Y11530D01*
X11427Y11492D01*
X11418Y11474D01*
X11399Y11464D01*
X11324Y11464D01*
X11306Y11474D01*
X11296Y11492D01*
X11296Y11530D01*
X11306Y11549D01*
X11324Y11558D01*
X11343Y11558D01*
X11362Y11464D01*
X11427Y11642D02*
X11296Y11642D01*
X11334Y11642D02*
X11315Y11652D01*
X11306Y11661D01*
X11296Y11680D01*
X11296Y11699D01*
X11418Y11755D02*
X11427Y11774D01*
X11427Y11811D01*
X11418Y11830D01*
X11399Y11839D01*
X11390Y11839D01*
X11371Y11830D01*
X11362Y11811D01*
X11362Y11783D01*
X11352Y11764D01*
X11334Y11755D01*
X11324Y11755D01*
X11306Y11764D01*
X11296Y11783D01*
X11296Y11811D01*
X11306Y11830D01*
X11418Y11933D02*
X11427Y11933D01*
X11446Y11924D01*
X11456Y11914D01*
X11686Y8826D02*
X11686Y8919D01*
X11742Y8807D02*
X11546Y8872D01*
X11742Y8938D01*
X11611Y9004D02*
X11742Y9004D01*
X11630Y9004D02*
X11621Y9013D01*
X11611Y9032D01*
X11611Y9060D01*
X11621Y9079D01*
X11639Y9088D01*
X11742Y9088D01*
X11742Y9266D02*
X11546Y9266D01*
X11733Y9266D02*
X11742Y9247D01*
X11742Y9210D01*
X11733Y9191D01*
X11724Y9182D01*
X11705Y9172D01*
X11649Y9172D01*
X11630Y9182D01*
X11621Y9191D01*
X11611Y9210D01*
X11611Y9247D01*
X11621Y9266D01*
X11611Y9341D02*
X11742Y9388D01*
X11611Y9435D02*
X11742Y9388D01*
X11789Y9369D01*
X11799Y9360D01*
X11808Y9341D01*
X11555Y9763D02*
X11546Y9744D01*
X11546Y9716D01*
X11555Y9688D01*
X11574Y9669D01*
X11592Y9660D01*
X11630Y9650D01*
X11658Y9650D01*
X11696Y9660D01*
X11714Y9669D01*
X11733Y9688D01*
X11742Y9716D01*
X11742Y9735D01*
X11733Y9763D01*
X11724Y9772D01*
X11658Y9772D01*
X11658Y9735D01*
X11733Y9932D02*
X11742Y9913D01*
X11742Y9875D01*
X11733Y9857D01*
X11714Y9847D01*
X11639Y9847D01*
X11621Y9857D01*
X11611Y9875D01*
X11611Y9913D01*
X11621Y9932D01*
X11639Y9941D01*
X11658Y9941D01*
X11677Y9847D01*
X11742Y10054D02*
X11733Y10035D01*
X11714Y10025D01*
X11546Y10025D01*
X11742Y10129D02*
X11611Y10129D01*
X11630Y10129D02*
X11621Y10138D01*
X11611Y10157D01*
X11611Y10185D01*
X11621Y10204D01*
X11639Y10213D01*
X11742Y10213D01*
X11639Y10213D02*
X11621Y10222D01*
X11611Y10241D01*
X11611Y10269D01*
X11621Y10288D01*
X11639Y10297D01*
X11742Y10297D01*
X11733Y10466D02*
X11742Y10447D01*
X11742Y10410D01*
X11733Y10391D01*
X11714Y10382D01*
X11639Y10382D01*
X11621Y10391D01*
X11611Y10410D01*
X11611Y10447D01*
X11621Y10466D01*
X11639Y10475D01*
X11658Y10475D01*
X11677Y10382D01*
G54D12*
X11613Y13353D02*
X11613Y13803D01*
X11501Y13691D02*
X11613Y13803D01*
X11726Y13691D01*
G54D13*
X11503Y14970D02*
X11233Y14970D01*
X11033Y14770D02*
X11213Y14950D01*
X11033Y14270D02*
X11033Y14770D01*
X11693Y14270D02*
X11033Y14270D01*
X11693Y14780D02*
X11693Y14270D01*
X11503Y14970D02*
X11693Y14780D01*
G54D11*
X10872Y14018D02*
X10984Y14018D01*
X10928Y13821D02*
X10928Y14018D01*
X11050Y13821D02*
X11050Y14018D01*
X11134Y13821D02*
X11134Y13925D01*
X11125Y13943D01*
X11106Y13953D01*
X11078Y13953D01*
X11059Y13943D01*
X11050Y13934D01*
X11228Y13821D02*
X11228Y13953D01*
X11228Y14018D02*
X11218Y14009D01*
X11228Y13999D01*
X11237Y14009D01*
X11228Y14018D01*
X11228Y13999D01*
X11312Y13831D02*
X11331Y13821D01*
X11368Y13821D01*
X11387Y13831D01*
X11397Y13850D01*
X11397Y13859D01*
X11387Y13878D01*
X11368Y13887D01*
X11340Y13887D01*
X11322Y13896D01*
X11312Y13915D01*
X11312Y13925D01*
X11322Y13943D01*
X11340Y13953D01*
X11368Y13953D01*
X11387Y13943D01*
X10895Y13703D02*
X10942Y13506D01*
X10979Y13647D01*
X11017Y13506D01*
X11064Y13703D01*
X11223Y13506D02*
X11223Y13610D01*
X11214Y13628D01*
X11195Y13638D01*
X11157Y13638D01*
X11139Y13628D01*
X11223Y13516D02*
X11204Y13506D01*
X11157Y13506D01*
X11139Y13516D01*
X11129Y13535D01*
X11129Y13553D01*
X11139Y13572D01*
X11157Y13581D01*
X11204Y13581D01*
X11223Y13591D01*
X11298Y13638D02*
X11345Y13506D01*
X11392Y13638D02*
X11345Y13506D01*
X11326Y13460D01*
X11317Y13450D01*
X11298Y13441D01*
X10998Y13388D02*
X10998Y13229D01*
X11008Y13210D01*
X11017Y13201D01*
X11036Y13191D01*
X11073Y13191D01*
X11092Y13201D01*
X11101Y13210D01*
X11111Y13229D01*
X11111Y13388D01*
X11204Y13323D02*
X11204Y13126D01*
X11204Y13313D02*
X11223Y13323D01*
X11261Y13323D01*
X11279Y13313D01*
X11289Y13304D01*
X11298Y13285D01*
X11298Y13229D01*
X11289Y13210D01*
X11279Y13201D01*
X11261Y13191D01*
X11223Y13191D01*
X11204Y13201D01*
X303Y12339D02*
X285Y12348D01*
X257Y12348D01*
X228Y12339D01*
X210Y12320D01*
X200Y12301D01*
X191Y12264D01*
X191Y12236D01*
X200Y12198D01*
X210Y12180D01*
X228Y12161D01*
X257Y12151D01*
X275Y12151D01*
X303Y12161D01*
X313Y12170D01*
X313Y12236D01*
X275Y12236D01*
X397Y12151D02*
X397Y12348D01*
X510Y12151D01*
X510Y12348D01*
X603Y12151D02*
X603Y12348D01*
X650Y12348D01*
X678Y12339D01*
X697Y12320D01*
X707Y12301D01*
X716Y12264D01*
X716Y12236D01*
X707Y12198D01*
X697Y12180D01*
X678Y12161D01*
X650Y12151D01*
X603Y12151D01*
X269Y14748D02*
X391Y14748D01*
X325Y14673D01*
X353Y14673D01*
X372Y14664D01*
X382Y14655D01*
X391Y14636D01*
X391Y14589D01*
X382Y14570D01*
X372Y14561D01*
X353Y14551D01*
X297Y14551D01*
X278Y14561D01*
X269Y14570D01*
X457Y14683D02*
X503Y14551D01*
X550Y14683D01*
X607Y14748D02*
X728Y14748D01*
X663Y14673D01*
X691Y14673D01*
X710Y14664D01*
X719Y14655D01*
X728Y14636D01*
X728Y14589D01*
X719Y14570D01*
X710Y14561D01*
X691Y14551D01*
X635Y14551D01*
X616Y14561D01*
X607Y14570D01*
X2369Y16648D02*
X2491Y16648D01*
X2425Y16573D01*
X2453Y16573D01*
X2472Y16564D01*
X2482Y16555D01*
X2491Y16536D01*
X2491Y16489D01*
X2482Y16470D01*
X2472Y16461D01*
X2453Y16451D01*
X2397Y16451D01*
X2378Y16461D01*
X2369Y16470D01*
X2557Y16583D02*
X2603Y16451D01*
X2650Y16583D01*
X2707Y16648D02*
X2828Y16648D01*
X2763Y16573D01*
X2791Y16573D01*
X2810Y16564D01*
X2819Y16555D01*
X2828Y16536D01*
X2828Y16489D01*
X2819Y16470D01*
X2810Y16461D01*
X2791Y16451D01*
X2735Y16451D01*
X2716Y16461D01*
X2707Y16470D01*
G54D13*
X3003Y17040D02*
X2053Y17040D01*
X2053Y16040D02*
X2053Y17040D01*
X2003Y5090D02*
X2203Y5090D01*
X2003Y6040D02*
X2003Y5090D01*
X2203Y6040D02*
X2003Y6040D01*
X2203Y6040D02*
X3053Y6040D01*
X3003Y5090D02*
X2203Y5090D01*
G54D11*
X2403Y5639D02*
X2385Y5648D01*
X2357Y5648D01*
X2328Y5639D01*
X2310Y5620D01*
X2300Y5601D01*
X2291Y5564D01*
X2291Y5536D01*
X2300Y5498D01*
X2310Y5480D01*
X2328Y5461D01*
X2357Y5451D01*
X2375Y5451D01*
X2403Y5461D01*
X2413Y5470D01*
X2413Y5536D01*
X2375Y5536D01*
X2497Y5451D02*
X2497Y5648D01*
X2610Y5451D01*
X2610Y5648D01*
X2703Y5451D02*
X2703Y5648D01*
X2750Y5648D01*
X2778Y5639D01*
X2797Y5620D01*
X2807Y5601D01*
X2816Y5564D01*
X2816Y5536D01*
X2807Y5498D01*
X2797Y5480D01*
X2778Y5461D01*
X2750Y5451D01*
X2703Y5451D01*
G54D13*
X9003Y5090D02*
X3003Y5090D01*
X9003Y6040D02*
X9003Y5090D01*
X3003Y6040D02*
X9053Y6040D01*
X9003Y17040D02*
X9003Y16040D01*
X3003Y17040D02*
X9003Y17040D01*
X8953Y16040D02*
X3003Y16040D01*
G54D14*
X1068Y14600D02*
X1068Y14700D01*
X10868Y14600D02*
X10868Y14700D01*
G54D15*
X3003Y6040D02*
X2003Y6040D01*
X2003Y7040D02*
X3003Y7040D01*
X2003Y6040D02*
X2003Y7040D01*
X3003Y7040D02*
X3003Y6040D01*
X3003Y7040D02*
X2003Y7040D01*
X2003Y8040D02*
X3003Y8040D01*
X2003Y7040D02*
X2003Y8040D01*
X3003Y8040D02*
X3003Y7040D01*
X3003Y8040D02*
X2003Y8040D01*
X2003Y9040D02*
X3003Y9040D01*
X2003Y8040D02*
X2003Y9040D01*
X3003Y9040D02*
X3003Y8040D01*
X3003Y9040D02*
X2003Y9040D01*
X2003Y10040D02*
X3003Y10040D01*
X2003Y9040D02*
X2003Y10040D01*
X3003Y10040D02*
X3003Y9040D01*
X3003Y10040D02*
X2003Y10040D01*
X2003Y11040D02*
X3003Y11040D01*
X2003Y10040D02*
X2003Y11040D01*
X3003Y11040D02*
X3003Y10040D01*
X3003Y11040D02*
X2003Y11040D01*
X2003Y12040D02*
X3003Y12040D01*
X2003Y11040D02*
X2003Y12040D01*
X3003Y12040D02*
X3003Y11040D01*
X3003Y12040D02*
X2003Y12040D01*
X2003Y13040D02*
X3003Y13040D01*
X2003Y12040D02*
X2003Y13040D01*
X3003Y13040D02*
X3003Y12040D01*
X3003Y13040D02*
X2003Y13040D01*
X2003Y14040D02*
X3003Y14040D01*
X2003Y13040D02*
X2003Y14040D01*
X3003Y14040D02*
X3003Y13040D01*
X3003Y14040D02*
X2003Y14040D01*
X2003Y15040D02*
X3003Y15040D01*
X2003Y14040D02*
X2003Y15040D01*
X3003Y15040D02*
X3003Y14040D01*
X3003Y15040D02*
X2003Y15040D01*
X2003Y16040D02*
X3003Y16040D01*
X2003Y15040D02*
X2003Y16040D01*
X3003Y16040D02*
X3003Y15040D01*
X10003Y6040D02*
X9003Y6040D01*
X9003Y7040D02*
X10003Y7040D01*
X9003Y6040D02*
X9003Y7040D01*
X10003Y7040D02*
X10003Y6040D01*
X10003Y7040D02*
X9003Y7040D01*
X9003Y8040D02*
X10003Y8040D01*
X9003Y7040D02*
X9003Y8040D01*
X10003Y8040D02*
X10003Y7040D01*
X10003Y8040D02*
X9003Y8040D01*
X9003Y9040D02*
X10003Y9040D01*
X9003Y8040D02*
X9003Y9040D01*
X10003Y9040D02*
X10003Y8040D01*
X10003Y9040D02*
X9003Y9040D01*
X9003Y10040D02*
X10003Y10040D01*
X9003Y9040D02*
X9003Y10040D01*
X10003Y10040D02*
X10003Y9040D01*
X10003Y10040D02*
X9003Y10040D01*
X9003Y11040D02*
X10003Y11040D01*
X9003Y10040D02*
X9003Y11040D01*
X10003Y11040D02*
X10003Y10040D01*
X10003Y11040D02*
X9003Y11040D01*
X9003Y12040D02*
X10003Y12040D01*
X9003Y11040D02*
X9003Y12040D01*
X10003Y12040D02*
X10003Y11040D01*
X10003Y12040D02*
X9003Y12040D01*
X9003Y13040D02*
X10003Y13040D01*
X9003Y12040D02*
X9003Y13040D01*
X10003Y13040D02*
X10003Y12040D01*
X10003Y13040D02*
X9003Y13040D01*
X9003Y14040D02*
X10003Y14040D01*
X9003Y13040D02*
X9003Y14040D01*
X10003Y14040D02*
X10003Y13040D01*
X10003Y14040D02*
X9003Y14040D01*
X9003Y15040D02*
X10003Y15040D01*
X9003Y14040D02*
X9003Y15040D01*
X10003Y15040D02*
X10003Y14040D01*
X10003Y15040D02*
X9003Y15040D01*
X9003Y16040D02*
X10003Y16040D01*
X9003Y15040D02*
X9003Y16040D01*
X10003Y16040D02*
X10003Y15040D01*
G54D14*
X1947Y16232D02*
G75*
G03X1947Y16232I-900J0D01*
G74*
G01*
X11789Y16232D02*
G75*
G03X11789Y16232I-900J0D01*
G74*
G01*
X1947Y5996D02*
G75*
G03X1947Y5996I-900J0D01*
G74*
G01*
X11789Y5996D02*
G75*
G03X11789Y5996I-900J0D01*
G74*
G01*
G54D10*
X1165Y14207D02*
X2110Y14207D01*
X2110Y15092D02*
X2110Y7022D01*
X2110Y7022D02*
X1165Y7022D01*
X1165Y7022D02*
X1165Y15092D01*
X1165Y15092D02*
X2110Y15092D01*
X10771Y7907D02*
X9826Y7907D01*
X9826Y7022D02*
X9826Y15092D01*
X9826Y15092D02*
X10771Y15092D01*
X10771Y15092D02*
X10771Y7022D01*
X10771Y7022D02*
X9826Y7022D01*
X-31Y10716D02*
X251Y10716D01*
X-31Y9181D02*
X251Y9181D01*
X-31Y10716D02*
X-31Y9181D01*
X1106Y10716D02*
X826Y10716D01*
X1110Y10716D02*
X1110Y9181D01*
X1110Y9181D02*
X826Y9181D01*
M02*
